{
.appVersion = "3151";
.formatVersion = 3;
DisplayStrings = (
"ABCDE
abcde",
"W ",
"lcCo?",
" Z",
"Ü",
" ",
"handgloves
ADHESION"
);
date = "2023-10-02 05:34:29 +0000";
familyName = "New Font";
fontMaster = (
{
id = m01;
metricValues = (
{
over = 16;
pos = 800;
},
{
over = 16;
pos = 700;
},
{
over = 16;
pos = 500;
},
{
over = -16;
},
{
over = -16;
pos = -200;
},
{
over = -16;
}
);
name = Regular;
}
);
glyphs = (
{
glyphname = A;
lastChange = "2023-10-14 12:30:12 +0000";
layers = (
{
anchors = (
{
name = bottom;
pos = (216,1);
},
{
name = ogonek;
pos = (417,20);
},
{
name = top;
pos = (51,700);
}
);
layerId = m01;
shapes = (
{
closed = 1;
nodes = (
(228,1,o),
(309,2,o),
(321,1,cs),
(335,1,o),
(345,8,o),
(359,9,c),
(393,1,l),
(403,1,o),
(432,1,o),
(432,17,cs),
(432,21,o),
(431,27,o),
(427,33,cs),
(409,69,o),
(390,103,o),
(371,137,cs),
(365,149,o),
(356,161,o),
(353,173,cs),
(350,187,o),
(327,237,o),
(317,246,cs),
(305,256,o),
(306,271,o),
(297,281,cs),
(279,302,o),
(272,329,o),
(255,351,c),
(255,364,o),
(253,372,o),
(244,381,cs),
(235,391,o),
(234,404,o),
(226,414,cs),
(218,422,o),
(213,432,o),
(207,441,cs),
(182,489,o),
(158,535,o),
(133,581,cs),
(128,592,o),
(119,601,o),
(118,611,cs),
(118,626,o),
(100,630,o),
(100,644,c),
(89,653,o),
(84,665,o),
(77,677,cs),
(72,684,o),
(66,691,o),
(59,696,cs),
(48,707,o),
(28,697,o),
(28,681,cs),
(28,594,ls),
(28,591,o),
(27,586,o),
(29,584,cs),
(35,578,o),
(37,570,o),
(37,564,cs),
(37,558,o),
(36,553,o),
(36,548,cs),
(36,451,ls),
(36,444,o),
(35,439,o),
(34,432,c),
(22,427,o),
(42,416,o),
(29,411,c),
(29,401,o),
(28,391,o),
(28,48,cs),
(28,37,o),
(30,28,o),
(21,19,cs),
(17,16,o),
(23,9,o),
(28,8,cs),
(35,8,o),
(76,7,o),
(83,2,cs),
(84,1,o),
(104,8,o),
(112,8,cs),
(181,8,ls),
(204,8,o),
(198,1,o),
(216,1,cs)
);
},
{
closed = 1;
nodes = (
(372,35,o),
(359,33,o),
(352,32,cs),
(348,31,o),
(342,31,o),
(340,32,cs),
(331,42,o),
(291,40,o),
(283,32,c),
(273,43,o),
(244,42,o),
(235,32,c),
(227,38,o),
(219,39,o),
(209,39,cs),
(200,38,o),
(190,39,o),
(84,39,cs),
(78,39,o),
(73,38,o),
(68,39,cs),
(57,45,o),
(49,53,o),
(56,61,cs),
(62,67,o),
(61,72,o),
(55,77,c),
(51,82,o),
(57,83,o),
(58,86,cs),
(61,92,o),
(60,108,o),
(60,113,cs),
(60,120,o),
(61,127,o),
(67,133,c),
(61,140,o),
(59,147,o),
(59,156,cs),
(59,163,o),
(61,172,o),
(61,180,cs),
(61,187,o),
(60,297,o),
(60,304,cs),
(60,313,o),
(62,323,o),
(68,331,cs),
(69,333,o),
(65,339,o),
(63,342,c),
(63,347,o),
(86,355,o),
(90,351,cs),
(97,347,o),
(105,347,o),
(113,347,cs),
(206,347,ls),
(219,347,o),
(226,343,o),
(231,332,cs),
(235,321,o),
(240,309,o),
(247,299,cs),
(257,285,o),
(261,267,o),
(276,255,cs),
(283,249,o),
(276,237,o),
(285,232,cs),
(294,226,o),
(293,217,o),
(296,210,cs),
(302,194,o),
(336,141,o),
(336,126,c),
(337,121,o),
(341,115,o),
(345,110,cs),
(365,90,o),
(373,64,o),
(387,42,c),
(392,28,o),
(388,32,o),
(377,31,c)
);
},
{
closed = 1;
nodes = (
(119,388,o),
(95,387,o),
(74,379,c),
(73,378,o),
(69,381,o),
(69,382,cs),
(68,390,o),
(68,417,o),
(68,421,cs),
(68,427,o),
(67,434,o),
(62,440,cs),
(59,443,o),
(59,466,o),
(61,469,cs),
(70,482,o),
(72,494,o),
(63,507,c),
(67,517,o),
(70,524,o),
(68,527,cs),
(61,536,o),
(61,617,o),
(61,626,cs),
(61,630,o),
(68,629,o),
(68,627,cs),
(68,616,o),
(84,613,o),
(84,603,cs),
(84,593,o),
(89,587,o),
(95,580,cs),
(102,572,o),
(105,563,o),
(113,556,cs),
(121,550,o),
(113,538,o),
(123,532,c),
(139,501,o),
(174,433,o),
(176,432,cs),
(191,423,o),
(188,405,o),
(197,393,cs),
(198,392,o),
(195,385,o),
(192,385,cs),
(181,383,o),
(169,385,o),
(158,377,cs),
(154,375,o),
(144,375,o),
(139,377,cs)
);
}
);
width = 432;
}
);
unicode = 65;
},
{
glyphname = AE;
lastChange = "2023-10-17 05:38:07 +0000";
layers = (
{
anchors = (
{
name = bottom;
pos = (236,1);
},
{
name = ogonek;
pos = (35,20);
},
{
name = top;
pos = (401,700);
}
);
layerId = m01;
shapes = (
{
closed = 1;
nodes = (
(254,1,o),
(248,8,o),
(271,8,cs),
(340,8,ls),
(348,8,o),
(368,1,o),
(369,2,cs),
(372,4,o),
(399,2,o),
(406,2,cs),
(692,2,l),
(714,5,o),
(712,32,o),
(693,32,cs),
(424,32,l),
(423,37,o),
(428,293,o),
(424,348,c),
(434,347,o),
(451,347,o),
(457,347,cs),
(507,345,o),
(529,346,o),
(578,349,cs),
(595,349,o),
(627,347,o),
(636,347,cs),
(658,347,o),
(681,352,o),
(703,356,cs),
(710,358,o),
(710,369,o),
(703,370,cs),
(696,371,o),
(696,376,o),
(690,377,cs),
(683,378,o),
(675,379,o),
(667,379,cs),
(652,379,o),
(632,378,o),
(617,378,cs),
(585,378,ls),
(543,378,o),
(538,377,o),
(496,378,cs),
(487,378,o),
(453,378,o),
(423,378,c),
(423,411,l),
(410,416,o),
(430,427,o),
(418,432,c),
(417,439,o),
(416,444,o),
(416,451,cs),
(416,548,ls),
(416,553,o),
(415,558,o),
(415,564,cs),
(415,570,o),
(417,578,o),
(423,584,cs),
(425,586,o),
(424,591,o),
(424,594,cs),
(424,669,l),
(466,670,o),
(566,670,o),
(601,670,cs),
(607,670,o),
(635,678,o),
(644,678,cs),
(651,678,o),
(658,676,o),
(664,673,cs),
(669,671,o),
(674,670,o),
(678,670,cs),
(691,670,o),
(701,678,o),
(714,679,cs),
(715,679,o),
(715,686,o),
(714,689,c),
(710,694,o),
(705,699,o),
(697,699,cs),
(421,699,ls),
(418,699,o),
(416,699,o),
(413,698,c),
(406,702,o),
(399,702,o),
(393,696,cs),
(386,691,o),
(380,684,o),
(375,677,cs),
(368,665,o),
(363,653,o),
(352,644,c),
(352,630,o),
(334,626,o),
(334,611,cs),
(333,601,o),
(324,592,o),
(319,581,cs),
(294,535,o),
(270,489,o),
(245,441,c),
(239,432,o),
(234,422,o),
(226,414,cs),
(218,404,o),
(217,391,o),
(208,381,cs),
(199,372,o),
(197,364,o),
(197,351,c),
(180,329,o),
(173,302,o),
(155,281,cs),
(146,271,o),
(147,256,o),
(135,246,cs),
(125,237,o),
(102,187,o),
(99,173,cs),
(96,161,o),
(87,149,o),
(81,137,cs),
(62,103,o),
(43,69,o),
(25,33,c),
(21,27,o),
(20,21,o),
(20,17,cs),
(20,1,o),
(49,1,o),
(59,1,c),
(93,9,l),
(107,8,o),
(117,1,o),
(131,1,cs),
(143,2,o),
(224,1,o),
(236,1,cs)
);
},
{
closed = 1;
nodes = (
(79,64,o),
(87,90,o),
(107,110,cs),
(111,115,o),
(115,121,o),
(116,126,c),
(116,141,o),
(150,194,o),
(156,210,cs),
(159,217,o),
(158,226,o),
(167,232,cs),
(176,237,o),
(169,249,o),
(176,255,cs),
(191,267,o),
(195,285,o),
(205,299,cs),
(212,309,o),
(217,321,o),
(221,332,cs),
(226,343,o),
(233,347,o),
(246,347,cs),
(339,347,ls),
(347,347,o),
(355,347,o),
(362,351,c),
(366,355,o),
(389,347,o),
(389,342,c),
(387,339,o),
(383,333,o),
(384,331,cs),
(390,323,o),
(392,313,o),
(392,304,cs),
(391,180,ls),
(391,172,o),
(393,163,o),
(393,156,cs),
(393,147,o),
(391,140,o),
(385,133,c),
(391,127,o),
(392,120,o),
(392,113,cs),
(392,108,o),
(391,92,o),
(394,86,cs),
(395,83,o),
(401,82,o),
(397,77,c),
(391,72,o),
(390,67,o),
(396,61,cs),
(403,53,o),
(395,45,o),
(384,39,c),
(379,38,o),
(374,39,o),
(368,39,cs),
(262,39,o),
(252,38,o),
(243,39,cs),
(233,39,o),
(225,38,o),
(217,32,c),
(208,42,o),
(179,43,o),
(169,32,c),
(161,40,o),
(121,42,o),
(112,32,c),
(110,31,o),
(104,31,o),
(100,32,cs),
(93,33,o),
(80,35,o),
(75,31,c),
(64,32,o),
(60,28,o),
(65,42,c)
);
},
{
closed = 1;
nodes = (
(264,405,o),
(261,423,o),
(276,432,cs),
(278,433,o),
(313,501,o),
(329,532,c),
(339,538,o),
(331,550,o),
(339,556,cs),
(347,563,o),
(350,572,o),
(357,580,cs),
(363,587,o),
(368,593,o),
(368,603,cs),
(368,613,o),
(384,616,o),
(384,627,cs),
(384,629,o),
(391,630,o),
(391,626,cs),
(391,617,o),
(391,536,o),
(384,527,cs),
(382,524,o),
(385,517,o),
(389,507,c),
(380,494,o),
(382,482,o),
(391,469,cs),
(393,466,o),
(393,443,o),
(390,440,cs),
(385,434,o),
(384,427,o),
(384,421,cs),
(384,417,o),
(384,390,o),
(383,382,cs),
(383,381,o),
(333,388,o),
(313,377,cs),
(308,375,o),
(298,375,o),
(294,377,c),
(283,385,o),
(271,383,o),
(260,385,cs),
(257,385,o),
(254,392,o),
(255,393,cs)
);
}
);
width = 735;
}
);
unicode = 198;
},
{
glyphname = B;
lastChange = "2023-10-12 13:19:54 +0000";
layers = (
{
anchors = (
{
name = bottom;
pos = (302,0);
},
{
name = center;
pos = (206,350);
},
{
name = top;
pos = (264,696);
}
);
layerId = m01;
shapes = (
{
closed = 1;
nodes = (
(201,406,o),
(380,627,o),
(416,662,cs),
(420,665,o),
(421,670,o),
(423,675,cs),
(425,678,o),
(429,680,o),
(424,684,cs),
(421,686,o),
(418,690,o),
(415,690,c),
(376,698,l),
(330,698,o),
(305,695,o),
(299,690,cs),
(293,684,o),
(284,698,o),
(272,698,cs),
(128,698,ls),
(115,698,o),
(105,690,o),
(91,690,cs),
(79,692,o),
(71,682,o),
(71,673,cs),
(71,658,l),
(71,478,ls),
(71,471,o),
(71,463,o),
(77,457,c),
(71,429,l),
(71,420,o),
(72,412,o),
(77,404,cs),
(80,399,o),
(79,391,o),
(77,384,cs),
(71,359,o),
(79,318,o),
(78,317,cs),
(71,310,o),
(70,302,o),
(70,294,cs),
(73,236,o),
(72,90,o),
(71,26,cs),
(71,21,o),
(69,16,o),
(70,11,cs),
(71,6,o),
(87,-3,o),
(91,1,cs),
(98,5,o),
(106,9,o),
(114,8,c),
(256,8,ls),
(262,8,o),
(267,7,o),
(271,4,cs),
(279,-1,o),
(282,8,o),
(289,8,cs),
(315,4,o),
(380,14,o),
(403,1,cs),
(404,0,o),
(425,4,o),
(436,1,cs),
(442,-2,o),
(460,5,o),
(468,12,cs),
(476,18,o),
(463,25,o),
(461,32,cs),
(460,37,o),
(428,60,o),
(424,70,cs),
(420,80,o),
(408,81,o),
(403,90,cs),
(399,98,o),
(274,223,o),
(256,226,c),
(243,251,o),
(217,264,o),
(198,284,cs),
(192,290,o),
(185,296,o),
(179,303,c),
(181,315,o),
(162,310,o),
(162,320,cs),
(162,332,o),
(146,333,o),
(138,338,cs),
(130,343,o),
(129,352,o),
(130,353,cs),
(139,364,o),
(146,376,o),
(158,384,cs)
);
},
{
closed = 1;
nodes = (
(154,285,o),
(160,279,o),
(167,275,cs),
(175,269,o),
(177,261,o),
(182,254,c),
(222,215,o),
(255,195,o),
(275,164,c),
(289,167,o),
(284,147,o),
(298,148,c),
(306,140,o),
(385,66,o),
(394,57,cs),
(397,54,o),
(400,50,o),
(403,45,c),
(403,39,o),
(401,38,o),
(384,38,cs),
(238,38,o),
(151,38,o),
(118,38,cs),
(106,38,o),
(104,40,o),
(104,50,cs),
(104,61,o),
(93,227,o),
(105,256,c),
(99,263,o),
(103,271,o),
(104,306,cs),
(104,310,o),
(105,313,o),
(106,317,cs),
(106,319,o),
(114,319,o),
(117,318,cs),
(122,315,o),
(119,304,o),
(129,304,cs),
(140,304,o),
(135,287,o),
(148,289,c)
);
},
{
closed = 1;
nodes = (
(104,393,l),
(104,409,ls),
(104,410,o),
(104,417,o),
(107,433,cs),
(112,459,o),
(114,483,o),
(108,514,cs),
(104,531,o),
(102,553,o),
(104,613,c),
(108,653,o),
(103,662,o),
(141,662,cs),
(341,662,ls),
(348,662,o),
(356,666,o),
(363,668,c),
(369,664,l),
(363,656,o),
(358,647,o),
(351,640,cs),
(340,629,o),
(289,551,o),
(271,546,c),
(265,538,o),
(263,524,o),
(250,521,cs),
(240,519,o),
(233,512,o),
(233,502,c),
(215,496,o),
(183,456,o),
(177,444,cs),
(174,438,o),
(126,403,o),
(111,390,c)
);
},
{
closed = 1;
nodes = (
(224,96,ls),
(237,96,o),
(260,116,o),
(250,126,cs),
(247,131,o),
(246,135,o),
(242,139,c),
(232,152,o),
(195,133,o),
(195,115,cs),
(195,104,o),
(207,96,o),
(218,96,cs)
);
},
{
closed = 1;
nodes = (
(232,564,o),
(237,577,o),
(244,589,cs),
(247,595,o),
(245,599,o),
(240,603,cs),
(234,606,o),
(228,608,o),
(223,612,cs),
(216,617,o),
(206,612,o),
(198,607,cs),
(185,600,o),
(185,583,o),
(187,578,cs),
(190,570,o),
(201,564,o),
(214,564,cs)
);
}
);
width = 471;
}
);
unicode = 66;
},
{
glyphname = C;
lastChange = "2023-10-14 12:31:55 +0000";
layers = (
{
anchors = (
{
name = bottom;
pos = (280,91);
},
{
name = top;
pos = (273,618);
}
);
layerId = m01;
shapes = (
{
closed = 1;
nodes = (
(478,182,c),
(478,185,o),
(474,189,o),
(471,189,cs),
(464,190,o),
(454,192,o),
(450,189,c),
(441,180,o),
(429,184,o),
(419,179,cs),
(400,169,o),
(321,128,o),
(296,128,cs),
(294,128,o),
(173,68,o),
(128,48,cs),
(120,45,o),
(107,50,o),
(105,57,c),
(102,215,o),
(105,126,o),
(105,209,cs),
(105,213,o),
(108,218,o),
(111,222,cs),
(113,227,o),
(102,229,o),
(108,235,cs),
(114,239,o),
(114,267,o),
(110,271,cs),
(100,279,o),
(114,283,o),
(113,290,cs),
(112,296,o),
(113,303,o),
(113,309,cs),
(113,328,o),
(104,329,o),
(108,333,cs),
(115,339,o),
(113,347,o),
(113,354,cs),
(113,586,ls),
(113,592,o),
(114,600,o),
(111,604,cs),
(106,611,o),
(105,617,o),
(105,624,cs),
(105,646,o),
(116,654,o),
(126,654,cs),
(146,654,o),
(178,624,o),
(198,622,cs),
(206,621,o),
(215,618,o),
(220,613,cs),
(235,599,o),
(415,526,o),
(435,513,cs),
(448,504,o),
(477,508,o),
(479,526,cs),
(479,534,o),
(477,542,o),
(477,550,cs),
(477,562,o),
(486,572,o),
(486,583,cs),
(486,588,o),
(485,593,o),
(481,597,c),
(494,606,o),
(475,612,o),
(478,621,cs),
(481,629,o),
(479,638,o),
(479,681,cs),
(479,688,o),
(474,692,o),
(468,696,cs),
(464,700,o),
(456,699,o),
(454,695,cs),
(450,684,o),
(445,675,o),
(445,663,cs),
(445,648,o),
(446,563,o),
(445,556,cs),
(445,548,o),
(438,545,o),
(431,549,c),
(400,564,o),
(270,627,o),
(251,630,cs),
(231,635,o),
(114,700,o),
(94,700,cs),
(88,700,o),
(83,698,o),
(78,695,cs),
(63,683,o),
(96,654,o),
(85,638,cs),
(75,623,o),
(74,620,o),
(85,608,cs),
(92,598,o),
(77,593,o),
(77,578,cs),
(77,488,o),
(82,482,o),
(82,474,cs),
(82,473,o),
(77,439,o),
(77,363,cs),
(77,354,o),
(78,345,o),
(85,336,cs),
(87,333,o),
(87,327,o),
(85,324,c),
(78,318,o),
(77,310,o),
(77,302,cs),
(74,204,o),
(78,192,o),
(78,145,cs),
(71,66,o),
(70,57,o),
(70,48,cs),
(70,19,ls),
(70,7,o),
(79,0,o),
(91,0,cs),
(94,0,o),
(192,40,o),
(205,50,cs),
(221,62,o),
(240,63,o),
(257,71,cs),
(403,142,o),
(294,91,o),
(445,152,c),
(445,44,o),
(444,32,o),
(444,21,cs),
(444,14,o),
(458,7,o),
(467,7,cs),
(477,7,o),
(478,13,o),
(479,20,cs),
(480,24,o),
(486,48,o),
(487,55,c),
(480,62,o),
(478,69,o),
(478,76,cs),
(478,146,o),
(479,112,o)
);
},
{
closed = 1;
nodes = (
(284,374,o),
(271,374,o),
(266,369,cs),
(254,358,ls),
(247,351,o),
(247,348,o),
(256,339,cs),
(265,331,o),
(273,327,o),
(281,327,cs),
(291,327,o),
(300,333,o),
(308,346,c),
(308,350,ls),
(308,352,o),
(308,353,o),
(307,354,cs),
(301,359,o),
(296,364,o),
(290,370,cs)
);
}
);
width = 497;
}
);
unicode = 67;
},
{
glyphname = D;
lastChange = "2023-10-12 13:06:00 +0000";
layers = (
{
anchors = (
{
name = bottom;
pos = (82,-9);
},
{
name = center;
pos = (96,352);
},
{
name = top;
pos = (54,700);
}
);
layerId = m01;
shapes = (
{
closed = 1;
nodes = (
(443,379,o),
(435,392,cs),
(429,403,o),
(417,411,o),
(406,419,cs),
(367,448,o),
(342,490,o),
(289,532,cs),
(279,540,o),
(267,544,o),
(261,553,cs),
(253,564,o),
(182,633,o),
(148,650,c),
(150,661,o),
(133,659,o),
(132,665,cs),
(131,678,o),
(99,693,o),
(93,698,c),
(87,702,o),
(82,699,o),
(78,696,c),
(70,676,o),
(65,664,o),
(77,650,c),
(81,642,o),
(81,632,o),
(75,624,cs),
(69,616,o),
(67,608,o),
(74,600,cs),
(82,592,o),
(78,583,o),
(78,574,c),
(66,563,o),
(67,526,o),
(76,510,c),
(71,506,o),
(67,423,o),
(73,416,cs),
(81,408,o),
(67,404,o),
(70,397,cs),
(72,388,o),
(81,376,o),
(74,369,cs),
(69,365,o),
(64,362,o),
(56,362,cs),
(43,362,o),
(30,362,o),
(17,361,cs),
(6,361,o),
(8,339,o),
(19,339,cs),
(62,339,ls),
(69,339,o),
(81,327,o),
(77,324,cs),
(74,320,o),
(73,318,o),
(73,314,cs),
(73,307,o),
(79,301,o),
(79,293,cs),
(79,285,o),
(70,277,o),
(73,272,cs),
(77,265,o),
(78,258,o),
(78,251,cs),
(78,182,ls),
(78,177,o),
(80,170,o),
(77,167,cs),
(71,161,o),
(70,154,o),
(70,147,c),
(70,15,l),
(70,3,o),
(73,1,o),
(88,1,cs),
(97,0,o),
(103,5,o),
(111,8,cs),
(117,10,o),
(119,12,o),
(122,18,cs),
(131,31,o),
(387,261,o),
(399,262,c),
(424,283,o),
(482,339,o),
(482,346,cs),
(482,360,o)
);
},
{
closed = 1;
nodes = (
(403,311,o),
(370,280,o),
(337,250,c),
(325,248,o),
(321,237,o),
(313,232,cs),
(302,228,o),
(295,220,o),
(287,213,cs),
(279,206,o),
(268,202,o),
(259,196,cs),
(246,187,o),
(152,102,o),
(145,89,cs),
(138,76,o),
(123,67,o),
(112,58,cs),
(100,47,o),
(98,46,o),
(97,51,cs),
(95,57,o),
(99,60,o),
(102,65,cs),
(103,67,o),
(105,71,o),
(104,72,cs),
(93,80,o),
(104,87,o),
(104,94,c),
(105,329,l),
(105,335,o),
(107,339,o),
(114,339,cs),
(157,339,ls),
(161,339,o),
(166,339,o),
(169,341,cs),
(185,350,o),
(179,357,o),
(167,361,cs),
(162,363,o),
(156,362,o),
(120,362,cs),
(115,362,o),
(105,373,o),
(107,375,cs),
(117,382,o),
(102,409,o),
(109,415,c),
(110,417,o),
(111,421,o),
(110,422,cs),
(106,426,o),
(104,430,o),
(104,436,cs),
(104,504,o),
(104,572,o),
(105,639,cs),
(105,647,o),
(108,646,o),
(112,642,c),
(140,618,o),
(213,550,o),
(227,545,c),
(232,544,o),
(234,535,o),
(238,531,cs),
(250,519,o),
(314,468,o),
(324,445,c),
(348,428,o),
(364,403,o),
(394,390,cs),
(398,389,o),
(404,383,o),
(405,380,c),
(405,369,o),
(419,372,o),
(421,366,cs),
(424,359,o),
(427,354,o),
(435,353,cs),
(438,353,o),
(441,343,o),
(437,341,c)
);
},
{
closed = 1;
nodes = (
(268,370,o),
(257,360,o),
(257,348,cs),
(257,341,o),
(263,324,o),
(281,324,cs),
(292,324,o),
(302,334,o),
(309,342,cs),
(313,347,o),
(313,354,o),
(309,359,cs),
(303,367,o),
(297,371,o),
(287,370,cs)
);
}
);
width = 482;
}
);
unicode = 68;
},
{
glyphname = Eth;
lastChange = "2023-10-14 11:57:30 +0000";
layers = (
{
layerId = m01;
shapes = (
{
closed = 1;
nodes = (
(502,360,o),
(463,379,o),
(455,392,cs),
(449,403,o),
(437,411,o),
(426,419,cs),
(387,448,o),
(362,490,o),
(309,532,cs),
(299,540,o),
(287,544,o),
(281,553,cs),
(273,564,o),
(202,633,o),
(168,650,c),
(170,661,o),
(153,659,o),
(152,665,cs),
(151,678,o),
(119,693,o),
(113,698,c),
(107,702,o),
(102,699,o),
(98,696,c),
(90,676,o),
(85,664,o),
(97,650,c),
(101,642,o),
(101,632,o),
(95,624,cs),
(89,616,o),
(87,608,o),
(94,600,cs),
(102,592,o),
(98,583,o),
(98,574,c),
(86,563,o),
(87,526,o),
(96,510,c),
(91,506,o),
(87,423,o),
(93,416,cs),
(101,408,o),
(87,404,o),
(90,397,cs),
(92,388,o),
(101,376,o),
(94,369,cs),
(89,365,o),
(84,362,o),
(76,362,cs),
(63,362,o),
(20,362,o),
(7,361,cs),
(-4,361,o),
(-2,339,o),
(9,339,cs),
(82,339,ls),
(89,339,o),
(101,327,o),
(97,324,cs),
(94,320,o),
(93,318,o),
(93,314,cs),
(93,307,o),
(99,301,o),
(99,293,cs),
(99,285,o),
(90,277,o),
(93,272,cs),
(97,265,o),
(98,258,o),
(98,251,cs),
(98,182,ls),
(98,177,o),
(100,170,o),
(97,167,cs),
(91,161,o),
(90,154,o),
(90,147,c),
(90,15,l),
(90,3,o),
(93,1,o),
(108,1,cs),
(117,0,o),
(123,5,o),
(131,8,cs),
(137,10,o),
(139,12,o),
(142,18,cs),
(151,31,o),
(407,261,o),
(419,262,c),
(444,283,o),
(502,339,o),
(502,346,cs)
);
},
{
closed = 1;
nodes = (
(423,311,o),
(390,280,o),
(357,250,c),
(345,248,o),
(341,237,o),
(333,232,cs),
(322,228,o),
(315,220,o),
(307,213,cs),
(299,206,o),
(288,202,o),
(279,196,cs),
(266,187,o),
(172,102,o),
(165,89,cs),
(158,76,o),
(143,67,o),
(132,58,cs),
(120,47,o),
(118,46,o),
(117,51,cs),
(115,57,o),
(119,60,o),
(122,65,cs),
(123,67,o),
(125,71,o),
(124,72,cs),
(113,80,o),
(124,87,o),
(124,94,c),
(125,329,l),
(125,335,o),
(127,339,o),
(134,339,cs),
(277,339,ls),
(281,339,o),
(286,339,o),
(289,341,cs),
(305,350,o),
(299,357,o),
(287,361,cs),
(282,363,o),
(276,362,o),
(140,362,cs),
(135,362,o),
(125,373,o),
(127,375,cs),
(137,382,o),
(122,409,o),
(129,415,c),
(130,417,o),
(131,421,o),
(130,422,cs),
(126,426,o),
(124,430,o),
(124,436,cs),
(124,504,o),
(124,572,o),
(125,639,cs),
(125,647,o),
(128,646,o),
(132,642,c),
(160,618,o),
(233,550,o),
(247,545,c),
(252,544,o),
(254,535,o),
(258,531,cs),
(270,519,o),
(334,468,o),
(344,445,c),
(368,428,o),
(384,403,o),
(414,390,cs),
(418,389,o),
(424,383,o),
(425,380,c),
(425,369,o),
(439,372,o),
(441,366,cs),
(444,359,o),
(447,354,o),
(455,353,cs),
(458,353,o),
(461,343,o),
(457,341,c)
);
}
);
width = 502;
}
);
unicode = 208;
},
{
glyphname = Dcroat;
lastChange = "2023-10-14 12:01:45 +0000";
layers = (
{
layerId = m01;
shapes = (
{
closed = 1;
nodes = (
(97,0,o),
(103,5,o),
(111,8,cs),
(117,10,o),
(119,12,o),
(122,18,cs),
(131,31,o),
(387,261,o),
(399,262,c),
(424,283,o),
(482,339,o),
(482,346,cs),
(482,360,o),
(443,379,o),
(435,392,cs),
(429,403,o),
(417,411,o),
(406,419,cs),
(367,448,o),
(342,490,o),
(289,532,cs),
(279,540,o),
(267,544,o),
(261,553,cs),
(253,564,o),
(182,633,o),
(148,650,c),
(150,661,o),
(133,659,o),
(132,665,cs),
(131,678,o),
(99,693,o),
(93,698,c),
(87,702,o),
(82,699,o),
(78,696,c),
(70,676,o),
(65,664,o),
(77,650,c),
(81,642,o),
(81,632,o),
(75,624,cs),
(69,616,o),
(67,608,o),
(74,600,cs),
(82,592,o),
(78,583,o),
(78,574,c),
(66,563,o),
(67,526,o),
(76,510,c),
(71,506,o),
(67,423,o),
(73,416,cs),
(81,408,o),
(67,404,o),
(70,397,cs),
(72,388,o),
(81,376,o),
(74,369,cs),
(69,365,o),
(64,362,o),
(56,362,cs),
(43,362,o),
(0,362,o),
(-13,361,cs),
(-24,361,o),
(-22,339,o),
(-11,339,cs),
(62,339,ls),
(69,339,o),
(81,327,o),
(77,324,cs),
(74,320,o),
(73,318,o),
(73,314,cs),
(73,307,o),
(79,301,o),
(79,293,cs),
(79,285,o),
(70,277,o),
(73,272,cs),
(77,265,o),
(78,258,o),
(78,251,cs),
(78,182,ls),
(78,177,o),
(80,170,o),
(77,167,cs),
(71,161,o),
(70,154,o),
(70,147,c),
(70,15,l),
(70,3,o),
(73,1,o),
(88,1,cs)
);
},
{
closed = 1;
nodes = (
(95,57,o),
(99,60,o),
(102,65,cs),
(103,67,o),
(105,71,o),
(104,72,cs),
(93,80,o),
(104,87,o),
(104,94,c),
(105,329,l),
(105,335,o),
(107,339,o),
(114,339,cs),
(257,339,ls),
(261,339,o),
(266,339,o),
(269,341,cs),
(285,350,o),
(279,357,o),
(267,361,cs),
(262,363,o),
(256,362,o),
(120,362,cs),
(115,362,o),
(105,373,o),
(107,375,cs),
(117,382,o),
(102,409,o),
(109,415,c),
(110,417,o),
(111,421,o),
(110,422,cs),
(106,426,o),
(104,430,o),
(104,436,cs),
(104,504,o),
(104,572,o),
(105,639,cs),
(105,647,o),
(108,646,o),
(112,642,c),
(140,618,o),
(213,550,o),
(227,545,c),
(232,544,o),
(234,535,o),
(238,531,cs),
(250,519,o),
(314,468,o),
(324,445,c),
(348,428,o),
(364,403,o),
(394,390,cs),
(398,389,o),
(404,383,o),
(405,380,c),
(405,369,o),
(419,372,o),
(421,366,cs),
(424,359,o),
(427,354,o),
(435,353,cs),
(438,353,o),
(441,343,o),
(437,341,c),
(403,311,o),
(370,280,o),
(337,250,c),
(325,248,o),
(321,237,o),
(313,232,cs),
(302,228,o),
(295,220,o),
(287,213,cs),
(279,206,o),
(268,202,o),
(259,196,cs),
(246,187,o),
(152,102,o),
(145,89,cs),
(138,76,o),
(123,67,o),
(112,58,cs),
(100,47,o),
(98,46,o),
(97,51,cs)
);
}
);
width = 482;
}
);
unicode = 272;
},
{
glyphname = E;
lastChange = "2023-10-13 20:04:15 +0000";
layers = (
{
anchors = (
{
name = bottom;
pos = (217,0);
},
{
name = ogonek;
pos = (390,10);
},
{
name = top;
pos = (217,700);
},
{
name = topleft;
pos = (20,700);
}
);
layerId = m01;
shapes = (
{
closed = 1;
nodes = (
(393,694,o),
(387,699,o),
(377,699,cs),
(364,699,o),
(287,699,o),
(33,699,cs),
(26,699,o),
(19,698,o),
(12,697,cs),
(5,695,o),
(-2,684,o),
(2,680,cs),
(9,672,o),
(12,659,o),
(22,652,cs),
(37,641,o),
(86,600,o),
(91,590,cs),
(97,577,o),
(109,568,o),
(351,353,cs),
(358,348,o),
(357,348,o),
(351,341,c),
(239,243,o),
(201,211,o),
(199,204,cs),
(195,191,o),
(177,192,o),
(176,179,cs),
(176,177,o),
(165,175,o),
(163,172,cs),
(161,166,o),
(158,158,o),
(152,157,c),
(137,155,o),
(134,140,o),
(122,135,cs),
(109,129,o),
(96,120,o),
(92,104,c),
(84,101,o),
(76,97,o),
(73,88,c),
(45,76,o),
(30,52,o),
(7,35,cs),
(0,29,o),
(0,23,o),
(0,14,cs),
(0,5,o),
(3,2,o),
(15,2,c),
(371,2,l),
(397,5,o),
(395,32,o),
(373,32,cs),
(63,32,l),
(53,34,o),
(49,38,o),
(58,42,cs),
(89,58,o),
(171,135,o),
(196,158,cs),
(209,170,o),
(217,185,o),
(230,196,cs),
(334,290,o),
(281,242,o),
(386,335,cs),
(394,343,o),
(394,359,o),
(386,367,cs),
(355,395,o),
(302,441,o),
(266,465,cs),
(248,479,o),
(239,497,o),
(223,512,cs),
(118,606,ls),
(113,610,o),
(107,615,o),
(104,620,cs),
(101,627,o),
(96,636,o),
(86,638,cs),
(74,641,o),
(77,656,o),
(63,655,c),
(55,666,o),
(51,669,o),
(61,669,cs),
(105,670,o),
(221,670,o),
(265,670,cs),
(272,670,o),
(305,678,o),
(315,678,cs),
(323,678,o),
(331,676,o),
(338,673,cs),
(344,671,o),
(350,670,o),
(355,670,cs),
(370,670,o),
(382,678,o),
(397,679,cs),
(398,679,o),
(399,686,o),
(397,689,cs)
);
},
{
closed = 1;
nodes = (
(137,328,o),
(146,328,cs),
(174,328,o),
(171,361,o),
(166,365,cs),
(158,369,o),
(149,373,o),
(140,375,cs),
(131,377,o),
(118,368,o),
(118,353,c),
(119,340,l),
(120,331,o)
);
}
);
width = 433;
}
);
unicode = 69;
},
{
glyphname = F;
lastChange = "2023-10-12 12:57:21 +0000";
layers = (
{
anchors = (
{
name = bottom;
pos = (153,7);
},
{
name = top;
pos = (253,700);
}
);
layerId = m01;
shapes = (
{
closed = 1;
nodes = (
(461,593,o),
(459,601,cs),
(458,605,o),
(466,608,o),
(462,615,cs),
(455,628,o),
(455,637,o),
(462,650,cs),
(469,660,o),
(467,670,o),
(462,681,cs),
(454,698,o),
(454,698,o),
(439,698,cs),
(219,702,o),
(183,698,o),
(181,696,cs),
(173,688,o),
(163,690,o),
(153,689,cs),
(144,688,o),
(135,680,o),
(135,670,c),
(136,555,o),
(134,545,o),
(128,535,c),
(139,522,o),
(135,512,o),
(135,495,cs),
(135,50,ls),
(135,41,o),
(133,38,o),
(122,38,cs),
(28,38,ls),
(23,38,o),
(17,38,o),
(12,37,cs),
(7,36,o),
(-2,25,o),
(0,22,cs),
(3,16,o),
(7,10,o),
(12,6,cs),
(15,4,o),
(20,5,o),
(25,5,cs),
(194,5,ls),
(201,5,o),
(207,8,o),
(213,10,cs),
(219,12,o),
(228,5,o),
(235,5,cs),
(245,5,o),
(330,4,o),
(331,6,c),
(336,10,o),
(342,15,o),
(344,21,cs),
(346,28,o),
(338,28,o),
(334,31,cs),
(325,36,o),
(317,39,o),
(307,39,cs),
(285,39,o),
(199,39,o),
(177,39,cs),
(174,39,o),
(169,40,o),
(169,72,cs),
(169,377,l),
(290,377,l),
(304,384,o),
(295,386,o),
(316,389,cs),
(320,389,o),
(320,394,o),
(319,396,cs),
(309,409,o),
(307,410,o),
(291,410,c),
(168,410,l),
(168,610,o),
(169,628,o),
(169,647,cs),
(169,652,o),
(171,655,o),
(175,656,c),
(189,655,o),
(199,668,o),
(221,664,c),
(224,658,o),
(228,653,o),
(235,647,cs),
(258,630,o),
(282,614,o),
(296,588,cs),
(301,578,o),
(320,575,o),
(329,569,cs),
(334,566,o),
(332,558,o),
(342,555,cs),
(358,550,o),
(371,540,o),
(379,524,cs),
(389,505,o),
(415,494,o),
(427,491,c),
(436,472,o),
(458,497,o),
(457,514,cs),
(457,521,o),
(458,562,o),
(465,574,cs),
(470,581,o)
);
},
{
closed = 1;
nodes = (
(429,604,o),
(425,545,c),
(399,553,o),
(297,640,o),
(267,664,c),
(419,664,l),
(424,655,o)
);
},
{
closed = 1;
nodes = (
(54,375,o),
(65,367,o),
(75,377,cs),
(78,380,o),
(85,380,o),
(86,382,cs),
(88,392,o),
(79,402,o),
(76,412,cs),
(75,415,o),
(74,413,o),
(70,415,cs),
(34,430,o),
(19,380,o),
(44,376,cs)
);
}
);
width = 477;
}
);
unicode = 70;
},
{
glyphname = G;
lastChange = "2023-10-12 13:05:22 +0000";
layers = (
{
anchors = (
{
name = bottom;
pos = (304,0);
},
{
name = top;
pos = (304,700);
}
);
layerId = m01;
shapes = (
{
closed = 1;
nodes = (
(479,318,cs),
(479,324,o),
(476,328,o),
(469,328,c),
(386,333,o),
(417,327,o),
(334,336,c),
(327,330,o),
(319,328,o),
(311,328,cs),
(289,328,o),
(284,331,o),
(262,328,c),
(259,327,o),
(255,323,o),
(254,320,c),
(254,304,o),
(255,296,o),
(263,290,cs),
(297,260,o),
(324,222,o),
(363,197,cs),
(378,188,o),
(424,139,o),
(437,126,c),
(441,40,l),
(432,39,o),
(211,34,o),
(203,38,cs),
(193,43,o),
(186,40,o),
(178,38,cs),
(174,37,o),
(169,37,o),
(166,39,cs),
(149,49,o),
(132,50,o),
(116,38,cs),
(111,35,o),
(104,39,o),
(104,45,cs),
(104,302,ls),
(104,307,o),
(102,314,o),
(105,318,cs),
(111,326,o),
(113,334,o),
(113,343,cs),
(113,349,o),
(113,521,o),
(113,527,cs),
(113,537,o),
(111,547,o),
(104,555,c),
(104,573,o),
(111,576,o),
(111,586,c),
(105,594,o),
(103,602,o),
(104,644,c),
(104,658,o),
(113,665,o),
(127,665,cs),
(427,665,ls),
(433,665,o),
(437,662,o),
(437,655,c),
(437,526,o),
(437,520,o),
(438,514,cs),
(439,506,o),
(446,500,o),
(446,491,cs),
(446,483,o),
(451,481,o),
(461,482,cs),
(468,482,o),
(471,486,o),
(471,492,cs),
(471,680,ls),
(471,686,o),
(468,690,o),
(461,690,cs),
(424,691,o),
(413,689,o),
(408,693,cs),
(401,697,o),
(282,697,o),
(131,696,c),
(126,692,o),
(123,692,o),
(117,696,cs),
(115,698,o),
(109,699,o),
(106,698,cs),
(88,691,o),
(62,682,o),
(73,666,c),
(75,665,o),
(77,661,o),
(77,660,c),
(70,572,o),
(71,560,o),
(78,548,c),
(78,525,o),
(79,479,o),
(78,456,cs),
(78,451,o),
(72,445,o),
(73,442,c),
(77,437,o),
(76,434,o),
(73,428,cs),
(69,422,o),
(69,416,o),
(73,409,cs),
(75,404,o),
(78,399,o),
(78,394,cs),
(79,379,o),
(77,272,o),
(75,268,cs),
(72,261,o),
(70,255,o),
(70,248,cs),
(70,198,o),
(71,99,o),
(70,49,cs),
(69,39,o),
(77,13,o),
(89,13,cs),
(102,12,o),
(145,13,o),
(150,10,cs),
(157,5,o),
(164,4,o),
(171,4,cs),
(175,4,o),
(178,4,o),
(182,4,cs),
(428,7,ls),
(437,7,o),
(459,14,o),
(467,6,cs),
(470,3,o),
(471,4,o),
(474,6,c),
(484,16,o),
(473,115,o)
);
},
{
closed = 1;
nodes = (
(445,259,o),
(446,226,o),
(446,192,cs),
(446,173,o),
(432,180,o),
(429,183,cs),
(415,195,o),
(321,277,o),
(313,294,c),
(316,301,l),
(327,304,o),
(342,306,o),
(352,300,c),
(426,295,o),
(435,294,o),
(444,291,c)
);
},
{
closed = 1;
nodes = (
(304,505,o),
(286,503,o),
(277,503,cs),
(261,502,o),
(254,494,o),
(254,477,cs),
(254,467,o),
(259,455,o),
(267,454,cs),
(287,451,o),
(293,451,o),
(303,468,cs),
(306,473,o),
(304,486,o),
(304,493,cs)
);
}
);
width = 549;
}
);
unicode = 71;
},
{
glyphname = H;
lastChange = "2023-10-02 05:35:04 +0000";
layers = (
{
anchors = (
{
name = bottom;
pos = (268,0);
},
{
name = center;
pos = (268,350);
},
{
name = top;
pos = (268,700);
},
{
name = topleft;
pos = (8,700);
}
);
layerId = m01;
shapes = (
{
closed = 1;
nodes = (
(494,417,o),
(494,478,cs),
(494,488,o),
(495,564,o),
(501,571,c),
(495,579,o),
(494,665,o),
(494,677,cs),
(494,681,ls),
(494,691,o),
(482,698,o),
(470,697,cs),
(466,697,o),
(460,695,o),
(460,692,c),
(458,684,o),
(459,674,o),
(459,665,cs),
(459,393,ls),
(459,379,o),
(454,373,o),
(438,370,cs),
(433,368,o),
(427,368,o),
(421,368,cs),
(119,368,ls),
(115,368,o),
(110,369,o),
(107,370,cs),
(102,375,o),
(107,379,o),
(109,384,cs),
(112,390,o),
(113,396,o),
(113,402,cs),
(113,496,o),
(113,578,o),
(114,671,cs),
(114,684,o),
(95,705,o),
(87,698,c),
(71,682,o),
(70,677,o),
(72,675,cs),
(80,667,o),
(78,658,o),
(78,649,c),
(78,511,o),
(77,499,o),
(71,493,c),
(70,469,o),
(70,460,o),
(70,433,cs),
(70,388,o),
(70,122,o),
(70,11,cs),
(70,6,o),
(75,3,o),
(82,3,cs),
(92,4,o),
(103,11,o),
(104,18,c),
(101,55,o),
(104,250,o),
(104,323,cs),
(104,337,o),
(106,337,o),
(129,337,cs),
(419,337,ls),
(456,337,o),
(458,335,o),
(458,303,c),
(458,137,o),
(458,128,o),
(459,119,cs),
(460,110,o),
(446,101,o),
(458,92,cs),
(459,91,o),
(457,87,o),
(456,85,cs),
(444,63,o),
(451,43,o),
(452,18,cs),
(452,-1,o),
(485,-7,o),
(485,19,cs),
(485,29,o),
(485,38,o),
(484,139,c),
(492,162,l),
(492,224,o)
);
},
{
closed = 1;
nodes = (
(261,567,o),
(276,569,o),
(289,569,cs),
(301,569,o),
(308,586,o),
(308,591,cs),
(308,600,o),
(300,608,o),
(300,617,c),
(267,621,o),
(260,613,o),
(260,595,cs),
(260,590,o),
(259,584,o),
(261,578,c)
);
},
{
closed = 1;
nodes = (
(294,226,o),
(278,226,o),
(268,219,cs),
(262,214,o),
(258,204,o),
(260,197,cs),
(263,188,o),
(269,182,o),
(278,180,c),
(294,180,l),
(303,182,o),
(309,188,o),
(312,197,cs),
(314,203,o),
(310,214,o),
(304,219,cs)
);
}
);
width = 571;
}
);
unicode = 72;
},
{
glyphname = I;
lastChange = "2023-10-02 05:35:04 +0000";
layers = (
{
anchors = (
{
name = bottom;
pos = (272,0);
},
{
name = ogonek;
pos = (455,36);
},
{
name = top;
pos = (272,700);
},
{
name = topleft;
pos = (2,700);
}
);
layerId = m01;
shapes = (
{
closed = 1;
nodes = (
(451,215,o),
(441,213,o),
(440,206,cs),
(439,201,o),
(439,89,o),
(439,60,cs),
(439,41,o),
(436,42,o),
(421,42,cs),
(406,42,o),
(394,44,o),
(380,34,c),
(352,34,o),
(324,34,o),
(296,35,cs),
(293,35,o),
(289,40,o),
(289,43,cs),
(288,52,o),
(289,534,o),
(289,649,c),
(297,653,o),
(320,653,o),
(394,663,c),
(402,663,o),
(410,660,o),
(417,655,c),
(423,652,o),
(428,655,o),
(432,659,cs),
(435,661,o),
(437,661,o),
(438,657,cs),
(439,650,o),
(439,643,o),
(439,498,cs),
(439,474,o),
(472,487,o),
(472,507,cs),
(472,674,ls),
(472,676,o),
(473,677,o),
(472,678,cs),
(464,690,o),
(452,696,o),
(437,696,c),
(378,695,o),
(371,697,o),
(368,694,cs),
(358,686,o),
(293,681,o),
(272,695,c),
(249,692,o),
(209,703,o),
(182,688,cs),
(160,677,o),
(151,696,o),
(126,696,cs),
(106,696,o),
(71,694,o),
(71,666,cs),
(70,623,o),
(71,538,o),
(71,495,cs),
(71,481,o),
(104,479,o),
(104,501,cs),
(104,645,o),
(104,651,o),
(105,656,cs),
(105,658,o),
(108,661,o),
(110,661,cs),
(117,662,o),
(127,664,o),
(131,661,cs),
(139,655,o),
(147,654,o),
(156,654,cs),
(170,654,o),
(245,653,o),
(254,656,c),
(256,641,o),
(252,626,o),
(262,612,c),
(253,577,l),
(253,488,o),
(254,131,o),
(254,42,cs),
(254,36,o),
(249,33,o),
(242,34,cs),
(239,34,o),
(237,34,o),
(234,35,cs),
(193,48,o),
(165,28,o),
(105,47,c),
(105,61,o),
(101,72,o),
(108,84,cs),
(113,90,o),
(112,95,o),
(108,102,cs),
(105,108,o),
(104,115,o),
(104,122,cs),
(104,184,ls),
(104,189,o),
(105,194,o),
(103,196,cs),
(99,202,o),
(93,206,o),
(87,209,cs),
(84,211,o),
(73,201,o),
(72,197,cs),
(71,194,o),
(70,192,o),
(70,189,cs),
(70,30,ls),
(70,18,o),
(79,9,o),
(91,9,cs),
(102,8,o),
(122,10,o),
(132,7,cs),
(148,2,o),
(179,6,o),
(183,6,cs),
(186,6,o),
(190,4,o),
(193,1,c),
(237,1,o),
(333,1,o),
(374,1,cs),
(380,1,o),
(387,0,o),
(401,-1,c),
(418,-1,o),
(433,7,o),
(450,9,cs),
(465,10,o),
(472,17,o),
(472,32,cs),
(472,86,o),
(472,141,o),
(473,195,c),
(459,212,l)
);
},
{
closed = 1;
nodes = (
(93,396,o),
(93,394,o),
(82,383,cs),
(75,376,o),
(64,370,o),
(77,356,cs),
(81,352,o),
(85,348,o),
(89,345,cs),
(94,340,o),
(105,341,o),
(112,346,cs),
(122,354,o),
(130,370,o),
(109,385,cs)
);
},
{
closed = 1;
nodes = (
(452,338,o),
(464,354,o),
(469,359,cs),
(474,365,o),
(474,373,o),
(471,379,cs),
(468,386,o),
(462,393,o),
(452,392,cs),
(445,392,o),
(434,386,o),
(432,380,c),
(430,364,l),
(429,354,o),
(436,348,o),
(443,344,cs)
);
}
);
width = 543;
}
);
unicode = 73;
},
{
glyphname = J;
lastChange = "2023-10-02 05:35:04 +0000";
layers = (
{
anchors = (
{
name = bottom;
pos = (260,0);
},
{
name = top;
pos = (260,700);
}
);
layerId = m01;
shapes = (
{
closed = 1;
nodes = (
(476,110,c),
(468,152,o),
(478,270,o),
(484,315,c),
(477,324,o),
(475,334,o),
(475,344,cs),
(475,397,o),
(475,424,o),
(475,462,cs),
(475,473,o),
(477,483,o),
(484,493,cs),
(485,495,o),
(484,500,o),
(483,501,cs),
(460,524,o),
(476,635,o),
(476,666,c),
(477,699,o),
(457,690,o),
(430,689,cs),
(419,689,o),
(409,690,o),
(403,694,cs),
(395,699,o),
(388,702,o),
(381,694,c),
(337,691,o),
(326,692,o),
(315,696,cs),
(311,697,o),
(306,700,o),
(304,699,cs),
(286,685,o),
(200,692,o),
(184,693,c),
(176,704,o),
(114,700,o),
(104,700,cs),
(86,700,o),
(78,688,o),
(71,676,cs),
(70,674,o),
(74,667,o),
(76,666,c),
(84,665,o),
(420,666,o),
(432,665,cs),
(438,665,o),
(442,663,o),
(443,656,cs),
(443,648,o),
(440,639,o),
(447,632,c),
(448,630,o),
(443,558,o),
(443,555,c),
(455,539,o),
(453,521,o),
(443,504,cs),
(439,498,o),
(451,484,o),
(450,478,c),
(448,426,l),
(453,421,o),
(453,412,o),
(449,407,cs),
(443,399,o),
(443,392,o),
(443,383,cs),
(443,348,ls),
(443,344,o),
(441,339,o),
(443,336,cs),
(450,328,o),
(452,319,o),
(452,310,c),
(447,187,l),
(447,180,o),
(451,165,o),
(448,160,cs),
(443,154,o),
(442,146,o),
(442,139,cs),
(442,123,o),
(442,83,o),
(442,66,c),
(437,57,o),
(432,56,o),
(419,72,cs),
(404,88,o),
(384,100,o),
(374,121,cs),
(370,129,o),
(362,139,o),
(354,142,cs),
(340,147,o),
(331,158,o),
(322,168,cs),
(254,235,o),
(186,303,o),
(94,395,c),
(90,398,o),
(77,400,o),
(75,397,cs),
(72,394,o),
(70,390,o),
(70,386,c),
(70,30,o),
(77,21,o),
(80,12,cs),
(83,5,o),
(475,-7,o),
(476,18,cs),
(476,90,o),
(476,38,o)
);
},
{
closed = 1;
nodes = (
(413,35,o),
(401,34,c),
(374,34,o),
(367,33,o),
(361,27,c),
(310,27,o),
(187,34,o),
(115,34,cs),
(105,34,o),
(103,37,o),
(103,47,cs),
(103,142,o),
(103,236,o),
(104,330,cs),
(104,337,o),
(106,340,o),
(113,333,cs),
(144,302,o),
(144,290,o),
(169,265,cs),
(278,160,ls),
(296,142,o),
(319,131,o),
(335,112,cs),
(352,93,o)
);
},
{
closed = 1;
nodes = (
(268,355,o),
(275,357,cs),
(284,360,o),
(292,365,o),
(300,370,c),
(309,379,o),
(309,394,o),
(295,405,cs),
(284,416,o),
(284,418,o),
(267,408,cs),
(253,397,o),
(247,385,o),
(256,370,cs),
(259,363,o)
);
}
);
width = 554;
}
);
unicode = 74;
},
{
glyphname = K;
lastChange = "2023-10-02 05:35:04 +0000";
layers = (
{
anchors = (
{
name = bottom;
pos = (271,0);
},
{
name = top;
pos = (271,700);
}
);
layerId = m01;
shapes = (
{
closed = 1;
nodes = (
(488,316,o),
(485,352,o),
(485,362,cs),
(485,380,o),
(486,463,o),
(486,469,cs),
(486,478,o),
(484,487,o),
(478,495,c),
(474,499,o),
(487,507,o),
(484,512,c),
(483,518,o),
(478,523,o),
(478,528,cs),
(478,543,o),
(493,549,o),
(484,560,cs),
(475,571,o),
(474,581,o),
(483,591,cs),
(484,592,o),
(481,594,o),
(480,596,cs),
(475,602,o),
(475,608,o),
(478,614,cs),
(489,629,o),
(489,644,o),
(478,659,c),
(476,665,o),
(490,678,o),
(480,686,cs),
(476,689,o),
(472,693,o),
(469,696,cs),
(465,700,o),
(441,688,o),
(434,682,cs),
(411,659,o),
(384,640,o),
(364,613,cs),
(358,603,o),
(262,518,o),
(250,513,cs),
(235,509,o),
(239,493,o),
(226,489,cs),
(220,487,o),
(213,484,o),
(209,479,c),
(203,475,o),
(201,467,o),
(195,462,cs),
(120,395,ls),
(116,391,o),
(114,395,o),
(112,399,c),
(112,516,o),
(113,527,o),
(109,533,cs),
(101,543,o),
(116,547,o),
(113,557,cs),
(106,575,o),
(118,586,o),
(105,600,c),
(104,611,o),
(101,619,o),
(110,628,cs),
(112,630,o),
(112,636,o),
(110,638,cs),
(104,645,o),
(113,656,o),
(113,662,cs),
(113,672,o),
(106,682,o),
(100,691,cs),
(96,698,o),
(81,685,o),
(79,679,cs),
(77,671,o),
(78,662,o),
(78,344,cs),
(78,339,o),
(77,317,o),
(71,311,cs),
(70,311,o),
(72,304,o),
(74,303,cs),
(79,296,o),
(79,291,o),
(74,286,cs),
(70,281,o),
(68,277,o),
(73,272,cs),
(77,269,o),
(78,264,o),
(78,259,cs),
(78,156,o),
(77,147,o),
(77,139,c),
(66,134,o),
(80,126,o),
(74,120,cs),
(67,113,o),
(82,110,o),
(78,104,cs),
(71,97,o),
(70,88,o),
(70,79,cs),
(70,65,o),
(79,30,o),
(82,16,cs),
(84,9,o),
(94,7,o),
(98,14,cs),
(103,23,o),
(113,31,o),
(113,41,cs),
(113,46,o),
(110,51,o),
(105,56,c),
(95,96,o),
(112,138,o),
(112,146,cs),
(111,162,o),
(111,151,o),
(109,167,c),
(113,189,o),
(117,209,o),
(106,229,cs),
(102,236,o),
(103,244,o),
(109,250,cs),
(114,255,o),
(113,259,o),
(109,263,cs),
(105,267,o),
(102,271,o),
(106,276,cs),
(110,280,o),
(111,284,o),
(107,288,cs),
(104,293,o),
(115,298,o),
(107,304,cs),
(104,306,o),
(104,311,o),
(104,314,cs),
(104,324,o),
(108,323,o),
(113,319,c),
(170,269,o),
(188,257,o),
(199,242,cs),
(210,227,o),
(258,186,o),
(268,175,c),
(285,171,o),
(320,137,o),
(323,131,cs),
(332,111,o),
(353,102,o),
(367,86,c),
(389,79,o),
(402,62,o),
(454,16,cs),
(466,6,o),
(485,2,o),
(485,17,cs),
(485,43,o),
(477,58,o),
(477,84,cs),
(477,90,o),
(479,96,o),
(483,108,cs),
(484,110,o),
(485,116,o),
(483,118,cs),
(476,124,o),
(477,131,o),
(477,139,cs),
(477,225,ls),
(477,229,o),
(476,234,o),
(478,237,cs),
(484,243,o),
(486,250,o),
(486,257,c)
);
},
{
closed = 1;
nodes = (
(451,76,o),
(449,62,c),
(439,62,o),
(395,104,o),
(368,127,cs),
(337,155,o),
(337,134,o),
(320,172,cs),
(317,182,o),
(300,178,o),
(297,191,cs),
(296,199,o),
(285,204,o),
(140,333,cs),
(134,338,o),
(128,343,o),
(123,349,cs),
(121,351,o),
(121,357,o),
(123,359,cs),
(134,367,o),
(142,380,o),
(158,385,cs),
(167,388,o),
(176,396,o),
(180,407,cs),
(182,411,o),
(359,569,o),
(444,644,c),
(448,647,o),
(451,647,o),
(451,640,c),
(451,157,o),
(452,151,o),
(452,145,cs),
(452,137,o),
(451,130,o),
(444,124,c),
(453,115,o)
);
},
{
closed = 1;
nodes = (
(327,392,o),
(302,369,o),
(307,359,cs),
(313,344,o),
(318,335,o),
(332,335,cs),
(345,335,o),
(357,347,o),
(357,362,cs),
(357,380,o),
(349,385,o),
(341,388,cs)
);
}
);
width = 557;
}
);
unicode = 75;
},
{
glyphname = L;
lastChange = "2023-10-25 14:22:59 +0000";
layers = (
{
anchors = (
{
name = bottom;
pos = (251,0);
},
{
name = center;
pos = (251,350);
},
{
name = top;
pos = (274,641);
},
{
name = topright;
pos = (222,800);
}
);
layerId = m01;
shapes = (
{
closed = 1;
nodes = (
(507,95,o),
(505,112,o),
(506,118,c),
(508,122,o),
(508,127,o),
(506,131,cs),
(495,151,o),
(498,175,o),
(498,190,cs),
(499,201,o),
(488,227,o),
(481,220,cs),
(469,208,o),
(474,212,o),
(461,208,cs),
(446,202,o),
(432,197,o),
(425,183,cs),
(417,167,o),
(403,155,o),
(386,151,cs),
(376,148,o),
(378,139,o),
(373,136,cs),
(359,128,o),
(346,130,o),
(338,116,cs),
(324,89,o),
(299,73,o),
(275,54,cs),
(268,49,o),
(263,43,o),
(261,36,c),
(200,36,ls),
(188,36,o),
(169,33,o),
(157,37,cs),
(145,41,o),
(133,45,o),
(120,45,c),
(116,46,o),
(113,49,o),
(113,55,cs),
(113,676,l),
(95,704,o),
(78,699,o),
(78,678,c),
(78,213,l),
(78,207,o),
(79,202,o),
(79,196,cs),
(79,187,o),
(77,179,o),
(70,172,c),
(77,161,o),
(79,150,o),
(79,139,cs),
(79,127,o),
(78,42,o),
(78,30,cs),
(78,20,o),
(87,11,o),
(97,10,cs),
(107,9,o),
(117,11,o),
(126,3,cs),
(128,1,o),
(134,3,o),
(137,5,cs),
(160,21,o),
(181,1,o),
(207,1,cs),
(478,1,ls),
(495,1,o),
(494,1,o),
(502,19,cs),
(507,30,o),
(510,42,o),
(503,52,cs),
(496,63,o),
(496,76,o),
(502,88,cs)
);
},
{
closed = 1;
nodes = (
(443,37,o),
(424,36,o),
(304,36,c),
(335,62,o),
(438,152,o),
(464,161,c),
(467,158,o),
(472,57,o),
(462,37,c)
);
}
);
width = 542;
}
);
unicode = 76;
},
{
glyphname = M;
lastChange = "2023-10-02 05:35:04 +0000";
layers = (
{
anchors = (
{
name = bottom;
pos = (355,0);
},
{
name = top;
pos = (355,700);
}
);
layerId = m01;
shapes = (
{
closed = 1;
nodes = (
(669,693,o),
(657,690,o),
(652,695,cs),
(646,701,o),
(642,696,o),
(639,692,cs),
(621,667,o),
(558,564,o),
(535,545,c),
(532,528,o),
(515,522,o),
(509,509,cs),
(488,468,o),
(454,437,o),
(435,398,c),
(419,382,o),
(417,357,o),
(399,343,c),
(397,325,o),
(374,321,o),
(372,302,cs),
(372,296,o),
(358,304,o),
(358,310,cs),
(357,325,o),
(343,329,o),
(339,342,cs),
(335,353,o),
(327,363,o),
(320,373,cs),
(293,411,o),
(272,451,o),
(240,485,c),
(239,500,o),
(221,505,o),
(220,520,c),
(209,529,o),
(202,542,o),
(198,555,cs),
(192,569,o),
(179,575,o),
(172,587,c),
(155,630,o),
(123,657,o),
(100,691,cs),
(98,695,o),
(94,697,o),
(91,699,cs),
(89,701,o),
(85,700,o),
(83,699,cs),
(79,696,o),
(72,691,o),
(72,687,cs),
(70,670,o),
(68,650,o),
(74,634,cs),
(76,629,o),
(79,624,o),
(79,618,cs),
(78,610,o),
(80,599,o),
(76,594,cs),
(67,584,o),
(82,579,o),
(78,572,cs),
(74,565,o),
(71,559,o),
(78,551,cs),
(81,548,o),
(79,540,o),
(79,535,cs),
(79,476,o),
(79,301,o),
(79,271,cs),
(79,261,o),
(70,244,o),
(70,234,cs),
(70,225,o),
(79,217,o),
(79,207,cs),
(79,207,o),
(79,206,o),
(79,205,cs),
(78,198,o),
(77,192,o),
(73,185,cs),
(68,178,o),
(69,169,o),
(75,162,cs),
(78,159,o),
(78,158,o),
(75,155,cs),
(72,152,o),
(72,149,o),
(75,145,cs),
(81,139,o),
(70,137,o),
(70,132,cs),
(70,101,ls),
(70,96,o),
(80,94,o),
(75,87,cs),
(71,82,o),
(70,24,o),
(71,17,cs),
(71,12,o),
(77,8,o),
(81,4,cs),
(89,-3,o),
(94,7,o),
(104,7,c),
(122,-4,o),
(142,2,o),
(160,2,cs),
(163,2,o),
(166,2,o),
(168,2,cs),
(174,2,o),
(181,9,o),
(186,7,cs),
(194,4,o),
(247,2,o),
(256,2,cs),
(260,2,o),
(265,8,o),
(269,12,cs),
(278,21,o),
(264,33,o),
(255,35,cs),
(247,36,o),
(210,36,o),
(201,37,c),
(195,50,o),
(183,30,o),
(177,42,c),
(160,44,o),
(134,48,o),
(116,37,cs),
(111,33,o),
(104,38,o),
(104,43,cs),
(104,234,ls),
(104,242,o),
(103,250,o),
(109,258,cs),
(115,266,o),
(106,294,o),
(107,296,c),
(115,304,o),
(112,314,o),
(112,324,cs),
(112,507,ls),
(112,517,o),
(112,525,o),
(107,535,cs),
(100,547,o),
(104,576,o),
(109,591,cs),
(110,594,o),
(112,596,o),
(109,598,c),
(103,604,o),
(104,611,o),
(104,626,cs),
(104,633,o),
(111,630,o),
(112,628,cs),
(143,588,o),
(119,610,o),
(148,569,cs),
(154,560,o),
(166,553,o),
(170,544,cs),
(176,529,o),
(187,519,o),
(194,506,cs),
(200,493,o),
(213,482,o),
(220,469,cs),
(227,454,o),
(298,358,o),
(309,339,cs),
(321,321,o),
(333,303,o),
(343,283,cs),
(346,277,o),
(350,271,o),
(347,268,cs),
(330,255,o),
(325,234,o),
(314,216,cs),
(301,194,o),
(277,179,o),
(271,152,c),
(271,149,o),
(249,137,o),
(248,131,cs),
(245,119,o),
(259,121,o),
(265,117,cs),
(274,110,o),
(286,110,o),
(296,116,cs),
(307,123,o),
(321,122,o),
(331,117,cs),
(335,115,o),
(339,113,o),
(343,113,cs),
(456,113,ls),
(467,113,o),
(478,126,o),
(472,136,cs),
(457,162,o),
(441,188,o),
(422,210,cs),
(409,225,o),
(403,243,o),
(392,259,c),
(388,267,o),
(389,275,o),
(396,282,cs),
(409,294,o),
(601,582,o),
(608,595,cs),
(612,604,o),
(618,611,o),
(625,619,c),
(630,626,o),
(634,628,o),
(634,616,cs),
(634,315,l),
(633,303,l),
(626,294,o),
(626,285,o),
(626,275,cs),
(626,160,ls),
(626,150,o),
(625,141,o),
(633,132,cs),
(635,130,o),
(634,52,o),
(634,44,cs),
(634,41,o),
(630,36,o),
(627,36,cs),
(620,35,o),
(613,35,o),
(606,35,cs),
(501,35,ls),
(485,35,o),
(473,26,o),
(458,23,cs),
(455,22,o),
(451,16,o),
(451,14,cs),
(451,7,o),
(464,2,o),
(471,2,cs),
(519,1,o),
(566,1,o),
(614,1,cs),
(628,2,o),
(642,3,o),
(656,3,c),
(660,10,o),
(661,17,o),
(661,24,cs),
(661,30,o),
(660,37,o),
(659,300,c),
(659,313,o),
(671,324,o),
(666,329,cs),
(656,339,o),
(656,489,o),
(665,500,cs),
(667,503,o),
(668,508,o),
(668,512,cs),
(668,568,o),
(668,624,o),
(669,680,cs)
);
},
{
closed = 1;
nodes = (
(422,159,c),
(430,151,o),
(417,146,o),
(404,146,cs),
(373,146,o),
(343,146,o),
(312,147,cs),
(311,147,o),
(309,151,o),
(309,152,c),
(324,182,o),
(339,211,o),
(364,233,cs),
(370,239,o),
(372,236,o),
(374,229,cs),
(377,216,o),
(399,205,o)
);
},
{
closed = 1;
nodes = (
(340,473,o),
(389,476,o),
(398,504,c),
(398,522,o),
(379,530,o),
(360,536,c),
(340,536,o),
(338,514,o),
(340,501,c)
);
}
);
width = 739;
}
);
unicode = 77;
},
{
glyphname = N;
lastChange = "2023-10-02 05:35:04 +0000";
layers = (
{
anchors = (
{
name = bottom;
pos = (262,0);
},
{
name = top;
pos = (262,700);
}
);
layerId = m01;
shapes = (
{
closed = 1;
nodes = (
(69,667,o),
(70,153,o),
(71,53,cs),
(71,45,o),
(71,30,o),
(72,22,cs),
(72,20,o),
(77,18,o),
(80,16,c),
(103,16,o),
(104,18,o),
(105,30,cs),
(105,38,o),
(96,46,o),
(99,51,cs),
(103,59,o),
(105,68,o),
(105,76,cs),
(103,116,o),
(103,69,o),
(104,113,c),
(106,121,o),
(99,127,o),
(97,133,cs),
(96,140,o),
(102,147,o),
(104,154,c),
(107,157,o),
(98,165,o),
(98,170,cs),
(98,175,o),
(103,179,o),
(104,184,c),
(104,191,o),
(106,198,o),
(99,205,cs),
(94,211,o),
(95,219,o),
(100,226,cs),
(107,235,o),
(107,247,o),
(100,256,cs),
(95,263,o),
(94,271,o),
(99,278,cs),
(104,283,o),
(106,289,o),
(100,294,cs),
(93,299,o),
(95,317,o),
(97,319,cs),
(106,328,o),
(104,343,o),
(104,350,cs),
(104,663,l),
(105,666,o),
(106,670,o),
(112,666,c),
(117,664,o),
(186,663,o),
(196,670,c),
(251,670,ls),
(261,670,o),
(263,668,o),
(263,659,c),
(263,534,o),
(264,506,o),
(261,501,cs),
(260,499,o),
(260,496,o),
(260,494,cs),
(260,492,o),
(266,459,o),
(258,450,cs),
(257,448,o),
(258,445,o),
(259,444,cs),
(265,433,o),
(266,424,o),
(258,412,cs),
(254,407,o),
(262,405,o),
(263,400,cs),
(264,393,o),
(252,390,o),
(260,381,cs),
(265,376,o),
(262,367,o),
(263,359,cs),
(263,357,o),
(264,353,o),
(263,351,c),
(256,344,o),
(254,335,o),
(254,326,cs),
(254,319,o),
(255,312,o),
(255,305,cs),
(255,47,o),
(254,40,o),
(255,35,cs),
(258,27,o),
(261,19,o),
(266,11,cs),
(270,5,o),
(279,9,o),
(336,8,cs),
(344,8,o),
(355,10,o),
(360,6,cs),
(369,-2,o),
(374,9,o),
(381,8,cs),
(385,8,o),
(390,9,o),
(393,7,cs),
(401,1,o),
(409,0,o),
(446,1,c),
(454,1,o),
(470,14,o),
(472,22,c),
(472,24,o),
(471,28,o),
(470,29,cs),
(465,34,o),
(464,40,o),
(464,46,cs),
(464,90,o),
(463,189,o),
(466,192,cs),
(472,198,o),
(473,205,o),
(473,211,c),
(473,375,ls),
(473,385,o),
(473,393,o),
(479,403,cs),
(484,411,o),
(484,422,o),
(476,431,cs),
(474,433,o),
(475,437,o),
(475,441,cs),
(475,442,o),
(476,468,o),
(475,468,c),
(471,474,o),
(471,480,o),
(475,486,cs),
(478,490,o),
(479,493,o),
(476,498,cs),
(473,505,o),
(473,513,o),
(473,520,cs),
(473,659,ls),
(473,668,o),
(473,677,o),
(472,685,cs),
(471,691,o),
(465,692,o),
(459,692,cs),
(454,692,o),
(448,690,o),
(448,684,cs),
(447,676,o),
(447,667,o),
(447,658,cs),
(447,652,o),
(447,646,o),
(448,639,c),
(448,628,o),
(440,621,o),
(438,610,c),
(438,601,o),
(449,589,o),
(447,580,cs),
(445,564,o),
(448,562,o),
(448,546,cs),
(448,538,o),
(446,529,o),
(440,522,cs),
(438,520,o),
(439,516,o),
(441,515,cs),
(445,510,o),
(448,505,o),
(447,498,c),
(447,411,l),
(437,404,o),
(450,388,o),
(445,378,c),
(435,373,o),
(450,367,o),
(443,360,cs),
(436,354,o),
(439,346,o),
(439,339,c),
(439,197,o),
(438,171,o),
(433,164,cs),
(432,163,o),
(442,139,o),
(436,130,cs),
(430,121,o),
(438,88,o),
(438,66,cs),
(438,52,o),
(444,46,o),
(430,34,cs),
(426,29,o),
(423,34,o),
(420,36,cs),
(414,39,o),
(410,37,o),
(405,34,cs),
(398,29,o),
(389,29,o),
(382,34,cs),
(376,37,o),
(370,38,o),
(362,38,cs),
(300,38,ls),
(290,38,o),
(288,41,o),
(288,50,cs),
(288,347,ls),
(288,353,o),
(291,359,o),
(294,364,cs),
(296,367,o),
(287,373,o),
(294,379,cs),
(297,382,o),
(298,390,o),
(296,393,cs),
(289,404,o),
(288,415,o),
(289,463,c),
(295,468,o),
(296,475,o),
(296,483,cs),
(296,544,o),
(296,599,o),
(297,660,cs),
(297,669,o),
(292,676,o),
(288,684,cs),
(286,690,o),
(283,692,o),
(277,692,cs),
(265,694,o),
(245,692,o),
(237,692,cs),
(226,692,o),
(215,693,o),
(204,699,cs),
(200,701,o),
(193,699,o),
(188,697,cs),
(171,691,o),
(153,690,o),
(136,697,cs),
(129,699,o),
(123,699,o),
(116,699,cs),
(103,699,o),
(91,695,o),
(79,689,cs),
(75,686,o),
(71,681,o),
(71,676,c)
);
}
);
width = 552;
}
);
unicode = 78;
},
{
glyphname = O;
lastChange = "2023-10-24 16:36:48 +0000";
layers = (
{
anchors = (
{
name = bottom;
pos = (315,9);
},
{
name = center;
pos = (315,350);
},
{
name = ogonek;
pos = (490,34);
},
{
name = top;
pos = (315,700);
},
{
name = topleft;
pos = (63,700);
},
{
name = topright;
pos = (467,994);
}
);
layerId = m01;
shapes = (
{
closed = 1;
nodes = (
(477,429,o),
(481,434,o),
(481,442,cs),
(481,581,ls),
(481,587,o),
(480,592,o),
(476,597,cs),
(470,604,o),
(481,606,o),
(481,611,cs),
(481,646,ls),
(481,658,o),
(480,670,o),
(480,682,cs),
(480,688,o),
(472,695,o),
(466,698,cs),
(462,700,o),
(455,698,o),
(450,698,cs),
(108,698,ls),
(102,698,o),
(96,699,o),
(91,698,cs),
(85,698,o),
(75,686,o),
(75,679,cs),
(75,629,ls),
(75,619,o),
(76,609,o),
(75,600,c),
(64,592,o),
(75,586,o),
(75,578,cs),
(75,477,ls),
(75,472,o),
(68,465,o),
(70,463,cs),
(75,457,o),
(75,450,o),
(75,444,c),
(75,34,ls),
(75,21,o),
(84,12,o),
(96,12,c),
(190,12,o),
(201,13,o),
(209,9,cs),
(220,2,o),
(225,12,o),
(235,12,cs),
(340,12,o),
(350,9,o),
(357,12,cs),
(367,15,o),
(373,-2,o),
(383,12,c),
(392,6,o),
(402,3,o),
(412,3,cs),
(444,3,ls),
(452,3,o),
(462,10,o),
(469,16,cs),
(472,18,o),
(472,26,o),
(472,31,cs),
(472,172,o),
(473,220,o),
(473,379,cs),
(473,389,o),
(474,400,o),
(480,409,c),
(482,411,o),
(473,420,o),
(475,423,c)
);
},
{
closed = 1;
nodes = (
(445,366,o),
(447,355,o),
(447,241,cs),
(447,233,o),
(445,225,o),
(439,219,cs),
(437,217,o),
(440,213,o),
(439,211,cs),
(436,202,o),
(451,194,o),
(439,186,c),
(439,60,l),
(439,53,o),
(438,46,o),
(434,39,c),
(419,39,o),
(404,38,o),
(388,38,cs),
(287,38,ls),
(278,38,o),
(268,36,o),
(259,43,cs),
(256,45,o),
(246,37,o),
(241,39,cs),
(235,41,o),
(230,47,o),
(224,39,c),
(222,38,o),
(217,37,o),
(216,38,cs),
(209,45,o),
(200,46,o),
(191,46,cs),
(108,46,ls),
(103,46,o),
(98,54,o),
(102,58,cs),
(108,66,o),
(109,73,o),
(109,82,cs),
(109,120,ls),
(109,128,o),
(108,136,o),
(102,143,c),
(101,145,o),
(102,151,o),
(104,154,cs),
(113,167,o),
(113,180,o),
(106,194,cs),
(102,205,o),
(101,212,o),
(108,220,c),
(110,221,o),
(109,226,o),
(108,228,c),
(102,234,o),
(101,240,o),
(101,247,cs),
(101,269,o),
(100,279,o),
(108,287,c),
(109,289,o),
(108,296,o),
(106,298,cs),
(100,304,o),
(102,311,o),
(100,318,cs),
(98,328,o),
(114,337,o),
(101,347,c),
(101,647,l),
(102,654,o),
(112,663,o),
(119,663,cs),
(431,663,ls),
(447,663,o),
(447,663,o),
(447,646,cs),
(447,490,ls),
(447,481,o),
(447,474,o),
(442,466,cs),
(436,458,o),
(437,447,o),
(442,438,cs),
(445,432,o),
(446,429,o),
(442,424,cs),
(440,422,o),
(437,415,o),
(439,413,cs),
(445,405,o),
(449,399,o),
(442,390,cs),
(439,387,o),
(436,378,o),
(439,375,c)
);
}
);
width = 551;
}
);
unicode = 79;
},
{
glyphname = Oslash;
lastChange = "2023-10-14 12:13:46 +0000";
layers = (
{
layerId = m01;
shapes = (
{
angle = -12.21966;
pos = (88,111);
ref = slash;
},
{
closed = 1;
nodes = (
(477,429,o),
(481,434,o),
(481,442,cs),
(481,581,ls),
(481,587,o),
(480,592,o),
(476,597,cs),
(470,604,o),
(481,606,o),
(481,611,cs),
(481,646,ls),
(481,658,o),
(480,670,o),
(480,682,cs),
(480,688,o),
(472,695,o),
(466,698,cs),
(462,700,o),
(455,698,o),
(450,698,cs),
(108,698,ls),
(102,698,o),
(96,699,o),
(91,698,cs),
(85,698,o),
(75,686,o),
(75,679,cs),
(75,629,ls),
(75,619,o),
(76,609,o),
(75,600,c),
(64,592,o),
(75,586,o),
(75,578,cs),
(75,477,ls),
(75,472,o),
(68,465,o),
(70,463,cs),
(75,457,o),
(75,450,o),
(75,444,c),
(75,34,ls),
(75,21,o),
(84,12,o),
(96,12,c),
(190,12,o),
(201,13,o),
(209,9,cs),
(220,2,o),
(225,12,o),
(235,12,cs),
(340,12,o),
(350,9,o),
(357,12,cs),
(367,15,o),
(373,-2,o),
(383,12,c),
(392,6,o),
(402,3,o),
(412,3,cs),
(444,3,ls),
(452,3,o),
(462,10,o),
(469,16,cs),
(472,18,o),
(472,26,o),
(472,31,cs),
(472,172,o),
(473,220,o),
(473,379,cs),
(473,389,o),
(474,400,o),
(480,409,c),
(482,411,o),
(473,420,o),
(475,423,c)
);
},
{
closed = 1;
nodes = (
(445,366,o),
(447,355,o),
(447,241,cs),
(447,233,o),
(445,225,o),
(439,219,cs),
(437,217,o),
(440,213,o),
(439,211,cs),
(436,202,o),
(451,194,o),
(439,186,c),
(439,60,l),
(439,53,o),
(438,46,o),
(434,39,c),
(419,39,o),
(404,38,o),
(388,38,cs),
(287,38,ls),
(278,38,o),
(268,36,o),
(259,43,cs),
(256,45,o),
(246,37,o),
(241,39,cs),
(235,41,o),
(230,47,o),
(224,39,c),
(222,38,o),
(217,37,o),
(216,38,cs),
(209,45,o),
(200,46,o),
(191,46,cs),
(108,46,ls),
(103,46,o),
(98,54,o),
(102,58,cs),
(108,66,o),
(109,73,o),
(109,82,cs),
(109,120,ls),
(109,128,o),
(108,136,o),
(102,143,c),
(101,145,o),
(102,151,o),
(104,154,cs),
(113,167,o),
(113,180,o),
(106,194,cs),
(102,205,o),
(101,212,o),
(108,220,c),
(110,221,o),
(109,226,o),
(108,228,c),
(102,234,o),
(101,240,o),
(101,247,cs),
(101,269,o),
(100,279,o),
(108,287,c),
(109,289,o),
(108,296,o),
(106,298,cs),
(100,304,o),
(102,311,o),
(100,318,cs),
(98,328,o),
(114,337,o),
(101,347,c),
(101,647,l),
(102,654,o),
(112,663,o),
(119,663,cs),
(431,663,ls),
(447,663,o),
(447,663,o),
(447,646,cs),
(447,490,ls),
(447,481,o),
(447,474,o),
(442,466,cs),
(436,458,o),
(437,447,o),
(442,438,cs),
(445,432,o),
(446,429,o),
(442,424,cs),
(440,422,o),
(437,415,o),
(439,413,cs),
(445,405,o),
(449,399,o),
(442,390,cs),
(439,387,o),
(436,378,o),
(439,375,c)
);
}
);
width = 551;
}
);
unicode = 216;
},
{
glyphname = OE;
lastChange = "2023-10-15 15:59:22 +0000";
layers = (
{
layerId = m01;
shapes = (
{
closed = 1;
nodes = (
(811,2,l),
(837,5,o),
(835,32,o),
(813,32,cs),
(503,32,l),
(493,34,o),
(489,38,o),
(498,42,cs),
(529,58,o),
(611,135,o),
(636,158,cs),
(649,170,o),
(657,185,o),
(670,196,cs),
(774,290,o),
(721,242,o),
(826,335,cs),
(834,343,o),
(834,359,o),
(826,367,cs),
(795,395,o),
(742,441,o),
(706,465,cs),
(688,479,o),
(679,497,o),
(663,512,cs),
(558,606,ls),
(553,610,o),
(547,615,o),
(544,620,cs),
(541,627,o),
(536,636,o),
(526,638,cs),
(514,641,o),
(517,656,o),
(503,655,c),
(495,666,o),
(491,669,o),
(501,669,cs),
(545,670,o),
(661,670,o),
(705,670,cs),
(712,670,o),
(745,678,o),
(755,678,cs),
(763,678,o),
(771,676,o),
(778,673,cs),
(784,671,o),
(790,670,o),
(795,670,cs),
(810,670,o),
(822,678,o),
(837,679,cs),
(838,679,o),
(839,686,o),
(837,689,cs),
(833,694,o),
(827,699,o),
(817,699,cs),
(804,699,o),
(727,699,o),
(473,699,cs),
(466,699,o),
(459,698,o),
(452,697,cs),
(445,695,o),
(438,684,o),
(442,680,cs),
(449,672,o),
(452,659,o),
(462,652,cs),
(477,641,o),
(526,600,o),
(531,590,cs),
(537,577,o),
(549,568,o),
(791,353,cs),
(798,348,o),
(797,348,o),
(791,341,c),
(679,243,o),
(641,211,o),
(639,204,cs),
(635,191,o),
(617,192,o),
(616,179,cs),
(616,177,o),
(605,175,o),
(603,172,cs),
(601,166,o),
(598,158,o),
(592,157,c),
(577,155,o),
(574,140,o),
(562,135,cs),
(549,129,o),
(536,120,o),
(532,104,c),
(524,101,o),
(516,97,o),
(513,88,c),
(485,76,o),
(470,52,o),
(447,35,cs),
(440,29,o),
(440,23,o),
(440,14,cs),
(440,5,o),
(443,2,o),
(455,2,c)
);
},
{
ref = O;
}
);
width = 858;
}
);
unicode = 338;
},
{
glyphname = P;
lastChange = "2023-10-12 13:06:56 +0000";
layers = (
{
anchors = (
{
name = bottom;
pos = (169,0);
},
{
name = top;
pos = (169,700);
}
);
layerId = m01;
shapes = (
{
closed = 1;
nodes = (
(421,521,o),
(428,545,o),
(428,552,cs),
(427,592,o),
(427,634,o),
(427,675,cs),
(427,684,o),
(418,692,o),
(409,692,cs),
(400,693,o),
(392,693,o),
(138,693,cs),
(129,693,o),
(118,689,o),
(113,693,cs),
(93,705,o),
(17,704,o),
(15,680,c),
(15,677,o),
(20,674,o),
(23,672,cs),
(32,669,o),
(47,672,o),
(55,666,cs),
(63,659,o),
(67,673,o),
(73,669,cs),
(82,663,o),
(91,662,o),
(100,662,cs),
(107,662,o),
(114,663,o),
(121,663,cs),
(197,662,o),
(273,662,o),
(384,662,cs),
(391,662,o),
(393,658,o),
(393,652,cs),
(393,553,o),
(391,544,o),
(394,537,cs),
(399,526,o),
(380,519,o),
(391,509,c),
(389,503,o),
(383,497,o),
(385,489,cs),
(387,479,o),
(380,457,o),
(391,449,c),
(381,431,o),
(398,443,o),
(393,416,cs),
(382,377,o),
(385,409,o),
(385,369,cs),
(385,365,o),
(382,362,o),
(377,361,cs),
(368,361,o),
(116,363,o),
(111,361,cs),
(97,351,o),
(77,355,o),
(33,354,cs),
(23,354,o),
(13,340,o),
(17,330,cs),
(23,313,o),
(20,301,o),
(20,282,c),
(13,277,o),
(13,270,o),
(12,263,cs),
(8,221,o),
(12,122,o),
(12,26,cs),
(12,3,o),
(12,1,o),
(27,1,c),
(196,1,o),
(202,0,o),
(207,1,cs),
(223,7,o),
(227,20,o),
(214,20,cs),
(202,24,o),
(192,31,o),
(175,31,c),
(88,32,l),
(76,32,o),
(65,30,o),
(54,24,c),
(47,24,o),
(46,35,o),
(46,42,c),
(46,290,l),
(46,309,o),
(63,335,o),
(81,326,c),
(109,324,o),
(325,324,o),
(399,331,cs),
(409,331,o),
(420,339,o),
(418,347,cs),
(414,366,o),
(434,375,o),
(421,388,c),
(430,396,o),
(425,403,o),
(420,411,c),
(430,418,o),
(427,426,o),
(419,433,c),
(419,461,o),
(419,489,o),
(420,515,c)
);
},
{
closed = 1;
nodes = (
(191,480,o),
(235,489,o),
(236,490,cs),
(241,497,o),
(247,505,o),
(248,513,cs),
(249,519,o),
(243,526,o),
(238,531,c),
(209,535,o),
(207,538,o),
(193,525,cs),
(188,521,o),
(194,516,o),
(194,512,cs)
);
}
);
width = 463;
}
);
unicode = 80;
},
{
glyphname = Q;
lastChange = "2023-10-02 05:35:04 +0000";
layers = (
{
anchors = (
{
name = bottom;
pos = (317,0);
},
{
name = top;
pos = (317,700);
}
);
layerId = m01;
shapes = (
{
closed = 1;
nodes = (
(512,-109,o),
(509,-104,o),
(507,-100,cs),
(501,-89,o),
(480,-61,o),
(480,-58,cs),
(477,-35,o),
(463,-27,o),
(449,-6,c),
(464,-2,o),
(472,5,o),
(472,22,cs),
(472,420,ls),
(472,430,o),
(473,441,o),
(479,450,c),
(481,452,o),
(472,461,o),
(474,464,c),
(476,470,o),
(480,475,o),
(480,483,cs),
(480,582,ls),
(480,587,o),
(479,593,o),
(475,597,cs),
(470,604,o),
(480,606,o),
(480,611,cs),
(480,659,o),
(479,671,o),
(479,682,cs),
(479,687,o),
(471,694,o),
(466,697,cs),
(461,699,o),
(455,697,o),
(449,697,cs),
(108,697,ls),
(103,697,o),
(97,698,o),
(91,697,cs),
(86,697,o),
(76,686,o),
(76,679,cs),
(74,608,o),
(76,586,o),
(76,518,cs),
(76,513,o),
(69,506,o),
(70,504,cs),
(75,497,o),
(76,491,o),
(76,484,cs),
(76,25,ls),
(76,12,o),
(85,3,o),
(97,3,cs),
(164,3,o),
(201,4,o),
(209,0,cs),
(220,-7,o),
(226,3,o),
(235,3,cs),
(332,3,ls),
(340,3,o),
(350,0,o),
(357,3,cs),
(367,6,o),
(373,-11,o),
(382,3,c),
(391,-3,o),
(400,-6,o),
(410,-6,c),
(424,-26,o),
(446,-68,o),
(458,-87,cs),
(469,-104,o),
(486,-113,o),
(500,-126,c),
(502,-128,o),
(518,-136,o),
(513,-114,cs)
);
},
{
closed = 1;
nodes = (
(392,82,o),
(293,232,o),
(290,236,c),
(324,236,ls),
(331,236,o),
(338,233,o),
(343,236,cs),
(351,241,o),
(356,222,o),
(363,233,c),
(368,232,o),
(372,226,o),
(377,227,cs),
(387,229,o),
(400,223,o),
(406,233,c),
(416,223,o),
(410,241,o),
(430,236,cs),
(433,235,o),
(435,232,o),
(438,230,c),
(438,50,l),
(438,44,o),
(438,37,o),
(434,30,c),
(427,30,l)
);
},
{
closed = 1;
nodes = (
(287,29,ls),
(277,29,o),
(268,27,o),
(259,34,cs),
(256,36,o),
(246,28,o),
(241,30,cs),
(235,32,o),
(230,38,o),
(224,30,c),
(222,29,o),
(217,28,o),
(216,29,cs),
(209,36,o),
(200,37,o),
(191,37,cs),
(109,37,ls),
(103,37,o),
(99,45,o),
(103,49,c),
(108,57,o),
(110,64,o),
(110,73,cs),
(110,94,o),
(110,182,o),
(110,203,cs),
(110,212,o),
(109,220,o),
(103,227,cs),
(101,229,o),
(102,233,o),
(104,236,cs),
(113,249,o),
(112,263,o),
(107,278,cs),
(102,288,o),
(101,295,o),
(109,303,c),
(108,311,l),
(101,352,o),
(100,362,o),
(108,370,cs),
(110,372,o),
(108,378,o),
(106,381,cs),
(101,387,o),
(102,394,o),
(101,401,cs),
(99,411,o),
(114,420,o),
(102,430,c),
(102,405,o),
(100,632,o),
(102,648,cs),
(102,654,o),
(112,664,o),
(119,664,cs),
(126,665,o),
(133,664,o),
(140,664,cs),
(430,664,ls),
(446,664,o),
(446,663,o),
(446,646,cs),
(446,531,ls),
(446,522,o),
(446,515,o),
(441,507,cs),
(435,499,o),
(436,488,o),
(441,479,cs),
(444,474,o),
(445,471,o),
(441,465,cs),
(429,453,o),
(453,446,o),
(441,432,cs),
(438,428,o),
(435,420,o),
(438,417,c),
(449,398,o),
(450,278,o),
(438,268,cs),
(437,267,o),
(435,264,o),
(434,263,c),
(428,272,o),
(423,269,o),
(417,262,c),
(398,262,o),
(378,263,o),
(358,263,cs),
(354,263,o),
(351,274,o),
(346,267,cs),
(340,256,o),
(337,270,o),
(333,270,cs),
(312,270,o),
(292,269,o),
(272,269,c),
(268,264,o),
(264,260,o),
(259,261,cs),
(245,263,o),
(242,254,o),
(248,236,c),
(250,233,o),
(349,86,o),
(386,29,c)
);
},
{
closed = 1;
nodes = (
(276,365,o),
(278,366,cs),
(305,378,o),
(299,407,o),
(274,415,c),
(271,415,o),
(267,408,o),
(264,408,cs),
(249,408,o),
(252,392,o),
(245,384,cs),
(244,383,o),
(248,377,o),
(249,374,cs),
(254,362,o)
);
}
);
width = 514;
}
);
unicode = 81;
},
{
glyphname = R;
lastChange = "2023-10-14 12:33:25 +0000";
layers = (
{
anchors = (
{
name = bottom;
pos = (265,0);
},
{
name = top;
pos = (269,700);
}
);
layerId = m01;
shapes = (
{
closed = 1;
nodes = (
(483,279,o),
(484,296,o),
(472,316,cs),
(468,323,o),
(459,319,o),
(453,319,cs),
(200,319,l),
(162,319,ls),
(158,319,o),
(156,324,o),
(159,327,cs),
(186,349,o),
(203,380,o),
(228,405,cs),
(246,423,ls),
(251,428,o),
(255,432,o),
(257,440,cs),
(259,448,o),
(273,444,o),
(273,456,c),
(291,468,o),
(396,589,o),
(434,628,cs),
(450,643,o),
(461,662,o),
(472,681,c),
(478,696,o),
(453,708,o),
(439,708,cs),
(429,708,o),
(419,707,o),
(380,707,cs),
(374,707,o),
(367,709,o),
(363,706,cs),
(355,700,o),
(347,699,o),
(338,699,cs),
(121,699,ls),
(114,699,o),
(107,698,o),
(102,692,cs),
(99,688,o),
(95,684,o),
(90,680,cs),
(82,673,o),
(80,665,o),
(80,654,cs),
(79,337,ls),
(79,329,o),
(77,321,o),
(71,315,cs),
(69,313,o),
(70,308,o),
(71,307,cs),
(79,299,o),
(79,290,o),
(79,280,cs),
(79,130,ls),
(79,124,o),
(82,117,o),
(79,113,cs),
(73,104,o),
(71,92,o),
(71,20,cs),
(71,11,o),
(80,7,o),
(86,2,cs),
(94,-3,o),
(104,16,o),
(104,30,cs),
(104,86,ls),
(104,108,o),
(123,137,o),
(107,162,cs),
(105,165,o),
(105,170,o),
(107,173,cs),
(110,179,o),
(116,185,o),
(109,191,cs),
(101,198,o),
(117,206,o),
(107,212,cs),
(105,213,o),
(104,218,o),
(105,219,cs),
(109,224,o),
(111,228,o),
(111,233,cs),
(111,239,o),
(108,246,o),
(105,252,cs),
(102,258,o),
(103,269,o),
(106,272,cs),
(113,278,o),
(122,282,o),
(131,285,cs),
(136,287,o),
(142,285,o),
(148,285,cs),
(232,285,ls),
(239,285,o),
(247,284,o),
(252,288,cs),
(267,298,o),
(294,295,o),
(312,285,cs),
(317,280,o),
(329,295,o),
(338,295,cs),
(341,295,o),
(360,292,o),
(362,291,cs),
(370,285,o),
(378,285,o),
(386,285,cs),
(441,285,ls),
(444,285,o),
(448,280,o),
(449,277,c),
(449,82,o),
(446,71,o),
(449,65,cs),
(458,48,o),
(452,40,o),
(458,9,cs),
(460,-1,o),
(483,-7,o),
(483,14,cs)
);
},
{
closed = 1;
nodes = (
(105,316,o),
(101,337,o),
(106,340,cs),
(115,347,o),
(103,355,o),
(108,360,cs),
(115,368,o),
(112,376,o),
(112,384,cs),
(114,650,ls),
(114,665,o),
(114,665,o),
(131,665,cs),
(244,665,ls),
(260,665,o),
(259,673,o),
(275,673,cs),
(323,673,o),
(371,674,o),
(418,674,cs),
(423,674,o),
(427,664,o),
(424,661,cs),
(406,643,o),
(350,583,o),
(347,569,c),
(347,564,o),
(341,559,o),
(336,557,cs),
(314,546,o),
(299,530,o),
(287,508,c),
(285,502,o),
(278,498,o),
(273,493,cs),
(257,477,o),
(242,461,o),
(226,445,cs),
(217,436,o),
(205,429,o),
(200,418,cs),
(196,406,o),
(179,405,o),
(179,391,c),
(156,368,o),
(134,345,o),
(111,322,cs)
);
},
{
closed = 1;
nodes = (
(283,185,o),
(276,185,o),
(270,180,cs),
(265,175,o),
(258,170,o),
(254,165,cs),
(250,161,o),
(251,148,o),
(254,146,cs),
(273,135,o),
(292,133,o),
(301,153,cs),
(305,162,o),
(303,177,o),
(289,183,cs)
);
}
);
width = 553;
}
);
unicode = 82;
},
{
glyphname = S;
lastChange = "2023-10-02 05:35:04 +0000";
layers = (
{
anchors = (
{
name = bottom;
pos = (269,0);
},
{
name = top;
pos = (269,700);
}
);
layerId = m01;
shapes = (
{
closed = 1;
nodes = (
(481,104,o),
(478,113,o),
(478,122,cs),
(479,185,o),
(479,271,o),
(478,334,cs),
(478,351,o),
(463,364,o),
(444,364,cs),
(375,364,o),
(341,376,o),
(301,361,cs),
(294,358,o),
(292,361,o),
(288,364,cs),
(284,368,o),
(281,372,o),
(286,377,cs),
(294,386,o),
(285,382,o),
(285,400,c),
(294,408,o),
(292,431,o),
(292,485,cs),
(292,501,o),
(299,508,o),
(316,508,cs),
(341,508,o),
(418,508,o),
(431,508,cs),
(442,507,o),
(447,516,o),
(457,518,cs),
(462,519,o),
(465,528,o),
(467,533,cs),
(469,537,o),
(469,543,o),
(470,571,cs),
(470,579,o),
(468,587,o),
(477,595,c),
(465,610,o),
(470,633,o),
(476,640,cs),
(480,645,o),
(480,652,o),
(475,657,cs),
(470,662,o),
(470,669,o),
(470,675,cs),
(468,693,o),
(462,697,o),
(444,697,cs),
(143,697,o),
(135,698,o),
(128,692,cs),
(124,689,o),
(117,700,o),
(111,692,c),
(99,697,o),
(95,698,o),
(90,695,cs),
(78,686,o),
(65,679,o),
(72,663,cs),
(80,645,o),
(78,628,o),
(73,603,cs),
(71,595,o),
(68,586,o),
(74,578,cs),
(81,568,o),
(82,557,o),
(75,546,cs),
(70,537,o),
(69,530,o),
(76,522,cs),
(79,520,o),
(79,519,o),
(76,516,cs),
(70,512,o),
(71,504,o),
(71,498,cs),
(71,385,ls),
(71,367,o),
(72,359,o),
(81,346,cs),
(87,335,o),
(112,346,o),
(124,337,c),
(126,335,o),
(133,334,o),
(135,336,cs),
(144,343,o),
(198,347,o),
(211,335,c),
(221,346,o),
(230,338,o),
(240,334,cs),
(245,332,o),
(252,333,o),
(255,330,cs),
(258,327,o),
(258,321,o),
(258,316,cs),
(258,218,ls),
(258,203,o),
(256,195,o),
(248,187,c),
(244,184,o),
(238,183,o),
(232,183,cs),
(230,183,o),
(186,184,o),
(176,188,c),
(172,185,o),
(165,180,o),
(161,184,cs),
(149,194,o),
(139,190,o),
(123,190,cs),
(94,190,o),
(71,169,o),
(71,141,cs),
(71,131,o),
(70,38,o),
(72,31,cs),
(73,23,o),
(82,17,o),
(80,7,c),
(80,4,o),
(84,1,o),
(89,1,cs),
(147,1,o),
(156,0,o),
(160,3,cs),
(180,15,o),
(251,1,o),
(262,1,c),
(318,0,o),
(384,1,o),
(440,1,cs),
(451,1,o),
(463,-1,o),
(470,8,c),
(473,16,o),
(485,24,o),
(472,34,c),
(469,52,o),
(468,78,o),
(473,97,c)
);
},
{
closed = 1;
nodes = (
(381,333,ls),
(400,333,o),
(424,336,o),
(443,329,c),
(444,299,o),
(444,230,o),
(446,225,cs),
(452,207,o),
(457,184,o),
(446,171,cs),
(443,167,o),
(444,159,o),
(444,154,cs),
(444,32,ls),
(444,26,o),
(440,23,o),
(434,23,cs),
(403,23,o),
(296,20,o),
(279,29,cs),
(276,31,o),
(271,30,o),
(267,30,cs),
(260,31,o),
(255,21,o),
(245,29,cs),
(237,35,o),
(134,30,o),
(124,29,cs),
(111,25,o),
(105,33,o),
(105,43,cs),
(105,141,ls),
(105,152,o),
(114,160,o),
(127,160,cs),
(228,160,ls),
(232,160,o),
(238,159,o),
(240,156,cs),
(244,150,o),
(249,148,o),
(254,148,cs),
(262,148,o),
(271,154,o),
(279,154,c),
(283,154,o),
(291,162,o),
(291,168,cs),
(292,182,o),
(296,190,o),
(286,200,cs),
(284,203,o),
(284,207,o),
(284,211,cs),
(284,223,o),
(284,299,o),
(284,324,cs),
(284,331,o),
(287,334,o),
(297,334,cs)
);
},
{
closed = 1;
nodes = (
(117,364,ls),
(107,364,o),
(95,375,o),
(98,380,cs),
(105,392,o),
(106,404,o),
(106,416,cs),
(106,428,o),
(105,441,o),
(105,453,cs),
(105,467,o),
(99,460,o),
(99,474,cs),
(99,478,o),
(106,481,o),
(101,487,c),
(98,488,o),
(97,495,o),
(98,496,c),
(112,509,o),
(100,574,o),
(112,587,cs),
(115,591,o),
(115,598,o),
(113,602,c),
(106,610,o),
(104,616,o),
(112,625,cs),
(115,628,o),
(116,637,o),
(113,639,cs),
(106,646,o),
(112,652,o),
(111,657,cs),
(110,662,o),
(105,667,o),
(114,667,cs),
(224,667,ls),
(234,667,o),
(271,662,o),
(278,672,cs),
(281,677,o),
(357,674,o),
(361,674,cs),
(371,674,o),
(380,674,o),
(390,669,c),
(419,666,o),
(447,667,o),
(444,653,cs),
(444,650,o),
(445,625,o),
(445,615,cs),
(445,605,o),
(443,596,o),
(436,587,c),
(436,548,ls),
(436,541,o),
(434,539,o),
(423,538,cs),
(417,537,o),
(410,539,o),
(406,537,cs),
(398,530,o),
(344,532,o),
(315,530,cs),
(307,530,o),
(302,533,o),
(297,537,cs),
(289,545,o),
(283,546,o),
(272,541,cs),
(262,536,o),
(257,531,o),
(258,521,cs),
(258,501,o),
(260,488,o),
(257,469,cs),
(256,460,o),
(270,455,o),
(261,445,cs),
(257,440,o),
(259,431,o),
(258,374,cs),
(258,366,o),
(255,364,o),
(244,364,cs)
);
}
);
width = 549;
}
);
unicode = 83;
},
{
glyphname = T;
lastChange = "2023-10-13 20:04:15 +0000";
layers = (
{
anchors = (
{
name = bottom;
pos = (201,0);
},
{
name = center;
pos = (214,350);
},
{
name = top;
pos = (201,700);
}
);
layerId = m01;
shapes = (
{
closed = 1;
nodes = (
(157,694,o),
(100,694,o),
(43,695,cs),
(28,695,o),
(19,686,o),
(19,672,cs),
(19,541,o),
(19,532,o),
(13,523,cs),
(7,513,o),
(12,501,o),
(23,495,c),
(26,494,o),
(32,495,o),
(35,497,cs),
(40,501,o),
(45,505,o),
(45,513,cs),
(44,523,o),
(45,533,o),
(45,647,cs),
(45,680,o),
(74,664,o),
(106,669,cs),
(113,670,o),
(121,670,o),
(126,666,cs),
(133,661,o),
(141,661,o),
(149,661,cs),
(191,661,ls),
(201,661,o),
(203,659,o),
(204,649,cs),
(204,639,o),
(203,574,o),
(203,564,cs),
(203,535,o),
(210,514,o),
(197,488,c),
(201,484,o),
(206,477,o),
(203,473,cs),
(188,458,o),
(195,415,o),
(201,395,c),
(192,388,o),
(205,345,o),
(195,183,cs),
(195,177,o),
(193,170,o),
(196,166,cs),
(203,156,o),
(207,148,o),
(196,137,c),
(194,134,o),
(195,125,o),
(198,121,cs),
(207,109,o),
(201,68,o),
(196,46,cs),
(194,37,o),
(192,35,o),
(183,34,cs),
(134,28,o),
(127,28,o),
(120,29,cs),
(112,30,o),
(94,28,o),
(85,28,cs),
(75,28,o),
(65,30,o),
(52,37,c),
(41,30,o),
(28,28,o),
(21,17,cs),
(19,13,o),
(22,4,o),
(27,4,cs),
(38,3,o),
(49,3,o),
(60,3,cs),
(337,6,ls),
(345,6,o),
(358,10,o),
(368,1,cs),
(371,-1,o),
(379,0,o),
(384,2,cs),
(390,4,o),
(396,7,o),
(402,11,cs),
(409,18,o),
(396,34,o),
(383,34,cs),
(304,34,o),
(336,34,o),
(257,34,cs),
(236,34,o),
(229,40,o),
(229,60,c),
(229,639,l),
(229,652,o),
(239,658,o),
(247,665,cs),
(253,671,o),
(255,661,o),
(260,661,cs),
(356,661,ls),
(361,661,o),
(366,666,o),
(371,668,cs),
(378,671,o),
(380,655,o),
(380,649,cs),
(380,523,ls),
(380,518,o),
(378,511,o),
(381,507,cs),
(384,502,o),
(389,496,o),
(395,494,cs),
(402,492,o),
(403,499,o),
(405,504,c),
(411,512,o),
(413,521,o),
(413,531,cs),
(413,673,ls),
(413,677,o),
(415,682,o),
(413,686,cs),
(408,700,o),
(406,699,o),
(394,697,cs),
(387,696,o),
(380,694,o),
(373,694,cs)
);
},
{
closed = 1;
nodes = (
(38,396,o),
(38,394,o),
(27,383,cs),
(7,363,o),
(22,354,o),
(34,345,cs),
(39,340,o),
(50,341,o),
(57,346,cs),
(67,354,o),
(75,370,o),
(54,385,cs)
);
},
{
closed = 1;
nodes = (
(397,338,o),
(409,354,o),
(414,359,cs),
(419,365,o),
(419,373,o),
(416,379,cs),
(413,386,o),
(407,393,o),
(397,392,cs),
(390,392,o),
(379,386,o),
(377,380,c),
(375,364,l),
(374,354,o),
(381,348,o),
(388,344,cs)
);
}
);
width = 428;
}
);
unicode = 84;
},
{
glyphname = U;
lastChange = "2023-10-14 12:33:39 +0000";
layers = (
{
anchors = (
{
name = bottom;
pos = (278,0);
},
{
name = ogonek;
pos = (491,24);
},
{
name = top;
pos = (282,697);
},
{
name = topright;
pos = (408,992);
}
);
layerId = m01;
shapes = (
{
closed = 1;
nodes = (
(489,66,o),
(491,73,o),
(489,75,cs),
(481,83,o),
(482,93,o),
(482,103,cs),
(482,198,ls),
(482,209,o),
(483,219,o),
(488,231,cs),
(494,245,o),
(494,259,o),
(485,271,cs),
(483,274,o),
(482,280,o),
(484,282,cs),
(490,290,o),
(491,298,o),
(491,306,cs),
(490,314,o),
(486,332,o),
(491,348,cs),
(496,360,o),
(477,362,o),
(484,376,cs),
(492,388,o),
(490,405,o),
(490,413,cs),
(491,418,o),
(491,425,o),
(488,429,cs),
(481,438,o),
(482,448,o),
(482,457,cs),
(482,542,ls),
(482,548,o),
(480,555,o),
(483,558,cs),
(489,566,o),
(491,574,o),
(491,582,cs),
(491,591,o),
(491,644,o),
(491,654,cs),
(491,669,o),
(484,681,o),
(476,694,c),
(472,705,o),
(461,696,o),
(458,689,c),
(457,684,o),
(456,678,o),
(456,610,c),
(456,601,o),
(457,593,o),
(463,585,c),
(457,576,o),
(455,566,o),
(455,556,cs),
(455,545,o),
(456,413,o),
(456,383,cs),
(456,376,o),
(453,372,o),
(446,372,cs),
(347,372,l),
(338,373,o),
(331,371,o),
(323,366,cs),
(314,359,o),
(309,374,o),
(301,372,cs),
(293,370,o),
(287,362,o),
(279,372,cs),
(278,373,o),
(273,372,o),
(271,371,c),
(263,362,o),
(255,364,o),
(245,371,cs),
(235,379,o),
(226,364,o),
(215,369,cs),
(212,370,o),
(211,370,o),
(208,369,cs),
(197,365,o),
(150,370,o),
(149,369,cs),
(143,364,o),
(121,364,o),
(116,364,cs),
(107,364,o),
(104,367,o),
(104,378,cs),
(104,632,o),
(104,675,o),
(104,679,cs),
(104,683,o),
(103,687,o),
(100,690,cs),
(91,703,o),
(79,703,o),
(79,687,cs),
(77,672,o),
(84,424,o),
(73,413,cs),
(71,411,o),
(70,404,o),
(72,402,cs),
(79,394,o),
(79,386,o),
(79,378,cs),
(79,350,o),
(79,323,o),
(78,296,cs),
(78,291,o),
(78,284,o),
(75,280,cs),
(71,274,o),
(70,267,o),
(70,260,cs),
(70,15,ls),
(70,5,o),
(73,2,o),
(83,2,cs),
(459,2,o),
(466,2,o),
(473,3,cs),
(476,3,o),
(480,5,o),
(480,6,cs),
(482,16,o),
(491,24,o),
(491,34,cs),
(491,37,o),
(490,41,o),
(487,45,cs),
(481,51,o),
(482,57,o),
(487,64,cs)
);
},
{
closed = 1;
nodes = (
(435,28,o),
(428,28,o),
(118,28,cs),
(105,28,o),
(96,36,o),
(96,48,cs),
(95,98,o),
(95,104,o),
(96,154,cs),
(96,166,o),
(106,180,o),
(104,192,cs),
(103,197,o),
(103,203,o),
(104,325,c),
(104,335,o),
(107,338,o),
(117,338,cs),
(443,338,ls),
(453,338,o),
(456,335,o),
(456,326,c),
(456,13,o),
(456,46,o),
(456,41,cs),
(456,29,o),
(454,28,o),
(440,28,cs)
);
},
{
closed = 1;
nodes = (
(275,504,o),
(284,507,cs),
(293,509,o),
(299,515,o),
(301,523,cs),
(304,530,o),
(300,540,o),
(293,545,cs),
(283,553,o),
(265,551,o),
(256,542,cs),
(252,538,o),
(250,533,o),
(250,528,cs),
(250,505,o)
);
},
{
closed = 1;
nodes = (
(278,215,o),
(263,217,o),
(252,201,cs),
(247,193,o),
(254,188,o),
(268,174,cs),
(279,163,o),
(302,175,o),
(302,191,cs),
(302,198,o),
(296,209,o),
(289,212,cs)
);
}
);
width = 562;
}
);
unicode = 85;
},
{
glyphname = V;
lastChange = "2023-10-12 13:07:41 +0000";
layers = (
{
anchors = (
{
name = bottom;
pos = (267,0);
},
{
name = top;
pos = (270,700);
}
);
layerId = m01;
shapes = (
{
closed = 1;
nodes = (
(442,467,o),
(452,486,cs),
(457,494,o),
(453,506,o),
(453,516,c),
(446,523,o),
(444,531,o),
(444,539,c),
(445,566,o),
(445,578,o),
(452,590,cs),
(453,592,o),
(454,594,o),
(454,597,cs),
(454,606,o),
(443,615,o),
(443,626,cs),
(443,627,o),
(444,647,o),
(450,654,cs),
(453,658,o),
(453,665,o),
(453,670,cs),
(453,686,o),
(445,695,o),
(430,695,cs),
(414,695,o),
(414,692,o),
(412,678,cs),
(412,677,o),
(419,662,o),
(419,655,cs),
(419,586,o),
(419,578,o),
(425,571,cs),
(427,569,o),
(427,562,o),
(425,560,cs),
(417,551,o),
(419,541,o),
(419,418,cs),
(419,410,o),
(418,401,o),
(418,393,c),
(407,386,o),
(412,372,o),
(406,362,cs),
(387,330,o),
(373,295,o),
(353,263,cs),
(343,248,o),
(334,233,o),
(327,217,c),
(292,217,o),
(187,217,o),
(169,217,cs),
(163,217,o),
(158,216,o),
(153,213,c),
(149,222,o),
(126,261,o),
(126,274,cs),
(126,288,o),
(111,293,o),
(106,306,cs),
(99,329,o),
(90,351,o),
(69,389,cs),
(67,394,o),
(66,400,o),
(66,406,cs),
(66,439,ls),
(66,444,o),
(65,448,o),
(66,452,cs),
(70,462,o),
(81,471,o),
(67,482,c),
(74,491,o),
(75,501,o),
(75,511,c),
(75,667,l),
(76,671,o),
(76,680,o),
(76,684,cs),
(75,691,o),
(64,698,o),
(54,698,cs),
(46,698,o),
(40,694,o),
(40,685,cs),
(40,399,ls),
(40,391,o),
(43,384,o),
(46,376,cs),
(62,340,o),
(83,308,o),
(95,270,cs),
(102,248,o),
(151,166,o),
(154,142,c),
(180,112,o),
(190,73,o),
(211,40,cs),
(218,28,o),
(224,16,o),
(231,4,cs),
(235,-2,o),
(252,-2,o),
(254,4,cs),
(260,20,o),
(270,34,o),
(279,47,cs),
(290,62,o),
(297,79,o),
(303,96,cs),
(310,117,o),
(321,136,o),
(329,157,cs),
(349,201,o),
(378,241,o),
(398,285,cs),
(405,300,o),
(411,316,o),
(424,328,cs),
(426,330,o),
(427,333,o),
(427,335,cs),
(427,353,o),
(439,367,o),
(446,381,cs),
(451,391,o),
(454,401,o),
(454,410,cs),
(454,416,o),
(453,421,o),
(451,426,cs),
(443,443,o)
);
},
{
closed = 1;
nodes = (
(264,87,o),
(246,51,cs),
(242,43,o),
(242,44,o),
(238,52,cs),
(210,93,o),
(187,144,o),
(165,188,c),
(176,188,o),
(195,182,o),
(208,191,cs),
(213,194,o),
(229,191,o),
(233,191,cs),
(314,191,l),
(309,180,o)
);
},
{
closed = 1;
nodes = (
(230,366,o),
(270,375,o),
(270,389,c),
(265,403,o),
(261,412,o),
(249,418,cs),
(240,422,o),
(237,415,o),
(231,414,cs),
(219,412,o),
(214,406,o),
(214,397,cs),
(214,389,o),
(219,380,o),
(224,374,cs)
);
}
);
width = 495;
}
);
unicode = 86;
},
{
glyphname = W;
lastChange = "2023-10-02 05:35:04 +0000";
layers = (
{
anchors = (
{
name = bottom;
pos = (359,0);
},
{
name = top;
pos = (359,700);
}
);
layerId = m01;
shapes = (
{
closed = 1;
nodes = (
(675,160,o),
(675,183,cs),
(675,205,l),
(662,214,o),
(677,221,o),
(675,228,cs),
(672,237,o),
(664,249,o),
(671,255,cs),
(677,262,o),
(678,269,o),
(673,276,cs),
(664,287,o),
(668,300,o),
(668,312,c),
(674,318,o),
(676,324,o),
(676,330,cs),
(676,360,o),
(675,512,o),
(675,565,cs),
(675,571,o),
(675,577,o),
(676,583,cs),
(676,590,o),
(670,596,o),
(669,600,cs),
(669,606,o),
(675,610,o),
(669,616,cs),
(665,620,o),
(675,631,o),
(675,636,cs),
(676,644,o),
(676,674,o),
(675,681,c),
(672,689,o),
(641,699,o),
(641,673,cs),
(641,457,ls),
(641,448,o),
(643,440,o),
(648,433,c),
(641,426,o),
(640,418,o),
(640,410,cs),
(640,400,o),
(642,391,o),
(642,381,cs),
(641,287,o),
(641,191,o),
(641,97,cs),
(641,78,o),
(634,81,o),
(625,94,cs),
(621,99,o),
(566,203,o),
(400,504,c),
(396,509,o),
(391,516,o),
(395,521,cs),
(404,532,o),
(399,549,o),
(413,557,cs),
(416,559,o),
(420,564,o),
(419,566,c),
(418,577,o),
(426,582,o),
(432,590,cs),
(439,599,o),
(448,611,o),
(450,622,cs),
(456,642,o),
(471,656,o),
(483,672,c),
(484,675,o),
(487,685,o),
(485,686,c),
(476,688,o),
(468,696,o),
(458,696,cs),
(451,696,o),
(433,696,o),
(426,696,cs),
(385,696,o),
(400,685,o),
(368,688,cs),
(366,688,o),
(312,689,o),
(302,696,c),
(292,696,o),
(282,696,o),
(272,695,cs),
(269,695,o),
(264,684,o),
(266,679,cs),
(272,668,o),
(276,655,o),
(285,647,cs),
(298,636,o),
(297,622,o),
(306,611,cs),
(323,594,o),
(328,572,o),
(343,553,c),
(341,543,o),
(346,536,o),
(354,530,cs),
(362,523,o),
(362,515,o),
(356,507,cs),
(348,493,o),
(258,336,o),
(250,324,cs),
(242,315,o),
(234,304,o),
(233,295,cs),
(233,284,o),
(211,247,o),
(203,238,cs),
(197,232,o),
(189,223,o),
(189,213,cs),
(189,208,o),
(186,203,o),
(182,199,cs),
(173,191,o),
(116,92,o),
(105,78,cs),
(102,73,o),
(96,75,o),
(96,81,cs),
(96,214,ls),
(96,219,o),
(94,225,o),
(98,229,c),
(97,289,l),
(97,290,o),
(105,293,o),
(104,303,c),
(98,309,o),
(96,315,o),
(104,321,c),
(104,328,o),
(103,358,o),
(97,365,c),
(96,367,o),
(97,372,o),
(99,375,cs),
(108,385,o),
(108,398,o),
(102,410,cs),
(97,420,o),
(96,429,o),
(96,440,cs),
(96,523,ls),
(96,528,o),
(94,533,o),
(96,538,cs),
(99,545,o),
(109,549,o),
(101,557,cs),
(93,565,o),
(105,570,o),
(104,577,c),
(104,669,l),
(104,671,o),
(105,674,o),
(103,676,cs),
(76,700,o),
(70,678,o),
(70,670,c),
(70,28,ls),
(70,11,o),
(85,-4,o),
(97,9,c),
(98,11,o),
(101,12,o),
(102,15,cs),
(109,27,o),
(133,76,o),
(146,84,c),
(160,108,o),
(267,295,o),
(284,328,c),
(300,339,o),
(305,357,o),
(315,371,cs),
(326,386,o),
(325,408,o),
(343,420,c),
(348,454,o),
(357,449,o),
(372,480,c),
(372,482,o),
(379,482,o),
(382,481,c),
(407,441,o),
(424,406,o),
(440,371,cs),
(447,355,o),
(457,340,o),
(465,325,cs),
(474,310,o),
(556,158,o),
(567,144,cs),
(578,129,o),
(581,112,o),
(590,97,cs),
(605,72,o),
(616,50,o),
(628,24,cs),
(632,15,o),
(642,12,o),
(648,6,cs),
(662,-11,o),
(669,17,o),
(675,32,c),
(667,51,l),
(667,124,ls),
(667,147,o)
);
},
{
closed = 1;
nodes = (
(376,551,o),
(373,553,o),
(370,556,c),
(352,586,o),
(335,617,o),
(318,647,cs),
(313,663,o),
(334,652,o),
(345,663,cs),
(346,664,o),
(368,657,o),
(371,659,cs),
(390,671,o),
(409,664,o),
(432,664,cs),
(434,664,o),
(435,661,o),
(436,655,c),
(418,623,o),
(400,591,o),
(382,560,cs)
);
},
{
closed = 1;
nodes = (
(379,223,o),
(370,218,c),
(355,215,o),
(341,209,o),
(341,193,cs),
(341,180,o),
(353,168,o),
(372,168,cs),
(382,168,o),
(401,183,o),
(402,192,cs),
(402,202,o)
);
}
);
width = 746;
}
);
unicode = 87;
},
{
glyphname = X;
lastChange = "2023-10-02 05:35:04 +0000";
layers = (
{
anchors = (
{
name = bottom;
pos = (324,0);
},
{
name = top;
pos = (324,700);
}
);
layerId = m01;
shapes = (
{
closed = 1;
nodes = (
(491,151,ls),
(491,167,o),
(486,182,o),
(474,193,cs),
(465,200,o),
(454,207,o),
(450,216,cs),
(446,226,o),
(420,245,o),
(415,251,c),
(401,248,o),
(407,267,o),
(395,267,cs),
(392,267,o),
(389,269,o),
(388,270,cs),
(377,290,o),
(360,304,o),
(338,315,cs),
(332,317,o),
(330,324,o),
(325,330,cs),
(323,332,o),
(319,334,o),
(316,336,cs),
(308,341,o),
(307,346,o),
(312,351,cs),
(322,360,o),
(393,425,o),
(405,433,cs),
(416,440,o),
(418,456,o),
(430,462,cs),
(445,468,o),
(447,479,o),
(456,488,cs),
(468,498,o),
(480,509,o),
(491,518,c),
(491,561,ls),
(491,570,o),
(491,579,o),
(484,587,cs),
(477,595,o),
(490,600,o),
(490,611,cs),
(490,634,o),
(491,659,o),
(491,683,c),
(489,688,o),
(480,700,o),
(473,694,c),
(471,690,o),
(466,689,o),
(465,686,cs),
(463,676,o),
(464,665,o),
(459,656,cs),
(456,650,o),
(456,644,o),
(456,637,cs),
(456,557,ls),
(456,526,o),
(449,522,o),
(439,504,cs),
(436,498,o),
(428,499,o),
(426,495,cs),
(416,478,o),
(396,468,o),
(385,452,cs),
(373,435,o),
(353,428,o),
(340,414,cs),
(326,399,o),
(309,386,o),
(294,373,cs),
(290,369,o),
(286,367,o),
(280,371,cs),
(254,394,o),
(232,419,o),
(201,435,cs),
(192,440,o),
(189,455,o),
(180,457,cs),
(170,461,o),
(171,471,o),
(164,473,cs),
(153,476,o),
(145,480,o),
(143,490,cs),
(140,500,o),
(129,497,o),
(123,502,cs),
(115,510,o),
(108,518,o),
(108,530,cs),
(108,573,o),
(109,615,o),
(109,656,cs),
(109,671,o),
(98,681,o),
(96,695,cs),
(96,696,o),
(91,698,o),
(89,697,cs),
(81,695,o),
(74,689,o),
(74,681,cs),
(74,674,l),
(74,644,ls),
(74,634,o),
(75,623,o),
(82,613,c),
(82,568,ls),
(82,555,o),
(74,540,o),
(74,526,cs),
(74,519,o),
(76,512,o),
(82,507,cs),
(106,487,o),
(134,469,o),
(149,442,cs),
(150,440,o),
(153,437,o),
(156,437,cs),
(168,435,o),
(238,372,o),
(265,348,c),
(242,320,o),
(209,300,o),
(183,274,cs),
(169,262,o),
(76,192,o),
(74,178,cs),
(71,162,o),
(70,141,o),
(70,121,cs),
(71,65,o),
(74,77,o),
(74,22,cs),
(74,12,o),
(85,4,o),
(94,4,cs),
(102,4,o),
(108,8,o),
(108,21,cs),
(108,30,o),
(107,70,o),
(100,81,cs),
(97,85,o),
(100,96,o),
(103,102,cs),
(107,111,o),
(108,131,o),
(108,139,cs),
(108,159,o),
(110,172,o),
(124,184,cs),
(135,193,o),
(171,233,o),
(187,240,cs),
(199,246,o),
(208,257,o),
(218,267,cs),
(224,272,o),
(232,277,o),
(235,283,cs),
(243,301,o),
(261,311,o),
(274,324,cs),
(278,328,o),
(284,330,o),
(289,324,cs),
(302,312,o),
(320,302,o),
(328,285,cs),
(336,270,o),
(348,271,o),
(361,257,cs),
(380,239,o),
(400,220,o),
(420,201,cs),
(427,195,o),
(434,190,o),
(444,186,cs),
(452,184,o),
(456,177,o),
(456,168,cs),
(456,147,ls),
(456,138,o),
(459,129,o),
(465,120,cs),
(467,117,o),
(456,99,o),
(456,95,cs),
(456,92,o),
(464,89,o),
(465,86,cs),
(466,82,o),
(454,79,o),
(460,74,cs),
(465,69,o),
(466,65,o),
(462,60,cs),
(451,45,o),
(456,24,o),
(468,7,cs),
(475,-5,o),
(491,18,o),
(491,24,cs)
);
},
{
closed = 1;
nodes = (
(286,517,o),
(301,536,o),
(307,543,cs),
(309,546,o),
(310,552,o),
(308,555,cs),
(302,564,o),
(298,567,o),
(292,576,c),
(286,572,o),
(280,574,o),
(276,574,cs),
(262,574,o),
(267,558,o),
(258,553,c),
(263,542,o),
(266,530,o),
(277,523,cs)
);
},
{
closed = 1;
nodes = (
(307,178,o),
(296,185,o),
(287,186,cs),
(275,186,o),
(265,177,o),
(265,165,cs),
(265,156,o),
(272,144,o),
(280,142,cs),
(284,141,o),
(289,142,o),
(293,142,cs),
(307,142,o),
(308,147,o),
(308,159,cs),
(308,160,o),
(309,165,o),
(308,169,cs)
);
}
);
width = 561;
}
);
unicode = 88;
},
{
glyphname = Y;
lastChange = "2023-10-02 05:35:04 +0000";
layers = (
{
anchors = (
{
name = bottom;
pos = (285,0);
},
{
name = top;
pos = (285,700);
},
{
name = topleft;
pos = (30,700);
}
);
layerId = m01;
shapes = (
{
closed = 1;
nodes = (
(482,70,o),
(474,102,c),
(474,109,o),
(475,116,o),
(477,123,cs),
(485,147,o),
(482,177,o),
(478,202,c),
(478,221,o),
(453,208,o),
(447,199,cs),
(445,197,o),
(447,191,o),
(447,187,cs),
(447,152,o),
(445,53,o),
(444,39,c),
(438,36,o),
(432,35,o),
(426,35,cs),
(418,35,o),
(358,36,o),
(348,35,c),
(335,35,o),
(323,45,o),
(310,45,cs),
(308,45,o),
(306,44,o),
(304,44,cs),
(298,43,o),
(285,62,o),
(289,68,cs),
(293,73,o),
(294,79,o),
(294,85,cs),
(294,90,o),
(293,95,o),
(293,100,cs),
(294,112,o),
(294,201,o),
(294,289,cs),
(294,304,o),
(295,315,o),
(311,323,cs),
(323,328,o),
(336,339,o),
(342,351,cs),
(349,366,o),
(416,433,o),
(440,455,cs),
(455,468,o),
(463,487,o),
(476,501,cs),
(479,504,o),
(480,511,o),
(480,516,cs),
(480,535,o),
(480,652,o),
(480,689,cs),
(480,707,o),
(447,700,o),
(447,680,cs),
(445,638,o),
(447,600,o),
(447,558,cs),
(447,551,o),
(448,544,o),
(454,538,cs),
(455,537,o),
(455,533,o),
(454,531,cs),
(446,509,o),
(438,505,o),
(421,488,cs),
(414,479,o),
(410,469,o),
(402,461,cs),
(367,424,o),
(330,388,o),
(294,352,cs),
(288,346,o),
(283,346,o),
(276,352,cs),
(219,406,o),
(169,467,o),
(105,515,cs),
(99,519,o),
(98,526,o),
(98,533,cs),
(98,659,ls),
(98,666,o),
(98,673,o),
(103,679,cs),
(104,680,o),
(104,684,o),
(102,685,c),
(97,691,o),
(85,702,o),
(80,697,cs),
(75,693,o),
(72,687,o),
(72,679,cs),
(72,665,o),
(72,548,o),
(70,537,cs),
(70,536,o),
(70,535,o),
(70,534,cs),
(70,525,o),
(73,504,o),
(77,500,cs),
(91,489,o),
(100,472,o),
(118,465,cs),
(124,463,o),
(129,456,o),
(132,450,cs),
(141,432,o),
(156,418,o),
(172,408,cs),
(187,399,o),
(198,387,o),
(208,374,cs),
(211,371,o),
(212,366,o),
(215,365,cs),
(234,357,o),
(244,338,o),
(259,326,cs),
(270,318,o),
(271,305,o),
(267,296,c),
(259,245,l),
(259,238,o),
(261,231,o),
(267,225,c),
(268,223,o),
(268,218,o),
(267,217,cs),
(261,211,o),
(259,204,o),
(259,196,cs),
(259,174,o),
(260,60,o),
(259,46,cs),
(259,40,o),
(258,35,o),
(250,35,cs),
(118,35,ls),
(109,35,o),
(107,38,o),
(106,48,cs),
(106,115,o),
(106,152,o),
(107,188,cs),
(107,216,o),
(81,218,o),
(81,205,c),
(81,80,o),
(80,71,o),
(73,63,cs),
(71,61,o),
(71,53,o),
(73,51,cs),
(80,41,o),
(81,31,o),
(81,19,cs),
(82,9,o),
(91,1,o),
(101,1,cs),
(194,1,ls),
(234,1,o),
(335,1,o),
(368,1,cs),
(448,1,ls),
(466,1,o),
(481,19,o),
(481,34,cs),
(481,35,o)
);
},
{
closed = 1;
nodes = (
(284,492,o),
(303,506,cs),
(307,509,o),
(309,515,o),
(310,520,cs),
(312,526,o),
(310,531,o),
(306,535,cs),
(298,544,o),
(271,557,o),
(262,548,c),
(258,541,o),
(253,534,o),
(252,526,cs),
(252,521,o),
(258,514,o),
(260,508,cs),
(263,492,o)
);
}
);
width = 552;
}
);
unicode = 89;
},
{
glyphname = Z;
lastChange = "2023-10-14 12:07:23 +0000";
layers = (
{
anchors = (
{
name = bottom;
pos = (313,0);
},
{
name = center;
pos = (313,350);
},
{
name = top;
pos = (313,700);
}
);
layerId = m01;
shapes = (
{
closed = 1;
nodes = (
(450,3,l),
(462,3,o),
(471,11,o),
(471,22,cs),
(471,25,l),
(471,339,ls),
(471,342,o),
(471,344,o),
(470,347,cs),
(469,349,o),
(466,350,o),
(463,351,cs),
(453,352,o),
(442,349,o),
(439,340,cs),
(431,320,o),
(414,304,o),
(411,283,cs),
(411,280,o),
(408,276,o),
(405,273,cs),
(395,266,o),
(392,255,o),
(386,245,cs),
(367,211,o),
(273,56,o),
(260,45,c),
(255,34,o),
(252,33,o),
(243,33,cs),
(140,33,ls),
(122,33,o),
(122,34,o),
(128,50,cs),
(134,67,o),
(160,89,o),
(163,108,cs),
(166,122,o),
(189,169,o),
(199,178,cs),
(205,185,o),
(208,194,o),
(211,202,cs),
(212,206,o),
(212,211,o),
(217,215,cs),
(227,222,o),
(242,265,o),
(245,277,cs),
(248,289,o),
(350,472,o),
(361,481,cs),
(374,492,o),
(370,507,o),
(380,517,cs),
(390,529,o),
(406,576,o),
(418,585,cs),
(427,593,o),
(425,606,o),
(431,616,cs),
(441,631,o),
(449,649,o),
(459,665,cs),
(463,672,o),
(475,680,o),
(470,686,cs),
(465,692,o),
(454,695,o),
(445,698,cs),
(438,700,o),
(432,698,o),
(425,698,cs),
(97,698,ls),
(79,698,o),
(71,692,o),
(71,676,cs),
(71,574,ls),
(71,565,o),
(68,533,o),
(74,520,c),
(68,509,o),
(71,467,o),
(71,459,cs),
(71,364,ls),
(71,359,o),
(69,353,o),
(71,349,cs),
(72,346,o),
(80,343,o),
(82,344,cs),
(92,351,o),
(101,358,o),
(106,369,cs),
(117,391,o),
(135,412,o),
(141,437,cs),
(145,453,o),
(172,478,o),
(174,493,cs),
(175,500,o),
(178,507,o),
(183,513,cs),
(202,533,o),
(249,622,o),
(263,646,cs),
(266,651,o),
(273,654,o),
(278,659,c),
(291,659,o),
(301,667,o),
(312,667,cs),
(316,667,o),
(349,667,o),
(358,667,cs),
(367,667,o),
(365,666,o),
(394,659,c),
(396,660,o),
(398,666,o),
(401,667,cs),
(409,670,o),
(426,664,o),
(421,654,cs),
(394,607,o),
(302,441,o),
(296,428,cs),
(287,409,o),
(278,389,o),
(262,374,cs),
(258,370,o),
(254,363,o),
(254,359,cs),
(254,348,o),
(226,291,o),
(207,273,c),
(203,239,o),
(99,72,o),
(79,50,cs),
(70,41,o),
(66,29,o),
(61,17,cs),
(58,11,o),
(63,3,o),
(70,3,cs)
);
},
{
closed = 1;
nodes = (
(442,49,o),
(443,40,o),
(439,33,c),
(380,28,o),
(369,34,o),
(315,32,cs),
(301,31,o),
(300,35,o),
(305,46,cs),
(320,75,o),
(439,272,o),
(442,272,c)
);
},
{
closed = 1;
nodes = (
(98,449,o),
(94,458,o),
(102,467,c),
(94,493,o),
(97,499,o),
(103,521,c),
(97,553,o),
(98,557,o),
(96,561,cs),
(94,567,o),
(106,570,o),
(103,577,c),
(94,596,o),
(99,625,o),
(99,647,cs),
(99,651,o),
(100,658,o),
(103,660,cs),
(108,665,o),
(114,668,o),
(123,669,cs),
(127,670,o),
(131,658,o),
(139,666,cs),
(145,672,o),
(174,656,o),
(178,660,cs),
(196,672,o),
(230,672,o),
(239,665,c),
(235,657,o),
(231,651,o),
(226,646,cs),
(215,630,o),
(204,614,o),
(199,593,cs),
(198,589,o),
(195,586,o),
(191,581,cs),
(167,552,o),
(158,518,o),
(135,489,cs),
(128,483,o),
(131,475,o),
(127,468,cs),
(120,453,o),
(111,437,o),
(103,422,cs),
(99,413,o),
(97,427,o),
(97,441,cs)
);
}
);
width = 542;
}
);
unicode = 90;
},
{
glyphname = a;
lastChange = "2023-10-14 12:04:32 +0000";
layers = (
{
anchors = (
{
name = bottom;
pos = (246,5);
},
{
name = ogonek;
pos = (425,32);
},
{
name = top;
pos = (276,495);
}
);
layerId = m01;
shapes = (
{
closed = 1;
nodes = (
(290,154,o),
(268,151,o),
(272,127,c),
(276,118,o),
(276,104,o),
(289,102,cs),
(293,101,o),
(297,95,o),
(300,96,cs),
(308,98,o),
(324,121,o),
(318,127,cs),
(310,134,o),
(302,142,o),
(294,150,cs)
);
},
{
closed = 1;
nodes = (
(449,267,o),
(449,450,cs),
(449,466,o),
(447,485,o),
(440,490,c),
(435,500,o),
(407,504,o),
(370,498,cs),
(365,497,o),
(200,496,o),
(184,496,cs),
(177,496,o),
(117,498,o),
(111,498,cs),
(98,498,o),
(95,489,o),
(83,486,cs),
(79,485,o),
(78,473,o),
(83,472,c),
(95,469,o),
(107,461,o),
(120,461,cs),
(125,461,o),
(131,462,o),
(136,466,cs),
(146,470,o),
(154,471,o),
(164,471,cs),
(189,470,o),
(208,468,o),
(232,471,cs),
(242,471,o),
(254,473,o),
(261,470,cs),
(273,463,o),
(286,462,o),
(298,462,cs),
(309,462,o),
(382,467,o),
(390,467,cs),
(415,467,o),
(422,433,o),
(422,416,cs),
(422,388,o),
(391,395,o),
(373,375,c),
(368,358,o),
(352,348,o),
(340,337,cs),
(316,316,o),
(293,296,o),
(269,276,cs),
(244,254,o),
(218,239,o),
(194,210,cs),
(175,186,o),
(98,136,o),
(72,104,c),
(56,90,o),
(43,77,o),
(29,67,cs),
(11,54,o),
(0,37,o),
(0,24,cs),
(0,10,o),
(13,-1,o),
(46,-1,cs),
(50,-1,o),
(54,-1,o),
(59,-1,cs),
(78,1,o),
(126,7,o),
(143,-2,c),
(181,16,o),
(266,-4,o),
(305,-4,cs),
(318,-4,o),
(332,-2,o),
(345,-2,cs),
(395,-2,o),
(372,6,o),
(423,4,cs),
(444,3,o),
(448,21,o),
(454,44,c),
(449,56,o),
(448,67,o),
(448,80,cs),
(448,89,o),
(449,98,o),
(449,108,cs),
(458,294,o)
);
},
{
closed = 1;
nodes = (
(425,32,o),
(381,33,o),
(365,33,cs),
(341,32,o),
(316,32,o),
(292,32,cs),
(268,32,o),
(167,40,o),
(142,26,c),
(126,36,o),
(75,31,o),
(62,31,cs),
(38,31,o),
(81,76,o),
(88,82,cs),
(106,98,o),
(200,177,o),
(228,204,cs),
(237,213,o),
(248,225,o),
(258,229,cs),
(294,241,o),
(318,276,o),
(349,299,c),
(364,331,o),
(404,338,o),
(422,367,c),
(417,312,o),
(421,126,o),
(424,71,cs)
);
}
);
width = 524;
}
);
unicode = 97;
},
{
glyphname = ae;
lastChange = "2023-10-14 12:18:35 +0000";
layers = (
{
layerId = m01;
shapes = (
{
closed = 1;
nodes = (
(670,265,o),
(678,240,o),
(697,224,cs),
(705,217,o),
(712,208,o),
(722,206,cs),
(746,199,o),
(777,166,o),
(798,152,cs),
(806,146,o),
(815,148,o),
(824,154,cs),
(837,164,o),
(827,181,o),
(841,191,c),
(833,197,o),
(833,228,o),
(833,235,cs),
(833,357,o),
(832,329,o),
(832,451,cs),
(832,463,o),
(830,491,o),
(806,491,cs),
(420,496,o),
(226,494,o),
(113,494,cs),
(98,494,o),
(90,486,o),
(77,482,cs),
(73,481,o),
(73,466,o),
(77,464,cs),
(89,459,o),
(101,451,o),
(115,451,cs),
(120,451,o),
(125,452,o),
(131,456,cs),
(153,467,o),
(200,458,o),
(226,461,cs),
(236,461,o),
(248,464,o),
(255,461,cs),
(276,450,o),
(324,453,o),
(342,451,c),
(354,459,o),
(365,460,o),
(376,460,cs),
(385,460,o),
(400,460,o),
(408,461,c),
(408,449,o),
(411,428,o),
(414,420,cs),
(416,412,o),
(413,407,o),
(414,402,c),
(401,396,o),
(385,382,o),
(371,379,c),
(362,359,o),
(347,349,o),
(334,338,cs),
(310,318,o),
(287,298,o),
(264,278,cs),
(239,257,o),
(212,243,o),
(189,214,cs),
(169,191,o),
(92,134,o),
(66,102,c),
(50,88,o),
(39,74,o),
(26,62,cs),
(-22,17,o),
(6,-5,o),
(36,-5,cs),
(41,-5,o),
(47,-4,o),
(53,0,cs),
(63,4,o),
(72,5,o),
(83,5,cs),
(91,5,o),
(127,5,o),
(137,0,c),
(166,13,o),
(197,5,o),
(229,5,cs),
(239,5,o),
(252,8,o),
(260,5,cs),
(277,-3,o),
(295,-5,o),
(312,-5,cs),
(326,-5,o),
(339,-4,o),
(352,-4,c),
(366,4,o),
(382,5,o),
(398,5,cs),
(559,10,o),
(348,5,o),
(647,5,cs),
(655,5,o),
(690,5,o),
(698,-4,c),
(704,-4,o),
(724,-6,o),
(732,0,cs),
(744,6,o),
(751,5,o),
(760,-4,c),
(762,-5,o),
(769,-4,o),
(772,0,cs),
(780,8,o),
(786,4,o),
(792,0,c),
(819,6,o),
(848,35,o),
(804,35,cs),
(575,35,ls),
(566,35,o),
(556,33,o),
(549,36,cs),
(526,48,o),
(521,48,o),
(496,39,c),
(475,54,o),
(473,34,o),
(457,34,cs),
(444,34,o),
(443,75,o),
(443,98,cs),
(443,134,o),
(449,196,o),
(449,226,cs),
(449,293,o),
(450,310,o),
(450,326,cs),
(450,340,o),
(443,354,o),
(443,366,cs),
(443,369,o),
(443,371,o),
(444,375,cs),
(449,391,o),
(443,403,o),
(443,421,cs),
(443,428,o),
(443,436,o),
(442,442,c),
(464,426,o),
(523,374,o),
(544,356,cs),
(576,328,o),
(617,306,o),
(639,272,c)
);
},
{
closed = 1;
nodes = (
(412,42,o),
(407,43,o),
(399,45,c),
(392,39,o),
(365,38,o),
(359,38,cs),
(259,38,o),
(273,36,o),
(169,39,cs),
(158,39,o),
(147,37,o),
(136,32,c),
(116,43,o),
(101,35,o),
(79,38,cs),
(69,38,o),
(61,37,o),
(53,37,c),
(56,41,o),
(60,45,o),
(63,51,cs),
(70,63,o),
(200,179,o),
(228,206,cs),
(237,215,o),
(248,227,o),
(258,230,cs),
(294,243,o),
(319,277,o),
(349,299,c),
(366,333,o),
(395,337,o),
(414,368,c),
(414,355,o),
(414,341,o),
(417,329,cs),
(423,301,o),
(417,286,o),
(417,257,cs),
(417,175,o),
(417,88,o),
(417,69,cs),
(417,59,o),
(417,51,o),
(417,41,c)
);
},
{
closed = 1;
nodes = (
(524,407,o),
(516,415,o),
(511,423,cs),
(504,435,o),
(495,443,o),
(484,451,c),
(494,451,ls),
(504,451,o),
(515,450,o),
(525,450,cs),
(563,451,o),
(572,463,o),
(610,451,c),
(673,451,ls),
(698,451,o),
(698,470,o),
(727,457,cs),
(732,455,o),
(738,451,o),
(744,451,cs),
(798,451,l),
(798,216,l),
(785,204,o),
(772,224,o),
(752,230,cs),
(738,235,o),
(743,249,o),
(729,249,c),
(666,306,o),
(656,310,o),
(648,315,cs),
(635,320,o),
(633,335,o),
(617,337,c),
(597,366,o),
(568,386,o),
(534,402,cs)
);
},
{
closed = 1;
nodes = (
(560,201,o),
(560,186,cs),
(560,173,o),
(549,175,o),
(556,165,cs),
(566,151,ls),
(570,145,o),
(587,145,o),
(590,150,cs),
(600,165,ls),
(602,169,o),
(603,171,o),
(603,175,cs),
(603,183,o),
(598,193,o),
(590,196,cs),
(582,198,o)
);
}
);
width = 841;
}
);
unicode = 230;
},
{
glyphname = b;
lastChange = "2023-10-12 12:59:35 +0000";
layers = (
{
anchors = (
{
name = bottom;
pos = (260,17);
},
{
name = center;
pos = (255,250);
},
{
name = top;
pos = (260,500);
}
);
layerId = m01;
shapes = (
{
closed = 1;
nodes = (
(70,35,l),
(70,30,o),
(69,23,o),
(70,18,cs),
(70,15,o),
(73,5,o),
(99,5,cs),
(107,5,o),
(117,6,o),
(131,9,c),
(141,9,o),
(152,4,o),
(163,12,cs),
(168,16,o),
(177,12,o),
(185,12,cs),
(404,8,ls),
(412,8,o),
(417,7,o),
(425,8,cs),
(433,8,o),
(441,18,o),
(441,27,cs),
(441,73,o),
(442,184,o),
(442,230,cs),
(442,237,o),
(430,242,o),
(439,251,cs),
(445,258,o),
(436,263,o),
(436,269,cs),
(436,300,o),
(435,330,o),
(435,361,c),
(441,369,o),
(444,377,o),
(436,386,c),
(440,394,o),
(445,402,o),
(436,411,c),
(439,415,o),
(440,420,o),
(440,425,cs),
(440,440,o),
(433,459,o),
(433,471,cs),
(433,475,l),
(435,484,o),
(425,493,o),
(417,494,c),
(119,495,l),
(101,497,o),
(103,528,o),
(104,654,c),
(104,660,o),
(102,700,o),
(97,700,cs),
(73,700,o),
(73,691,o),
(73,665,c)
);
},
{
closed = 1;
nodes = (
(105,423,cs),
(105,447,o),
(108,461,o),
(154,461,cs),
(171,461,o),
(163,460,o),
(180,460,cs),
(372,460,ls),
(380,460,o),
(389,461,o),
(398,460,c),
(401,459,o),
(404,456,o),
(404,451,cs),
(404,418,o),
(403,408,o),
(404,403,cs),
(406,392,o),
(419,373,o),
(412,364,cs),
(408,357,o),
(408,351,o),
(412,343,c),
(400,332,o),
(407,315,o),
(404,299,cs),
(403,290,o),
(410,284,o),
(412,276,c),
(402,266,o),
(417,258,o),
(412,247,cs),
(409,238,o),
(412,227,o),
(412,52,cs),
(412,46,o),
(411,42,o),
(404,42,cs),
(394,42,o),
(383,41,o),
(373,41,cs),
(154,45,ls),
(145,45,o),
(117,50,o),
(108,44,cs),
(103,40,o),
(105,305,o)
);
},
{
closed = 1;
nodes = (
(245,229,ls),
(255,219,o),
(271,231,o),
(278,240,cs),
(281,243,o),
(282,247,o),
(282,251,cs),
(282,259,o),
(276,268,o),
(269,271,cs),
(265,272,o),
(261,272,o),
(260,272,cs),
(248,272,o),
(239,273,o),
(239,260,cs),
(239,258,o),
(236,256,o),
(234,254,cs),
(230,249,o),
(230,244,o),
(235,239,cs)
);
}
);
width = 512;
}
);
unicode = 98;
},
{
glyphname = c;
lastChange = "2023-10-12 13:01:38 +0000";
layers = (
{
anchors = (
{
name = bottom;
pos = (301,1);
},
{
name = top;
pos = (301,500);
}
);
layerId = m01;
shapes = (
{
closed = 1;
nodes = (
(468,-6,o),
(468,17,cs),
(468,21,o),
(467,25,o),
(465,32,cs),
(463,40,o),
(452,36,o),
(445,36,cs),
(369,36,o),
(293,33,o),
(217,33,cs),
(208,33,o),
(198,30,o),
(190,33,cs),
(172,42,o),
(156,47,o),
(141,34,c),
(127,44,o),
(118,45,o),
(105,34,cs),
(95,26,o),
(83,47,o),
(83,54,cs),
(83,75,o),
(84,84,o),
(90,92,cs),
(97,101,o),
(86,111,o),
(84,120,c),
(84,134,o),
(95,142,o),
(90,153,cs),
(86,161,o),
(79,224,o),
(87,234,cs),
(94,243,o),
(82,248,o),
(82,258,cs),
(82,292,o),
(83,326,o),
(83,361,cs),
(83,366,o),
(84,372,o),
(87,377,cs),
(91,382,o),
(87,384,o),
(86,388,cs),
(79,413,o),
(84,431,o),
(84,457,c),
(91,461,o),
(98,461,o),
(106,461,cs),
(170,461,ls),
(204,461,o),
(227,483,o),
(252,461,c),
(315,461,ls),
(350,461,o),
(340,486,o),
(369,466,cs),
(374,463,o),
(380,461,o),
(386,461,cs),
(448,461,ls),
(456,461,o),
(466,470,o),
(468,477,cs),
(470,485,o),
(458,497,o),
(448,497,cs),
(76,497,ls),
(62,497,o),
(61,492,o),
(52,484,c),
(51,484,o),
(49,471,o),
(50,470,cs),
(56,461,o),
(56,450,o),
(56,441,cs),
(56,41,o),
(55,32,o),
(56,23,cs),
(56,16,o),
(67,5,o),
(73,5,cs),
(81,4,o),
(88,5,o),
(96,5,c),
(323,5,o),
(386,9,o),
(395,2,cs),
(397,0,o),
(411,2,o),
(414,5,cs),
(431,22,o)
);
},
{
closed = 1;
nodes = (
(267,318,o),
(252,303,o),
(248,296,cs),
(240,287,o),
(243,276,o),
(245,267,cs),
(247,259,o),
(276,260,o),
(282,261,cs),
(288,261,o),
(290,274,o),
(290,282,cs),
(290,296,o),
(285,308,o),
(275,313,cs)
);
}
);
width = 478;
}
);
unicode = 99;
},
{
glyphname = d;
lastChange = "2023-10-12 12:59:35 +0000";
layers = (
{
anchors = (
{
name = bottom;
pos = (246,0);
},
{
name = center;
pos = (246,250);
},
{
name = top;
pos = (246,800);
},
{
name = topright;
pos = (502,800);
}
);
layerId = m01;
shapes = (
{
closed = 1;
nodes = (
(439,665,l),
(439,691,o),
(439,700,o),
(415,700,cs),
(410,700,o),
(408,660,o),
(408,654,c),
(409,541,l),
(409,529,o),
(411,498,o),
(393,496,c),
(95,495,l),
(87,494,o),
(77,485,o),
(79,476,c),
(79,460,o),
(72,441,o),
(72,426,cs),
(72,421,o),
(73,416,o),
(76,412,c),
(67,403,o),
(72,395,o),
(76,387,c),
(68,378,o),
(71,370,o),
(77,362,c),
(77,331,o),
(76,301,o),
(76,270,cs),
(76,264,o),
(67,259,o),
(73,252,cs),
(82,243,o),
(70,238,o),
(70,231,cs),
(70,185,o),
(71,73,o),
(71,27,cs),
(71,18,o),
(79,8,o),
(87,8,cs),
(95,7,o),
(100,8,o),
(108,8,cs),
(327,9,ls),
(335,9,o),
(344,13,o),
(349,9,cs),
(360,1,o),
(405,5,o),
(413,5,cs),
(439,5,o),
(442,15,o),
(442,18,cs),
(443,23,o),
(442,30,o),
(442,35,c)
);
},
{
closed = 1;
nodes = (
(407,306,o),
(409,40,o),
(404,44,cs),
(395,50,o),
(367,42,o),
(358,42,cs),
(139,41,ls),
(129,41,o),
(118,42,o),
(108,42,cs),
(101,42,o),
(100,46,o),
(100,52,cs),
(100,219,ls),
(100,228,o),
(103,239,o),
(100,248,cs),
(95,259,o),
(109,291,o),
(108,300,cs),
(105,316,o),
(112,333,o),
(100,344,c),
(104,352,o),
(104,358,o),
(100,365,cs),
(93,374,o),
(106,393,o),
(108,404,cs),
(109,409,o),
(108,419,o),
(108,452,cs),
(108,457,o),
(111,460,o),
(114,461,c),
(123,462,o),
(132,461,o),
(140,461,cs),
(349,461,o),
(341,462,o),
(358,462,cs),
(404,462,o),
(407,448,o),
(407,424,cs),
(407,410,ls)
);
},
{
closed = 1;
nodes = (
(276,247,o),
(264,249,o),
(264,260,cs),
(264,274,o),
(244,273,o),
(234,271,cs),
(227,268,o),
(221,259,o),
(221,251,cs),
(221,247,o),
(222,243,o),
(225,240,cs),
(232,231,o),
(248,219,o),
(258,229,cs),
(268,239,ls)
);
}
);
width = 512;
}
);
unicode = 100;
},
{
glyphname = eth;
lastChange = "2023-10-14 12:26:48 +0000";
layers = (
{
layerId = m01;
shapes = (
{
closed = 1;
nodes = (
(431,-5,o),
(447,-3,o),
(463,8,cs),
(466,10,o),
(466,18,o),
(466,23,cs),
(466,159,o),
(463,305,o),
(463,441,cs),
(463,488,ls),
(463,502,o),
(447,522,o),
(425,536,cs),
(357,581,o),
(310,598,o),
(226,667,cs),
(218,674,o),
(237,690,o),
(246,693,cs),
(265,700,o),
(268,719,o),
(274,735,cs),
(275,740,o),
(264,750,o),
(260,747,cs),
(258,745,o),
(253,749,o),
(249,749,c),
(237,742,o),
(208,702,o),
(200,691,c),
(177,711,o),
(173,713,o),
(166,720,cs),
(154,730,o),
(142,728,o),
(130,734,cs),
(126,737,o),
(115,726,o),
(117,721,cs),
(123,712,o),
(137,700,o),
(152,688,cs),
(161,680,o),
(171,672,o),
(179,667,c),
(153,641,o),
(139,626,o),
(114,599,c),
(119,593,o),
(125,590,o),
(133,591,cs),
(142,592,o),
(153,597,o),
(164,607,cs),
(178,619,o),
(191,635,o),
(202,647,c),
(241,615,o),
(273,596,o),
(313,570,cs),
(425,497,l),
(352,497,o),
(227,502,o),
(148,502,cs),
(109,502,o),
(79,501,o),
(73,498,c),
(72,497,o),
(71,488,o),
(70,488,c),
(70,405,o),
(73,270,o),
(73,26,cs),
(73,14,o),
(82,4,o),
(94,4,cs),
(152,4,ls),
(164,4,o),
(195,6,o),
(205,0,cs),
(216,-7,o),
(221,4,o),
(231,4,cs),
(327,4,ls),
(335,4,o),
(344,1,o),
(352,4,cs),
(361,7,o),
(368,-9,o),
(377,4,c),
(386,-2,o),
(396,-5,o),
(406,-5,cs)
);
},
{
closed = 1;
nodes = (
(273,30,o),
(263,28,o),
(254,35,cs),
(251,37,o),
(242,30,o),
(237,31,cs),
(231,33,o),
(226,39,o),
(220,32,cs),
(218,30,o),
(213,30,o),
(212,31,cs),
(205,37,o),
(197,38,o),
(189,38,cs),
(108,38,l),
(102,39,o),
(98,46,o),
(102,50,c),
(107,58,o),
(106,65,o),
(106,74,cs),
(106,203,ls),
(106,212,o),
(106,219,o),
(100,226,cs),
(98,228,o),
(99,234,o),
(101,237,cs),
(106,244,o),
(108,251,o),
(108,258,cs),
(108,265,o),
(106,271,o),
(104,277,cs),
(99,287,o),
(98,294,o),
(106,302,c),
(107,304,o),
(106,308,o),
(105,310,c),
(100,316,o),
(97,327,o),
(97,339,cs),
(97,351,o),
(100,420,o),
(105,425,c),
(106,427,o),
(105,434,o),
(103,436,cs),
(98,442,o),
(99,449,o),
(98,456,cs),
(97,461,o),
(101,467,o),
(103,472,c),
(110,473,o),
(118,473,o),
(126,472,cs),
(223,464,l),
(253,464,ls),
(313,464,o),
(374,461,o),
(427,461,cs),
(432,461,o),
(437,346,o),
(437,306,cs),
(437,286,o),
(436,270,o),
(433,234,cs),
(433,201,o),
(435,165,o),
(435,131,cs),
(435,91,o),
(433,92,o),
(433,52,cs),
(433,45,o),
(432,38,o),
(428,31,c),
(413,31,o),
(398,30,o),
(382,30,cs),
(282,30,ls)
);
},
{
closed = 1;
nodes = (
(271,236,o),
(274,235,o),
(276,236,cs),
(281,240,o),
(288,244,o),
(291,249,c),
(294,257,o),
(295,268,o),
(288,275,cs),
(284,280,o),
(277,283,o),
(271,285,c),
(269,285,o),
(265,278,o),
(261,278,cs),
(247,278,o),
(250,262,o),
(243,255,c),
(241,254,o),
(244,248,o),
(247,244,cs),
(251,237,o),
(259,236,o),
(269,236,cs)
);
}
);
width = 536;
}
);
unicode = 240;
},
{
glyphname = e;
lastChange = "2023-10-12 13:02:09 +0000";
layers = (
{
anchors = (
{
name = bottom;
pos = (282,12);
},
{
name = ogonek;
pos = (474,36);
},
{
name = top;
pos = (286,500);
}
);
layerId = m01;
shapes = (
{
closed = 1;
nodes = (
(333,292,o),
(341,270,o),
(360,255,cs),
(368,249,o),
(375,241,o),
(385,238,cs),
(405,234,o),
(451,197,o),
(462,190,cs),
(470,184,o),
(478,187,o),
(487,192,cs),
(500,201,o),
(490,216,o),
(504,225,c),
(496,231,o),
(495,239,o),
(495,246,cs),
(495,252,o),
(495,356,o),
(495,462,cs),
(495,473,o),
(492,496,o),
(470,496,cs),
(104,498,l),
(97,496,ls),
(86,493,o),
(78,482,o),
(70,475,c),
(76,406,l),
(77,307,o),
(76,36,o),
(77,27,cs),
(77,20,o),
(88,10,o),
(94,10,cs),
(106,8,o),
(322,10,o),
(334,10,cs),
(367,10,o),
(360,0,o),
(395,3,cs),
(408,4,o),
(414,9,o),
(423,2,cs),
(425,0,o),
(432,2,o),
(435,5,cs),
(443,13,o),
(449,8,o),
(455,4,c),
(471,7,o),
(489,5,o),
(489,21,c),
(487,32,l),
(484,40,o),
(474,36,o),
(467,36,cs),
(238,36,ls),
(229,36,o),
(219,34,o),
(212,37,cs),
(202,42,o),
(193,46,o),
(183,46,c),
(162,38,l),
(148,49,o),
(138,47,o),
(127,38,cs),
(121,34,o),
(115,37,o),
(112,42,c),
(104,68,o),
(105,87,o),
(112,96,cs),
(118,105,o),
(105,170,o),
(105,182,cs),
(105,190,o),
(114,197,o),
(114,206,c),
(107,220,o),
(100,226,o),
(108,236,cs),
(115,244,o),
(103,250,o),
(103,259,cs),
(104,276,o),
(104,294,o),
(104,362,cs),
(104,368,o),
(106,374,o),
(109,379,cs),
(112,384,o),
(108,386,o),
(107,390,cs),
(101,408,o),
(103,429,o),
(105,448,c),
(139,424,o),
(174,399,o),
(207,374,cs),
(239,349,o),
(280,329,o),
(302,298,c)
);
},
{
closed = 1;
nodes = (
(186,421,o),
(155,450,o),
(155,458,c),
(191,460,ls),
(225,462,o),
(248,482,o),
(273,460,c),
(336,460,ls),
(367,460,o),
(364,483,o),
(390,465,cs),
(395,462,o),
(401,460,o),
(407,460,cs),
(461,460,l),
(461,389,o),
(461,319,o),
(460,248,cs),
(460,233,o),
(460,240,o),
(446,243,c),
(436,249,o),
(427,259,o),
(415,260,cs),
(401,263,o),
(406,278,o),
(392,278,cs),
(368,292,o),
(343,303,o),
(332,324,cs),
(329,329,o),
(319,333,o),
(311,336,cs),
(298,342,o),
(296,355,o),
(280,356,c),
(260,382,o),
(231,401,o),
(197,416,cs)
);
},
{
closed = 1;
nodes = (
(255,221,o),
(241,221,cs),
(213,221,o),
(207,179,o),
(234,173,cs),
(240,172,o),
(244,169,o),
(248,173,cs),
(265,191,o),
(266,194,o),
(266,198,cs),
(266,213,o)
);
}
);
width = 539;
}
);
unicode = 101;
},
{
glyphname = f;
lastChange = "2023-10-12 12:51:29 +0000";
layers = (
{
anchors = (
{
name = bottom;
pos = (204,0);
},
{
name = top;
pos = (319,740);
}
);
layerId = m01;
shapes = (
{
closed = 1;
nodes = (
(428,621,o),
(426,629,cs),
(425,633,o),
(433,635,o),
(429,642,cs),
(422,655,o),
(434,673,o),
(429,683,cs),
(421,700,o),
(421,700,o),
(406,700,cs),
(319,700,o),
(223,700,o),
(221,698,cs),
(213,691,o),
(213,693,o),
(204,692,cs),
(194,691,o),
(186,682,o),
(186,673,cs),
(186,655,o),
(190,554,o),
(178,538,c),
(185,531,o),
(185,504,o),
(185,481,c),
(47,481,l),
(35,481,ls),
(22,481,o),
(8,462,o),
(14,451,c),
(47,443,l),
(52,445,o),
(58,446,o),
(63,446,cs),
(71,446,o),
(145,446,o),
(156,454,c),
(166,454,o),
(176,455,o),
(185,451,c),
(185,47,ls),
(185,38,o),
(183,36,o),
(172,35,c),
(39,35,ls),
(27,35,o),
(6,29,o),
(11,18,cs),
(19,4,o),
(19,2,o),
(35,2,cs),
(251,2,o),
(278,2,o),
(381,3,c),
(393,18,l),
(396,25,o),
(367,36,o),
(356,36,cs),
(275,35,o),
(308,36,o),
(227,36,cs),
(224,36,o),
(220,41,o),
(219,44,c),
(219,446,l),
(229,446,o),
(240,446,o),
(251,445,cs),
(269,444,o),
(277,468,o),
(300,450,cs),
(309,443,o),
(369,445,o),
(381,446,cs),
(388,446,o),
(397,454,o),
(399,461,cs),
(401,469,o),
(390,481,o),
(381,481,cs),
(369,481,l),
(219,481,l),
(219,649,ls),
(219,654,o),
(212,667,o),
(228,667,c),
(231,661,o),
(238,655,o),
(245,650,cs),
(267,632,o),
(287,603,o),
(297,600,cs),
(313,595,o),
(343,575,o),
(351,558,cs),
(358,545,o),
(372,539,o),
(385,532,cs),
(414,517,o),
(427,508,o),
(424,542,cs),
(424,549,o),
(425,590,o),
(432,602,cs),
(437,609,o)
);
},
{
closed = 1;
nodes = (
(391,572,c),
(365,581,o),
(307,642,o),
(277,667,c),
(352,667,o),
(370,666,o),
(388,666,c),
(393,657,o),
(394,648,o),
(394,639,cs),
(394,631,o),
(393,647,o)
);
}
);
width = 443;
}
);
unicode = 102;
},
{
glyphname = g;
lastChange = "2023-10-12 12:59:35 +0000";
layers = (
{
anchors = (
{
name = bottom;
pos = (261,-183);
},
{
name = top;
pos = (250,439);
}
);
layerId = m01;
shapes = (
{
closed = 1;
nodes = (
(443,286,o),
(443,335,cs),
(443,367,o),
(441,459,o),
(441,489,cs),
(441,493,o),
(439,504,o),
(414,504,cs),
(406,504,o),
(395,503,o),
(375,500,cs),
(367,500,o),
(358,499,o),
(349,493,cs),
(344,489,o),
(335,492,o),
(327,492,cs),
(110,492,ls),
(102,492,o),
(95,492,o),
(87,491,cs),
(79,491,o),
(70,482,o),
(70,473,cs),
(70,427,o),
(72,299,o),
(72,252,cs),
(72,245,o),
(81,240,o),
(72,231,cs),
(66,225,o),
(76,219,o),
(76,213,cs),
(76,183,o),
(79,152,o),
(79,121,c),
(73,113,o),
(68,105,o),
(76,96,c),
(72,88,o),
(67,80,o),
(76,71,c),
(73,67,o),
(70,63,o),
(70,60,cs),
(70,50,o),
(79,40,o),
(79,30,cs),
(79,26,l),
(76,13,o),
(94,3,o),
(102,10,cs),
(108,14,o),
(110,15,o),
(116,21,c),
(381,298,o),
(406,336,o),
(408,337,c),
(408,133,ls),
(408,123,o),
(411,113,o),
(404,103,c),
(406,93,o),
(408,82,o),
(408,72,cs),
(408,62,o),
(409,-149,o),
(408,-155,c),
(386,-151,o),
(393,-149,o),
(372,-156,cs),
(367,-158,o),
(362,-158,o),
(357,-158,cs),
(336,-158,o),
(138,-155,o),
(117,-155,cs),
(108,-155,o),
(97,-156,o),
(89,-160,c),
(71,-165,o),
(77,-187,o),
(98,-187,cs),
(329,-187,ls),
(337,-187,o),
(345,-185,o),
(353,-182,cs),
(359,-180,o),
(365,-178,o),
(371,-178,cs),
(377,-178,o),
(383,-183,o),
(388,-187,cs),
(394,-192,o),
(409,-181,o),
(412,-187,c),
(438,-188,ls),
(450,-188,o)
);
},
{
closed = 1;
nodes = (
(376,353,l),
(365,342,o),
(354,331,o),
(350,315,cs),
(347,307,o),
(187,140,o),
(113,66,cs),
(108,61,l),
(106,86,o),
(96,110,o),
(101,118,cs),
(106,125,o),
(106,132,o),
(102,139,c),
(109,145,o),
(108,154,o),
(108,162,cs),
(108,184,o),
(109,178,o),
(102,206,c),
(112,216,o),
(96,224,o),
(100,235,cs),
(103,244,o),
(100,255,o),
(100,447,cs),
(100,453,o),
(103,458,o),
(109,458,cs),
(358,458,ls),
(367,458,o),
(376,459,o),
(385,465,c),
(390,470,o),
(405,465,o),
(408,465,c),
(408,390,l)
);
},
{
closed = 1;
nodes = (
(229,381,o),
(213,357,c),
(210,354,o),
(209,350,o),
(209,347,cs),
(209,338,o),
(215,329,o),
(223,326,cs),
(236,322,o),
(252,324,o),
(252,337,c),
(261,348,o),
(261,353,o),
(256,358,cs),
(238,381,o)
);
}
);
width = 515;
}
);
unicode = 103;
},
{
glyphname = h;
lastChange = "2023-10-12 12:59:35 +0000";
layers = (
{
anchors = (
{
name = bottom;
pos = (313,0);
},
{
name = center;
pos = (313,400);
},
{
name = top;
pos = (157,700);
}
);
layerId = m01;
shapes = (
{
closed = 1;
nodes = (
(483,441,o),
(483,449,o),
(483,458,cs),
(483,480,ls),
(483,502,o),
(472,491,o),
(466,497,cs),
(463,500,o),
(454,497,o),
(444,497,cs),
(118,497,ls),
(108,497,o),
(105,499,o),
(105,509,c),
(105,651,ls),
(105,679,o),
(100,668,o),
(100,697,c),
(91,697,o),
(84,698,o),
(80,694,c),
(79,685,o),
(71,676,o),
(71,666,cs),
(71,654,o),
(87,653,o),
(75,636,c),
(67,625,o),
(80,619,o),
(80,605,cs),
(80,574,ls),
(80,544,o),
(71,515,o),
(71,487,cs),
(71,478,o),
(81,461,o),
(80,459,cs),
(71,447,o),
(71,435,o),
(71,422,cs),
(71,417,o),
(71,409,o),
(74,406,cs),
(81,397,o),
(80,387,o),
(80,152,cs),
(80,146,o),
(83,139,o),
(80,135,cs),
(74,128,o),
(71,119,o),
(71,111,cs),
(70,39,o),
(70,36,o),
(71,33,cs),
(73,21,o),
(79,19,o),
(95,3,c),
(98,6,ls),
(153,61,o),
(300,266,o),
(351,315,cs),
(377,339,o),
(443,441,o),
(457,454,c),
(457,20,l),
(458,16,o),
(459,12,o),
(461,9,cs),
(475,-8,o),
(483,0,o),
(483,12,cs),
(483,394,ls),
(483,403,o),
(480,413,o),
(488,422,c)
);
},
{
closed = 1;
nodes = (
(282,266,o),
(243,242,cs),
(213,223,o),
(141,100,o),
(105,58,c),
(105,76,o),
(106,74,o),
(106,86,cs),
(106,94,o),
(104,102,o),
(98,109,c),
(105,119,o),
(107,129,o),
(107,139,cs),
(107,150,o),
(105,161,o),
(105,171,cs),
(105,294,o),
(106,392,o),
(106,452,cs),
(106,459,o),
(109,462,o),
(116,463,cs),
(160,471,o),
(190,458,o),
(238,471,cs),
(248,474,o),
(252,461,o),
(261,463,cs),
(268,465,o),
(275,473,o),
(282,463,c),
(316,464,l),
(326,456,o),
(386,472,o),
(406,467,c),
(416,462,o),
(414,474,o),
(432,471,c),
(412,456,o)
);
}
);
width = 558;
}
);
unicode = 104;
},
{
glyphname = i;
lastChange = "2023-10-24 16:36:13 +0000";
layers = (
{
anchors = (
{
name = bottom;
pos = (167,0);
},
{
name = top;
pos = (167,500);
}
);
layerId = m01;
shapes = (
{
closed = 1;
nodes = (
(199,34,ls),
(184,34,o),
(181,37,o),
(181,53,cs),
(181,436,ls),
(181,452,o),
(189,467,o),
(205,467,c),
(240,460,l),
(245,460,o),
(251,462,o),
(257,467,c),
(262,465,o),
(268,463,o),
(275,463,cs),
(297,463,o),
(324,473,o),
(324,482,cs),
(324,490,o),
(320,498,o),
(315,499,c),
(30,499,ls),
(21,499,o),
(13,493,o),
(10,484,cs),
(9,481,o),
(17,473,o),
(22,470,cs),
(28,467,o),
(42,468,o),
(47,468,cs),
(64,468,o),
(88,471,o),
(110,471,cs),
(122,471,o),
(133,470,o),
(141,467,cs),
(148,465,o),
(150,451,o),
(150,441,cs),
(150,119,ls),
(150,110,o),
(146,103,o),
(143,94,cs),
(137,77,o),
(135,59,o),
(145,44,cs),
(150,37,o),
(145,35,o),
(141,35,cs),
(81,34,o),
(33,35,o),
(24,33,cs),
(21,32,o),
(0,2,o),
(47,2,cs),
(142,2,ls),
(153,2,o),
(187,4,o),
(209,4,cs),
(217,4,o),
(223,4,o),
(244,2,c),
(253,2,o),
(323,5,o),
(324,17,cs),
(325,25,o),
(320,34,o),
(315,34,cs)
);
},
{
closed = 1;
nodes = (
(134,609,o),
(184,619,o),
(186,621,cs),
(191,628,o),
(198,637,o),
(200,647,cs),
(200,654,o),
(194,662,o),
(188,668,c),
(154,672,o),
(152,675,o),
(136,660,cs),
(131,656,o),
(137,650,o),
(137,645,cs)
);
}
);
width = 334;
}
);
unicode = 105;
},
{
glyphname = idieresis;
lastChange = "2023-10-24 16:45:40 +0000";
layers = (
{
anchors = (
{
name = bottom;
pos = (167,0);
},
{
name = top;
pos = (167,500);
}
);
layerId = m01;
shapes = (
{
closed = 1;
nodes = (
(199,34,ls),
(184,34,o),
(181,37,o),
(181,53,cs),
(181,436,ls),
(181,452,o),
(189,467,o),
(205,467,c),
(240,460,l),
(245,460,o),
(251,462,o),
(257,467,c),
(262,465,o),
(268,463,o),
(275,463,cs),
(297,463,o),
(324,473,o),
(324,482,cs),
(324,490,o),
(320,498,o),
(315,499,c),
(30,499,ls),
(21,499,o),
(13,493,o),
(10,484,cs),
(9,481,o),
(17,473,o),
(22,470,cs),
(28,467,o),
(42,468,o),
(47,468,cs),
(64,468,o),
(88,471,o),
(110,471,cs),
(122,471,o),
(133,470,o),
(141,467,cs),
(148,465,o),
(150,451,o),
(150,441,cs),
(150,119,ls),
(150,110,o),
(146,103,o),
(143,94,cs),
(137,77,o),
(135,59,o),
(145,44,cs),
(150,37,o),
(145,35,o),
(141,35,cs),
(81,34,o),
(33,35,o),
(24,33,cs),
(21,32,o),
(0,2,o),
(47,2,cs),
(142,2,ls),
(153,2,o),
(187,4,o),
(209,4,cs),
(217,4,o),
(223,4,o),
(244,2,c),
(253,2,o),
(323,5,o),
(324,17,cs),
(325,25,o),
(320,34,o),
(315,34,cs)
);
},
{
pos = (21,-84);
ref = dieresis;
}
);
width = 334;
}
);
unicode = 239;
},
{
glyphname = imacron;
lastChange = "2023-10-14 12:10:15 +0000";
layers = (
{
layerId = m01;
shapes = (
{
closed = 1;
nodes = (
(118,577,o),
(239,577,o),
(259,577,cs),
(267,577,o),
(273,580,o),
(277,586,cs),
(279,589,o),
(282,596,o),
(281,597,cs),
(278,600,o),
(276,603,o),
(275,606,c),
(263,610,o),
(234,611,o),
(175,611,cs),
(166,611,o),
(158,612,o),
(151,605,c),
(150,603,o),
(145,603,o),
(144,604,cs),
(136,611,o),
(121,614,o),
(104,614,cs),
(64,614,o),
(57,606,o),
(55,591,c),
(55,584,o),
(60,577,o),
(77,577,cs)
);
},
{
closed = 1;
nodes = (
(199,34,ls),
(184,34,o),
(181,37,o),
(181,53,cs),
(181,436,ls),
(181,452,o),
(189,467,o),
(205,467,c),
(240,460,l),
(245,460,o),
(251,462,o),
(257,467,c),
(262,465,o),
(268,463,o),
(275,463,cs),
(297,463,o),
(324,473,o),
(324,482,cs),
(324,490,o),
(320,498,o),
(315,499,c),
(30,499,ls),
(21,499,o),
(13,493,o),
(10,484,cs),
(9,481,o),
(17,473,o),
(22,470,cs),
(28,467,o),
(42,468,o),
(47,468,cs),
(64,468,o),
(88,471,o),
(110,471,cs),
(122,471,o),
(133,470,o),
(141,467,cs),
(148,465,o),
(150,451,o),
(150,441,cs),
(150,119,ls),
(150,110,o),
(146,103,o),
(143,94,cs),
(137,77,o),
(135,59,o),
(145,44,cs),
(150,37,o),
(145,35,o),
(141,35,cs),
(81,34,o),
(33,35,o),
(24,33,cs),
(21,32,o),
(0,2,o),
(47,2,cs),
(142,2,ls),
(153,2,o),
(187,4,o),
(209,4,cs),
(217,4,o),
(223,4,o),
(244,2,c),
(253,2,o),
(323,5,o),
(324,17,cs),
(325,25,o),
(320,34,o),
(315,34,cs)
);
}
);
width = 334;
}
);
unicode = 299;
},
{
glyphname = j;
lastChange = "2023-10-12 13:02:42 +0000";
layers = (
{
layerId = m01;
shapes = (
{
closed = 1;
nodes = (
(295,453,cs),
(295,495,o),
(288,502,o),
(236,498,cs),
(229,497,o),
(223,495,o),
(216,493,cs),
(210,491,o),
(201,497,o),
(194,498,c),
(92,492,o),
(86,488,o),
(84,482,cs),
(82,475,o),
(90,475,o),
(94,472,cs),
(103,466,o),
(111,464,o),
(122,464,cs),
(165,464,o),
(209,464,o),
(253,463,cs),
(255,463,o),
(260,459,o),
(260,456,cs),
(261,448,o),
(261,439,o),
(261,-143,cs),
(261,-148,o),
(264,-171,o),
(247,-161,c),
(244,-154,o),
(240,-149,o),
(233,-143,cs),
(210,-125,o),
(186,-109,o),
(172,-83,cs),
(167,-73,o),
(148,-70,o),
(139,-64,cs),
(133,-61,o),
(136,-53,o),
(125,-50,cs),
(109,-46,o),
(96,-35,o),
(88,-18,cs),
(81,-5,o),
(68,3,o),
(54,9,c),
(39,16,o),
(50,5,o),
(34,21,cs),
(27,28,o),
(8,3,o),
(9,-8,cs),
(9,-15,o),
(8,-57,o),
(1,-70,cs),
(-1,-73,o),
(0,-78,o),
(5,-111,c),
(8,-116,o),
(10,-121,o),
(5,-178,c),
(13,-195,o),
(13,-195,o),
(28,-195,cs),
(115,-195,o),
(267,-197,o),
(276,-196,cs),
(286,-195,o),
(295,-186,o),
(295,-177,cs),
(295,-162,o),
(295,-137,o),
(294,-62,c),
(294,-51,o),
(296,-40,o),
(302,-30,c),
(295,-23,o),
(295,4,o)
);
},
{
closed = 1;
nodes = (
(84,-161,o),
(66,-160,o),
(48,-160,c),
(43,-151,o),
(42,-142,o),
(42,-133,c),
(43,-38,l),
(44,-40,o),
(89,-71,o),
(110,-87,cs),
(141,-111,o),
(171,-136,o),
(201,-161,c)
);
},
{
closed = 1;
nodes = (
(259,591,o),
(267,594,o),
(279,600,cs),
(286,604,o),
(297,620,o),
(297,627,c),
(293,636,o),
(290,645,o),
(284,649,cs),
(279,653,o),
(270,651,o),
(263,650,cs),
(256,650,o),
(247,640,o),
(247,634,cs),
(245,626,o),
(247,609,o),
(251,602,cs)
);
}
);
width = 372;
}
);
unicode = 106;
},
{
glyphname = k;
lastChange = "2023-10-24 16:46:15 +0000";
layers = (
{
anchors = (
{
name = bottom;
pos = (237,0);
},
{
name = top;
pos = (193,797);
}
);
layerId = m01;
shapes = (
{
closed = 1;
nodes = (
(156,159,o),
(164,143,cs),
(167,136,o),
(173,128,o),
(177,128,cs),
(197,130,o),
(202,134,o),
(213,151,cs),
(217,156,o),
(216,164,o),
(212,171,cs),
(207,178,o),
(200,181,o),
(193,181,cs),
(179,181,o)
);
},
{
closed = 1;
nodes = (
(450,22,o),
(441,26,cs),
(438,28,o),
(433,32,o),
(433,36,cs),
(432,45,o),
(426,47,o),
(419,50,cs),
(411,55,o),
(398,82,o),
(390,85,cs),
(372,94,o),
(350,133,o),
(347,134,cs),
(336,138,o),
(329,145,o),
(327,154,cs),
(316,204,o),
(225,316,o),
(225,319,cs),
(223,331,o),
(214,337,o),
(206,344,c),
(231,368,o),
(256,396,o),
(275,425,cs),
(282,434,o),
(291,441,o),
(300,450,cs),
(309,459,o),
(327,481,o),
(337,489,c),
(339,493,o),
(338,490,o),
(335,502,c),
(328,506,o),
(316,508,o),
(303,507,cs),
(236,503,o),
(202,499,o),
(105,502,c),
(105,608,ls),
(105,614,o),
(105,621,o),
(107,625,cs),
(113,633,o),
(114,642,o),
(114,650,c),
(104,693,l),
(96,702,o),
(85,697,o),
(76,697,cs),
(69,697,o),
(70,678,o),
(70,673,cs),
(70,110,o),
(69,100,o),
(77,92,cs),
(79,90,o),
(79,85,o),
(78,84,cs),
(71,77,o),
(70,69,o),
(70,61,cs),
(70,43,o),
(70,32,o),
(70,31,cs),
(70,17,o),
(82,11,o),
(90,3,cs),
(91,2,o),
(96,4,o),
(97,6,cs),
(114,29,o),
(98,48,o),
(113,70,c),
(115,72,o),
(115,80,o),
(112,82,c),
(106,89,o),
(105,96,o),
(105,104,cs),
(103,150,o),
(105,170,o),
(105,238,c),
(136,281,o),
(147,280,o),
(180,319,c),
(194,307,o),
(207,296,o),
(216,281,cs),
(237,249,o),
(305,129,o),
(331,101,cs),
(341,91,o),
(351,81,o),
(358,68,cs),
(362,58,o),
(370,50,o),
(376,40,cs),
(383,28,o),
(398,28,o),
(409,22,c),
(434,-1,o),
(440,-2,o),
(446,-2,cs),
(455,-2,o),
(463,0,o),
(463,6,cs),
(463,16,o)
);
},
{
closed = 1;
nodes = (
(185,374,o),
(172,367,o),
(167,356,cs),
(162,343,o),
(149,340,o),
(141,331,cs),
(135,325,o),
(127,320,o),
(126,310,c),
(105,289,l),
(105,473,l),
(125,471,o),
(153,473,o),
(167,467,c),
(187,469,o),
(245,463,o),
(265,467,c),
(201,403,o),
(192,394,o),
(189,387,cs)
);
}
);
width = 463;
}
);
unicode = 107;
},
{
glyphname = l;
lastChange = "2023-10-14 12:34:32 +0000";
layers = (
{
anchors = (
{
name = bottom;
pos = (238,0);
},
{
name = center;
pos = (96,400);
},
{
name = top;
pos = (157,700);
},
{
name = topright;
pos = (160,800);
}
);
layerId = m01;
shapes = (
{
closed = 1;
nodes = (
(389,92,o),
(382,95,o),
(383,99,cs),
(385,107,o),
(394,119,o),
(389,126,cs),
(382,139,o),
(381,152,o),
(381,166,cs),
(381,173,o),
(381,180,o),
(381,187,cs),
(381,199,o),
(376,206,o),
(368,212,cs),
(365,215,o),
(362,223,o),
(356,217,cs),
(344,205,o),
(349,209,o),
(336,205,cs),
(322,199,o),
(309,191,o),
(302,178,cs),
(294,161,o),
(281,150,o),
(265,146,cs),
(255,143,o),
(257,135,o),
(252,132,cs),
(245,128,o),
(238,127,o),
(232,124,cs),
(227,121,o),
(221,117,o),
(218,112,cs),
(205,87,o),
(180,67,o),
(158,47,cs),
(151,41,o),
(146,36,o),
(143,29,c),
(127,29,o),
(130,38,o),
(118,38,c),
(114,39,o),
(111,42,o),
(111,47,cs),
(111,643,ls),
(111,654,o),
(127,681,o),
(107,701,c),
(83,705,o),
(77,689,o),
(77,665,cs),
(77,198,o),
(78,191,o),
(78,185,cs),
(78,178,o),
(77,171,o),
(70,164,c),
(77,154,o),
(78,144,o),
(78,133,cs),
(78,118,o),
(77,39,o),
(77,23,cs),
(78,14,o),
(86,5,o),
(96,4,cs),
(106,3,o),
(275,2,o),
(362,2,cs),
(378,2,o),
(378,2,o),
(385,19,cs),
(390,30,o),
(392,40,o),
(386,50,cs),
(379,62,o),
(378,74,o),
(385,86,cs)
);
},
{
closed = 1;
nodes = (
(190,36,l),
(220,60,o),
(319,148,o),
(347,158,c),
(348,54,o),
(347,45,o),
(342,36,c)
);
}
);
width = 410;
}
);
unicode = 108;
},
{
glyphname = m;
lastChange = "2023-10-12 12:59:35 +0000";
layers = (
{
anchors = (
{
name = bottom;
pos = (405,18);
},
{
name = top;
pos = (408,500);
}
);
layerId = m01;
shapes = (
{
closed = 1;
nodes = (
(722,472,ls),
(722,492,o),
(690,495,o),
(662,495,cs),
(649,495,o),
(237,491,o),
(98,491,cs),
(91,491,o),
(79,480,o),
(79,473,cs),
(78,465,o),
(79,458,o),
(79,450,cs),
(79,383,o),
(80,131,o),
(70,53,cs),
(69,48,o),
(71,43,o),
(72,41,cs),
(80,24,o),
(74,1,o),
(84,1,cs),
(100,1,o),
(150,61,o),
(160,74,cs),
(206,136,o),
(303,294,o),
(320,311,cs),
(371,363,o),
(386,399,o),
(401,431,c),
(401,219,o),
(400,152,o),
(392,124,cs),
(392,106,o),
(406,96,o),
(392,78,cs),
(391,77,o),
(394,69,o),
(397,66,cs),
(408,54,o),
(390,32,o),
(388,30,c),
(391,9,o),
(395,3,o),
(401,3,cs),
(406,3,o),
(416,8,o),
(429,12,cs),
(437,15,o),
(433,26,o),
(433,33,cs),
(433,112,o),
(434,248,o),
(434,327,cs),
(434,336,o),
(431,347,o),
(434,354,cs),
(445,378,o),
(446,385,o),
(437,409,c),
(446,420,o),
(444,431,o),
(435,442,cs),
(431,448,o),
(434,454,o),
(440,458,cs),
(455,470,o),
(455,464,o),
(465,458,cs),
(474,451,o),
(484,464,o),
(494,464,cs),
(515,464,o),
(511,446,o),
(528,458,cs),
(546,467,o),
(593,459,o),
(612,464,cs),
(622,467,o),
(632,464,o),
(642,464,cs),
(680,464,l),
(701,426,o),
(672,371,o),
(694,334,c),
(694,311,o),
(692,300,o),
(684,291,c),
(684,169,ls),
(684,146,o),
(701,136,o),
(690,112,cs),
(688,108,o),
(684,101,o),
(684,20,c),
(684,-5,o),
(722,-4,o),
(722,21,c)
);
},
{
closed = 1;
nodes = (
(363,443,o),
(150,119,o),
(107,60,c),
(107,129,o),
(108,255,o),
(108,325,cs),
(108,334,o),
(105,345,o),
(108,352,cs),
(119,376,o),
(120,383,o),
(111,407,c),
(120,418,o),
(118,429,o),
(109,440,cs),
(103,449,o),
(121,464,o),
(129,464,cs),
(142,464,ls),
(151,464,o),
(160,460,o),
(169,454,cs),
(178,447,o),
(188,464,o),
(198,464,cs),
(209,464,o),
(216,454,o),
(225,454,cs),
(244,454,o),
(243,470,o),
(256,459,cs),
(265,452,o),
(271,464,o),
(280,464,cs),
(358,464,ls),
(366,464,o),
(371,460,o),
(377,458,c)
);
}
);
width = 792;
}
);
unicode = 109;
},
{
glyphname = n;
lastChange = "2023-10-12 12:59:35 +0000";
layers = (
{
anchors = (
{
name = bottom;
pos = (242,0);
},
{
name = top;
pos = (257,499);
}
);
layerId = m01;
shapes = (
{
closed = 1;
nodes = (
(428,457,l),
(428,473,ls),
(428,495,o),
(398,498,o),
(371,498,cs),
(356,498,o),
(109,497,o),
(100,496,cs),
(93,496,o),
(82,484,o),
(82,476,cs),
(81,467,o),
(82,241,o),
(82,194,cs),
(82,184,o),
(81,173,o),
(73,164,c),
(73,151,o),
(70,134,o),
(75,122,cs),
(81,109,o),
(81,101,o),
(73,90,c),
(72,88,o),
(74,80,o),
(77,77,cs),
(88,63,o),
(76,62,o),
(73,52,cs),
(71,48,o),
(70,42,o),
(70,35,cs),
(70,19,o),
(78,2,o),
(91,2,cs),
(96,2,o),
(147,42,o),
(221,180,cs),
(276,282,o),
(323,373,o),
(392,446,c),
(391,388,o),
(391,371,o),
(391,362,cs),
(391,347,o),
(392,331,o),
(400,315,c),
(400,304,o),
(399,277,o),
(391,267,c),
(391,243,o),
(391,216,o),
(390,193,cs),
(390,159,o),
(413,157,o),
(396,128,cs),
(393,123,o),
(391,116,o),
(391,109,cs),
(391,101,o),
(391,42,o),
(391,24,cs),
(391,-6,o),
(428,-5,o),
(428,25,cs)
);
},
{
closed = 1;
nodes = (
(290,363,o),
(254,331,o),
(245,286,cs),
(242,275,o),
(230,261,o),
(221,248,cs),
(197,214,o),
(132,110,o),
(110,75,c),
(110,318,o),
(107,331,o),
(111,339,cs),
(119,360,o),
(124,378,o),
(113,401,c),
(122,412,o),
(120,427,o),
(112,439,cs),
(107,446,o),
(111,453,o),
(116,457,cs),
(143,475,o),
(163,463,o),
(171,457,cs),
(181,449,o),
(191,463,o),
(200,464,cs),
(212,467,o),
(223,450,o),
(234,457,cs),
(242,462,o),
(248,469,o),
(259,460,cs),
(267,453,o),
(273,467,o),
(283,466,cs),
(297,466,o),
(294,466,o),
(307,460,cs),
(324,453,o),
(315,472,o),
(372,465,c),
(356,446,o),
(329,415,o),
(311,404,c)
);
}
);
width = 498;
}
);
unicode = 110;
},
{
glyphname = o;
lastChange = "2023-10-24 16:47:05 +0000";
layers = (
{
anchors = (
{
name = bottom;
pos = (260,0);
},
{
name = center;
pos = (315,250);
},
{
name = ogonek;
pos = (488,10);
},
{
name = top;
pos = (260,500);
},
{
name = topright;
pos = (372,789);
}
);
layerId = m01;
shapes = (
{
closed = 1;
nodes = (
(463,492,o),
(455,495,o),
(449,495,c),
(359,496,o),
(154,507,o),
(70,495,c),
(70,412,o),
(70,322,o),
(70,236,cs),
(70,193,o),
(70,97,o),
(70,55,cs),
(70,45,o),
(70,35,o),
(70,26,cs),
(71,14,o),
(79,5,o),
(91,5,cs),
(100,4,o),
(166,5,o),
(174,4,cs),
(184,4,o),
(195,5,o),
(202,1,cs),
(213,-6,o),
(218,6,o),
(228,5,cs),
(243,4,o),
(341,2,o),
(349,5,cs),
(358,8,o),
(365,-10,o),
(374,3,c),
(393,-10,o),
(410,-3,o),
(433,-3,cs),
(442,-3,o),
(451,2,o),
(460,8,cs),
(463,10,o),
(463,18,o),
(463,23,cs),
(463,211,o),
(463,350,o),
(463,486,c)
);
},
{
closed = 1;
nodes = (
(437,358,o),
(438,392,o),
(429,286,cs),
(429,277,o),
(429,267,o),
(429,257,cs),
(429,109,ls),
(429,100,o),
(429,38,o),
(425,31,c),
(374,30,o),
(315,30,o),
(279,30,cs),
(270,30,o),
(260,28,o),
(251,35,cs),
(248,37,o),
(239,30,o),
(234,31,cs),
(228,33,o),
(223,39,o),
(217,32,cs),
(215,30,o),
(210,30,o),
(209,31,cs),
(202,37,o),
(126,38,o),
(103,39,cs),
(97,39,o),
(93,46,o),
(96,51,cs),
(102,58,o),
(103,65,o),
(103,74,cs),
(103,95,o),
(103,233,o),
(103,255,cs),
(103,264,o),
(102,271,o),
(97,278,cs),
(95,280,o),
(96,286,o),
(98,289,cs),
(103,296,o),
(105,303,o),
(105,310,cs),
(105,317,o),
(103,323,o),
(101,329,cs),
(96,339,o),
(95,346,o),
(103,354,cs),
(104,356,o),
(103,360,o),
(102,362,c),
(102,424,l),
(104,425,o),
(102,432,o),
(100,434,cs),
(92,443,o),
(95,456,o),
(100,469,c),
(114,471,o),
(147,469,o),
(162,469,cs),
(172,469,o),
(182,472,o),
(191,462,c),
(205,459,o),
(212,474,o),
(220,462,c),
(230,462,o),
(379,462,o),
(388,461,cs),
(402,459,o),
(433,457,o),
(437,457,c)
);
}
);
width = 533;
}
);
unicode = 111;
},
{
glyphname = oslash;
lastChange = "2023-10-15 15:58:29 +0000";
layers = (
{
layerId = m01;
shapes = (
{
closed = 1;
nodes = (
(85,-38,o),
(100,-19,o),
(115,5,c),
(138,4,o),
(169,5,o),
(174,4,c),
(184,4,o),
(195,5,o),
(202,1,cs),
(213,-6,o),
(218,6,o),
(228,5,cs),
(243,4,o),
(341,2,o),
(349,5,cs),
(358,8,o),
(365,-10,o),
(374,3,c),
(393,-10,o),
(410,-3,o),
(433,-3,cs),
(442,-3,o),
(451,2,o),
(460,8,cs),
(463,10,o),
(463,18,o),
(463,23,cs),
(463,483,ls),
(463,484,o),
(461,485,o),
(457,491,c),
(456,491,o),
(451,492,o),
(449,492,cs),
(440,492,l),
(444,498,o),
(448,505,o),
(453,512,cs),
(461,521,o),
(465,534,o),
(466,544,cs),
(466,552,o),
(467,562,o),
(460,562,cs),
(455,562,o),
(442,557,o),
(423,525,cs),
(403,493,l),
(301,496,o),
(142,502,o),
(70,492,c),
(70,236,ls),
(70,193,o),
(70,97,o),
(70,55,cs),
(70,26,l),
(71,20,o),
(73,14,o),
(77,10,c),
(76,9,o),
(75,7,o),
(74,5,cs),
(56,-29,o),
(54,-42,o),
(52,-53,cs),
(51,-67,o),
(61,-69,o),
(67,-62,cs)
);
},
{
closed = 1;
nodes = (
(95,43,o),
(94,48,o),
(96,51,cs),
(102,58,o),
(103,65,o),
(103,74,cs),
(103,255,ls),
(103,264,o),
(102,271,o),
(97,278,cs),
(95,280,o),
(96,286,o),
(98,289,cs),
(103,296,o),
(105,303,o),
(105,310,cs),
(105,317,o),
(103,323,o),
(101,329,cs),
(96,339,o),
(95,346,o),
(103,354,c),
(104,356,o),
(103,360,o),
(102,362,c),
(102,421,l),
(104,422,o),
(102,429,o),
(100,431,cs),
(92,440,o),
(95,453,o),
(100,466,c),
(114,468,o),
(147,466,o),
(162,466,cs),
(172,466,o),
(182,469,o),
(191,459,c),
(205,456,o),
(212,471,o),
(220,459,c),
(229,459,o),
(348,459,o),
(380,458,c),
(349,409,o),
(323,371,o),
(317,358,cs),
(305,333,o),
(287,328,o),
(277,303,cs),
(270,286,o),
(254,281,o),
(244,263,cs),
(234,245,o),
(208,189,o),
(192,173,cs),
(180,161,o),
(173,150,o),
(167,133,cs),
(165,124,o),
(154,111,o),
(147,100,c),
(135,86,o),
(115,63,o),
(98,41,c)
);
},
{
closed = 1;
nodes = (
(270,30,o),
(260,28,o),
(251,35,cs),
(248,37,o),
(239,30,o),
(234,31,cs),
(228,33,o),
(223,39,o),
(217,32,cs),
(215,30,o),
(210,30,o),
(209,31,cs),
(204,35,o),
(165,37,o),
(134,38,c),
(142,50,o),
(149,62,o),
(158,73,cs),
(172,90,o),
(180,104,o),
(190,122,cs),
(225,184,o),
(268,240,o),
(308,298,cs),
(316,309,o),
(330,315,o),
(334,330,cs),
(338,355,o),
(353,356,o),
(363,371,cs),
(377,393,o),
(387,410,o),
(416,455,c),
(426,455,o),
(435,454,o),
(437,454,c),
(437,355,o),
(438,392,o),
(429,286,c),
(429,257,l),
(429,109,ls),
(429,100,o),
(429,38,o),
(425,31,c),
(374,30,o),
(315,30,o),
(279,30,cs)
);
}
);
width = 533;
}
);
unicode = 248;
},
{
glyphname = p;
lastChange = "2023-10-12 13:03:03 +0000";
layers = (
{
anchors = (
{
name = bottom;
pos = (267,0);
},
{
name = top;
pos = (267,500);
}
);
layerId = m01;
shapes = (
{
closed = 1;
nodes = (
(70,212,o),
(74,-170,cs),
(74,-194,o),
(81,-199,o),
(88,-199,cs),
(103,-199,o),
(99,-182,o),
(101,-166,cs),
(102,-160,o),
(104,-140,o),
(104,-138,cs),
(104,-95,o),
(106,75,o),
(108,98,c),
(102,108,o),
(105,119,o),
(105,129,cs),
(105,392,l),
(114,367,o),
(131,353,o),
(146,338,cs),
(212,268,o),
(388,79,o),
(410,65,cs),
(414,62,o),
(416,60,o),
(419,63,c),
(427,64,o),
(436,72,o),
(434,81,c),
(434,100,o),
(447,115,o),
(436,126,c),
(445,135,o),
(441,143,o),
(436,151,c),
(444,160,o),
(442,168,o),
(435,176,c),
(435,207,o),
(435,238,o),
(436,268,cs),
(436,274,o),
(446,280,o),
(440,286,cs),
(430,295,o),
(442,300,o),
(442,307,cs),
(442,468,ls),
(442,477,o),
(433,486,o),
(425,486,cs),
(418,487,o),
(410,487,o),
(403,487,cs),
(185,487,ls),
(178,487,o),
(168,484,o),
(163,488,cs),
(155,494,o),
(146,495,o),
(138,495,c),
(98,499,l),
(73,499,o),
(71,488,o),
(71,484,cs),
(69,442,o)
);
},
{
closed = 1;
nodes = (
(94,461,o),
(122,465,o),
(128,460,cs),
(136,454,o),
(145,453,o),
(154,453,cs),
(160,453,o),
(165,453,o),
(171,453,cs),
(404,453,ls),
(410,453,o),
(412,448,o),
(412,442,cs),
(412,310,o),
(410,299,o),
(413,291,cs),
(417,279,o),
(400,272,o),
(410,261,c),
(409,253,o),
(403,247,o),
(405,238,cs),
(406,229,o),
(401,203,o),
(410,194,c),
(406,187,o),
(407,181,o),
(412,173,cs),
(414,170,o),
(413,162,o),
(412,157,cs),
(410,149,o),
(404,122,o),
(404,116,c),
(328,196,o),
(256,272,o),
(184,347,cs),
(177,354,o),
(165,362,o),
(163,370,cs),
(158,386,o),
(117,435,o),
(110,443,cs)
);
}
);
width = 512;
}
);
unicode = 112;
},
{
glyphname = q;
lastChange = "2023-10-24 16:44:42 +0000";
layers = (
{
anchors = (
{
name = bottom;
pos = (268,0);
},
{
name = top;
pos = (268,500);
}
);
layerId = m01;
shapes = (
{
closed = 1;
nodes = (
(442,212,o),
(443,442,o),
(441,484,cs),
(441,488,o),
(439,499,o),
(414,499,c),
(374,495,l),
(366,495,o),
(357,494,o),
(349,488,cs),
(344,484,o),
(334,487,o),
(327,487,cs),
(109,487,ls),
(102,487,o),
(94,487,o),
(87,486,cs),
(79,486,o),
(70,477,o),
(70,468,cs),
(70,307,ls),
(70,300,o),
(82,295,o),
(72,286,cs),
(66,280,o),
(76,274,o),
(76,268,cs),
(77,238,o),
(77,207,o),
(77,176,c),
(70,168,o),
(68,160,o),
(76,151,c),
(71,143,o),
(67,135,o),
(76,126,c),
(65,115,o),
(78,100,o),
(78,81,c),
(76,72,o),
(85,64,o),
(93,63,c),
(96,60,o),
(98,62,o),
(102,65,cs),
(124,79,o),
(300,268,o),
(366,338,cs),
(381,353,o),
(398,367,o),
(407,392,c),
(407,129,ls),
(407,119,o),
(410,108,o),
(404,98,c),
(406,75,o),
(408,-95,o),
(408,-138,cs),
(408,-140,o),
(410,-160,o),
(411,-166,cs),
(413,-182,o),
(409,-199,o),
(424,-199,cs),
(431,-199,o),
(438,-194,o),
(438,-170,cs)
);
},
{
closed = 1;
nodes = (
(395,435,o),
(354,386,o),
(349,370,cs),
(347,362,o),
(335,354,o),
(328,347,cs),
(256,272,o),
(184,196,o),
(108,116,c),
(108,122,o),
(102,149,o),
(100,157,cs),
(99,162,o),
(98,170,o),
(100,173,cs),
(105,181,o),
(106,187,o),
(102,194,c),
(111,203,o),
(106,229,o),
(107,238,cs),
(109,247,o),
(103,253,o),
(102,261,c),
(112,272,o),
(95,279,o),
(99,291,cs),
(102,299,o),
(100,310,o),
(100,442,cs),
(100,448,o),
(102,453,o),
(108,453,cs),
(341,453,ls),
(347,453,o),
(352,453,o),
(358,453,cs),
(367,453,o),
(376,454,o),
(384,460,cs),
(390,465,o),
(418,461,o),
(402,443,cs)
);
},
{
closed = 1;
nodes = (
(515,-196,o),
(618,-197,o),
(621,-194,cs),
(625,-190,o),
(624,-181,o),
(622,-179,cs),
(620,-174,o),
(617,-172,o),
(613,-168,cs),
(609,-165,o),
(602,-162,o),
(597,-158,cs),
(592,-152,o),
(590,-144,o),
(584,-139,cs),
(556,-113,o),
(535,-80,o),
(507,-52,cs),
(500,-45,ls),
(496,-41,o),
(492,-38,o),
(491,-32,c),
(487,-28,o),
(484,-18,o),
(474,-18,cs),
(468,-27,o),
(467,-53,o),
(465,-64,c),
(466,-73,o),
(466,-103,o),
(466,-108,cs),
(466,-118,o),
(465,-126,o),
(465,-135,cs),
(465,-151,ls),
(465,-162,o),
(465,-173,o),
(459,-183,cs),
(456,-189,o),
(460,-195,o),
(466,-195,cs)
);
},
{
closed = 1;
nodes = (
(494,-90,ls),
(494,-65,o),
(548,-143,o),
(572,-166,c),
(570,-169,o),
(568,-169,o),
(567,-169,cs),
(545,-170,o),
(540,-170,o),
(538,-172,cs),
(528,-177,o),
(519,-177,o),
(511,-172,cs),
(509,-170,o),
(506,-170,o),
(503,-169,cs),
(494,-166,o),
(494,-166,o),
(494,-157,cs)
);
}
);
width = 539;
}
);
unicode = 113;
},
{
glyphname = r;
lastChange = "2023-10-12 13:03:36 +0000";
layers = (
{
anchors = (
{
name = bottom;
pos = (139,6);
},
{
name = top;
pos = (210,500);
}
);
layerId = m01;
shapes = (
{
closed = 1;
nodes = (
(86,7,o),
(102,3,o),
(106,14,c),
(106,457,ls),
(106,460,o),
(112,461,o),
(121,461,cs),
(139,461,o),
(169,455,o),
(176,441,cs),
(178,437,o),
(182,435,o),
(185,432,cs),
(218,395,o),
(263,370,o),
(297,332,cs),
(303,325,o),
(314,322,o),
(321,316,cs),
(327,310,o),
(330,302,o),
(335,295,cs),
(344,283,o),
(365,275,o),
(369,289,c),
(370,374,o),
(370,400,o),
(369,485,cs),
(369,493,o),
(362,499,o),
(354,495,cs),
(334,484,o),
(240,487,o),
(234,487,cs),
(216,488,o),
(168,495,o),
(163,495,cs),
(142,495,o),
(118,493,o),
(94,493,cs),
(81,493,o),
(72,487,o),
(76,474,cs),
(77,471,o),
(73,457,o),
(79,433,c),
(82,426,o),
(79,120,o),
(71,111,cs),
(68,107,o),
(71,100,o),
(71,94,cs),
(72,29,o),
(76,19,o),
(79,14,c)
);
},
{
closed = 1;
nodes = (
(239,452,cs),
(266,452,o),
(291,453,o),
(319,453,cs),
(342,453,o),
(335,445,o),
(339,428,cs),
(342,416,o),
(346,402,o),
(339,392,cs),
(337,388,o),
(336,382,o),
(335,377,c),
(335,364,o),
(339,347,o),
(332,344,c),
(330,345,o),
(263,413,o),
(215,450,c),
(218,451,o),
(221,452,o)
);
}
);
width = 380;
}
);
unicode = 114;
},
{
glyphname = s;
lastChange = "2023-10-12 12:53:57 +0000";
layers = (
{
anchors = (
{
name = bottom;
pos = (217,0);
},
{
name = top;
pos = (209,490);
}
);
layerId = m01;
shapes = (
{
closed = 1;
nodes = (
(341,441,cs),
(349,451,o),
(357,462,o),
(366,471,cs),
(376,483,o),
(361,488,o),
(351,491,cs),
(344,492,o),
(338,494,o),
(332,497,c),
(320,496,l),
(310,496,o),
(301,495,o),
(293,489,c),
(272,489,o),
(250,489,o),
(209,490,cs),
(173,491,o),
(197,489,o),
(161,490,c),
(150,495,o),
(142,497,o),
(133,497,cs),
(125,497,o),
(116,495,o),
(103,490,c),
(102,490,o),
(82,496,o),
(65,496,cs),
(56,496,o),
(48,495,o),
(43,490,cs),
(33,483,o),
(39,447,o),
(45,436,c),
(46,435,o),
(46,432,o),
(45,431,c),
(38,418,o),
(36,404,o),
(36,390,cs),
(36,374,o),
(38,332,o),
(38,265,c),
(43,228,o),
(52,226,o),
(83,226,cs),
(118,226,o),
(292,223,o),
(331,228,c),
(331,39,l),
(327,39,ls),
(318,39,o),
(303,40,o),
(293,32,c),
(205,33,o),
(221,37,o),
(133,40,cs),
(125,40,o),
(116,38,o),
(103,33,c),
(101,33,o),
(98,31,o),
(97,33,c),
(92,38,o),
(87,39,o),
(82,39,c),
(74,35,o),
(65,33,o),
(57,33,c),
(27,37,o),
(17,13,o),
(51,9,cs),
(57,9,o),
(64,10,o),
(70,10,cs),
(74,10,o),
(79,9,o),
(83,8,cs),
(90,5,o),
(97,3,o),
(104,1,cs),
(113,-1,o),
(121,13,o),
(129,2,c),
(282,2,ls),
(296,2,o),
(295,1,o),
(309,1,cs),
(322,1,o),
(334,7,o),
(347,9,cs),
(365,12,o),
(369,52,o),
(369,95,cs),
(369,133,o),
(366,204,o),
(366,223,c),
(364,239,l),
(362,250,l),
(359,254,o),
(352,257,o),
(346,260,cs),
(322,269,o),
(301,267,o),
(278,257,c),
(272,257,o),
(206,260,o),
(112,260,c),
(170,304,o),
(283,398,o)
);
},
{
closed = 1;
nodes = (
(122,309,o),
(74,274,cs),
(72,274,o),
(71,447,o),
(72,467,c),
(78,465,o),
(97,460,o),
(103,458,cs),
(112,455,o),
(120,470,o),
(129,459,c),
(258,459,ls),
(266,459,o),
(273,459,o),
(281,459,cs),
(289,459,o),
(296,458,o),
(303,458,cs),
(294,449,o),
(283,439,o),
(270,423,c),
(249,420,o)
);
}
);
width = 399;
}
);
unicode = 115;
},
{
glyphname = t;
lastChange = "2023-10-24 16:43:28 +0000";
layers = (
{
anchors = (
{
name = bottom;
pos = (224,0);
},
{
name = center;
pos = (125,317);
},
{
name = top;
pos = (220,500);
},
{
name = topright;
pos = (253,889);
}
);
layerId = m01;
shapes = (
{
closed = 1;
nodes = (
(318,-11,o),
(318,20,cs),
(318,50,o),
(287,67,o),
(267,90,cs),
(247,113,o),
(229,123,o),
(217,145,cs),
(203,171,o),
(173,182,o),
(172,194,cs),
(171,201,o),
(172,505,o),
(167,518,c),
(203,523,o),
(215,518,o),
(250,511,c),
(276,511,ls),
(279,511,o),
(283,511,o),
(286,510,cs),
(299,510,o),
(320,523,o),
(320,531,cs),
(320,537,o),
(310,550,o),
(300,550,cs),
(290,550,o),
(239,550,o),
(167,550,c),
(167,640,ls),
(167,645,o),
(169,663,o),
(169,677,cs),
(169,688,o),
(168,696,o),
(164,697,c),
(146,704,o),
(137,697,o),
(137,667,cs),
(137,664,o),
(137,648,o),
(137,641,cs),
(137,550,l),
(43,550,ls),
(15,550,o),
(-1,539,o),
(19,519,c),
(26,515,o),
(34,513,o),
(43,513,cs),
(115,513,o),
(65,521,o),
(137,518,c),
(137,232,o),
(137,39,o),
(137,24,cs),
(138,16,o),
(145,3,o),
(155,3,c),
(195,6,o)
);
},
{
closed = 1;
nodes = (
(227,32,o),
(202,32,cs),
(192,32,o),
(181,33,o),
(171,33,c),
(174,110,o),
(168,143,o),
(173,143,cs),
(177,143,o),
(213,104,o),
(221,90,cs),
(238,61,o),
(247,63,o),
(279,31,c),
(218,26,o)
);
}
);
width = 330;
}
);
unicode = 116;
},
{
glyphname = u;
lastChange = "2023-10-12 12:59:35 +0000";
layers = (
{
anchors = (
{
name = bottom;
pos = (250,0);
},
{
name = ogonek;
pos = (397,25);
},
{
name = top;
pos = (250,500);
},
{
name = topright;
pos = (480,500);
}
);
layerId = m01;
shapes = (
{
closed = 1;
nodes = (
(411,456,o),
(430,446,o),
(430,485,cs),
(430,508,o),
(415,493,o),
(393,486,cs),
(385,483,o),
(389,472,o),
(389,465,cs),
(388,386,o),
(388,249,o),
(388,170,cs),
(388,161,o),
(391,150,o),
(388,143,cs),
(379,124,o),
(374,108,o),
(387,92,c),
(376,77,o),
(376,69,o),
(387,55,cs),
(391,49,o),
(387,43,o),
(382,39,cs),
(358,25,o),
(338,32,o),
(327,39,cs),
(319,45,o),
(302,33,o),
(295,33,cs),
(287,33,o),
(280,41,o),
(271,41,cs),
(262,41,o),
(252,26,o),
(240,36,cs),
(232,42,o),
(213,33,o),
(202,33,cs),
(189,33,o),
(188,40,o),
(170,35,cs),
(160,32,o),
(125,32,o),
(112,33,c),
(108,41,o),
(106,49,o),
(106,57,cs),
(106,97,o),
(107,114,o),
(107,122,cs),
(107,136,o),
(106,150,o),
(98,163,c),
(98,176,o),
(96,194,o),
(107,206,c),
(107,329,l),
(108,340,o),
(102,346,o),
(99,355,cs),
(96,364,o),
(95,376,o),
(102,386,cs),
(105,390,o),
(107,406,o),
(107,412,cs),
(107,477,ls),
(107,504,o),
(70,503,o),
(70,476,cs),
(70,25,ls),
(70,10,o),
(84,5,o),
(92,-4,c),
(106,3,o),
(117,5,o),
(128,5,cs),
(150,5,o),
(373,1,o),
(398,4,cs),
(405,4,o),
(416,15,o),
(416,22,cs),
(417,30,o),
(416,290,o),
(416,313,cs),
(415,360,o),
(426,346,o),
(426,375,cs),
(426,388,o),
(412,403,o),
(425,420,c)
);
},
{
closed = 1;
nodes = (
(248,162,o),
(257,171,cs),
(272,186,ls),
(274,188,o),
(275,192,o),
(275,196,cs),
(275,204,o),
(270,214,o),
(262,217,cs),
(254,219,o),
(233,222,o),
(233,207,c),
(229,194,o),
(219,195,o),
(228,186,cs),
(236,177,o)
);
}
);
width = 500;
}
);
unicode = 117;
},
{
glyphname = v;
lastChange = "2023-10-12 12:49:49 +0000";
layers = (
{
anchors = (
{
name = bottom;
pos = (225,0);
},
{
name = top;
pos = (224,500);
}
);
layerId = m01;
shapes = (
{
closed = 1;
nodes = (
(435,496,o),
(421,498,o),
(403,498,c),
(201,486,o),
(217,499,o),
(51,498,cs),
(18,498,o),
(10,497,o),
(10,491,cs),
(10,486,o),
(17,475,o),
(17,457,cs),
(17,447,o),
(62,351,o),
(74,307,cs),
(81,282,o),
(95,258,o),
(106,233,cs),
(116,209,o),
(131,187,o),
(134,158,c),
(160,123,o),
(171,85,o),
(192,47,cs),
(199,33,o),
(206,18,o),
(213,5,cs),
(217,-2,o),
(234,-2,o),
(236,5,cs),
(246,33,o),
(277,74,o),
(287,108,cs),
(303,163,o),
(362,270,o),
(384,325,cs),
(391,342,o),
(397,361,o),
(410,375,c),
(412,376,o),
(414,380,o),
(414,383,cs),
(414,420,o),
(456,454,o),
(438,488,cs)
);
},
{
closed = 1;
nodes = (
(373,377,o),
(359,337,o),
(338,300,cs),
(317,263,o),
(239,74,o),
(224,52,c),
(208,89,o),
(151,204,o),
(141,225,cs),
(134,241,o),
(106,297,o),
(106,312,cs),
(105,328,o),
(90,334,o),
(86,350,cs),
(81,366,o),
(73,380,o),
(69,398,cs),
(64,418,o),
(44,441,o),
(44,464,c),
(49,463,o),
(90,466,o),
(99,464,cs),
(121,463,o),
(226,465,o),
(266,465,cs),
(282,465,o),
(298,463,o),
(314,459,cs),
(333,453,o),
(385,458,o),
(405,463,c),
(393,448,o),
(399,426,o),
(393,413,cs)
);
},
{
closed = 1;
nodes = (
(222,300,o),
(220,294,o),
(214,293,cs),
(205,292,o),
(192,279,o),
(195,273,cs),
(198,266,o),
(201,257,o),
(206,251,cs),
(209,248,o),
(217,249,o),
(235,248,c),
(241,249,o),
(256,267,o),
(253,272,cs),
(248,282,o),
(244,291,o),
(232,296,cs)
);
}
);
width = 452;
}
);
unicode = 118;
},
{
glyphname = w;
lastChange = "2023-10-14 12:35:52 +0000";
layers = (
{
anchors = (
{
name = bottom;
pos = (334,0);
},
{
name = top;
pos = (340,497);
}
);
layerId = m01;
shapes = (
{
closed = 1;
nodes = (
(602,267,o),
(614,272,o),
(614,280,cs),
(614,333,o),
(613,425,o),
(613,477,cs),
(613,488,o),
(604,498,o),
(595,498,cs),
(592,498,o),
(582,497,o),
(582,467,cs),
(582,462,o),
(583,455,o),
(583,448,cs),
(583,295,ls),
(583,284,o),
(579,272,o),
(583,262,cs),
(587,248,o),
(573,240,o),
(583,227,c),
(581,219,o),
(574,212,o),
(575,203,cs),
(577,185,o),
(571,165,o),
(583,152,c),
(579,144,o),
(579,136,o),
(583,128,cs),
(590,118,o),
(575,95,o),
(575,84,cs),
(575,69,o),
(575,47,o),
(570,53,cs),
(366,306,l),
(382,324,o),
(433,400,o),
(442,423,cs),
(448,440,o),
(458,458,o),
(458,472,cs),
(458,489,o),
(447,500,o),
(411,500,cs),
(404,500,o),
(397,500,o),
(388,499,c),
(350,499,o),
(343,493,o),
(279,493,cs),
(241,493,o),
(229,484,o),
(229,468,cs),
(229,457,o),
(235,441,o),
(242,423,cs),
(252,399,o),
(315,311,o),
(318,306,c),
(113,67,o),
(111,65,o),
(109,63,c),
(109,90,o),
(105,82,o),
(102,109,c),
(100,116,o),
(100,124,o),
(102,128,cs),
(107,136,o),
(107,144,o),
(103,152,c),
(116,166,o),
(107,208,o),
(103,227,c),
(113,239,o),
(96,248,o),
(101,262,cs),
(104,272,o),
(101,284,o),
(101,295,cs),
(101,450,ls),
(101,454,o),
(106,479,o),
(107,485,cs),
(107,488,o),
(102,500,o),
(88,500,cs),
(80,500,o),
(72,489,o),
(72,479,cs),
(72,280,ls),
(72,272,o),
(82,267,o),
(72,256,cs),
(66,249,o),
(79,243,o),
(79,236,cs),
(79,202,o),
(77,166,o),
(77,132,c),
(70,123,o),
(70,113,o),
(79,103,c),
(74,94,o),
(70,85,o),
(79,75,c),
(75,70,o),
(72,65,o),
(72,60,cs),
(72,49,o),
(77,39,o),
(77,27,cs),
(77,23,l),
(74,7,o),
(95,-3,o),
(103,4,c),
(107,6,o),
(131,31,o),
(138,39,c),
(157,65,o),
(285,212,o),
(342,278,c),
(366,252,o),
(542,4,o),
(588,4,cs),
(603,4,o),
(613,19,o),
(613,61,cs),
(613,66,o),
(611,70,o),
(608,75,c),
(617,85,o),
(613,94,o),
(608,103,c),
(616,113,o),
(614,123,o),
(607,132,c),
(607,166,o),
(608,202,o),
(608,236,cs),
(608,243,o),
(617,249,o),
(611,256,cs)
);
},
{
closed = 1;
nodes = (
(264,466,l),
(266,465,o),
(283,467,o),
(285,466,cs),
(297,460,o),
(305,468,o),
(308,467,c),
(378,473,o),
(394,467,o),
(423,467,c),
(419,447,o),
(406,435,o),
(386,394,c),
(374,381,o),
(361,368,o),
(357,347,cs),
(355,339,o),
(348,332,o),
(342,327,c),
(336,332,o),
(329,339,o),
(327,347,cs),
(323,368,o),
(311,381,o),
(299,394,c)
);
}
);
width = 684;
}
);
unicode = 119;
},
{
glyphname = x;
lastChange = "2023-10-12 12:49:27 +0000";
layers = (
{
anchors = (
{
name = bottom;
pos = (232,0);
},
{
name = top;
pos = (216,500);
}
);
layerId = m01;
shapes = (
{
closed = 1;
nodes = (
(361,0,o),
(408,0,cs),
(433,0,o),
(451,5,o),
(450,29,c),
(443,43,o),
(407,65,o),
(403,80,cs),
(398,94,o),
(371,118,o),
(366,125,c),
(352,123,o),
(339,149,o),
(338,152,c),
(326,177,o),
(309,196,o),
(285,209,cs),
(280,212,o),
(266,233,o),
(263,237,c),
(254,243,o),
(253,249,o),
(259,255,cs),
(269,267,o),
(280,278,o),
(291,291,cs),
(323,326,ls),
(334,338,o),
(343,350,o),
(355,361,cs),
(367,372,o),
(368,392,o),
(382,398,cs),
(397,406,o),
(401,423,o),
(438,465,c),
(445,467,o),
(445,473,o),
(445,483,c),
(434,494,o),
(414,498,o),
(381,498,cs),
(374,498,o),
(366,498,o),
(357,497,cs),
(334,497,o),
(122,499,o),
(71,499,cs),
(39,499,o),
(10,496,o),
(10,479,cs),
(10,474,o),
(13,467,o),
(21,458,cs),
(45,431,o),
(73,408,o),
(89,374,cs),
(91,371,o),
(93,368,o),
(96,368,cs),
(109,365,o),
(116,354,o),
(124,344,cs),
(152,315,o),
(179,284,o),
(207,253,c),
(183,217,o),
(151,189,o),
(124,157,cs),
(110,141,o),
(94,124,o),
(79,108,cs),
(71,99,o),
(11,38,o),
(11,14,cs),
(11,9,o),
(14,6,o),
(19,4,cs),
(28,2,o)
);
},
{
closed = 1;
nodes = (
(134,372,o),
(130,390,o),
(121,394,cs),
(110,398,o),
(112,412,o),
(104,414,cs),
(93,418,o),
(85,424,o),
(83,436,cs),
(80,449,o),
(68,446,o),
(62,452,cs),
(57,459,o),
(48,465,o),
(61,464,c),
(83,462,o),
(93,461,o),
(102,461,cs),
(198,458,o),
(271,468,o),
(317,456,cs),
(329,453,o),
(341,452,o),
(353,452,cs),
(366,452,o),
(379,453,o),
(391,456,c),
(388,448,o),
(379,448,o),
(377,443,cs),
(367,420,o),
(346,407,o),
(334,387,cs),
(322,365,o),
(301,357,o),
(287,338,cs),
(273,318,o),
(255,302,o),
(240,284,c),
(235,279,o),
(232,276,o),
(226,283,cs),
(199,310,o),
(176,343,o),
(143,365,cs)
);
},
{
closed = 1;
nodes = (
(160,41,o),
(64,42,c),
(75,52,o),
(84,65,o),
(95,75,cs),
(107,87,o),
(112,105,o),
(128,113,cs),
(141,120,o),
(150,135,o),
(160,147,cs),
(167,154,o),
(176,161,o),
(179,169,cs),
(187,191,o),
(205,205,o),
(219,221,cs),
(223,227,o),
(229,229,o),
(235,222,cs),
(248,206,o),
(267,194,o),
(275,171,cs),
(281,155,o),
(299,150,o),
(310,135,cs),
(329,111,o),
(384,50,o),
(393,45,c),
(390,44,o),
(386,42,o),
(382,40,cs),
(375,35,o)
);
}
);
width = 460;
}
);
unicode = 120;
},
{
glyphname = y;
lastChange = "2023-10-14 12:36:16 +0000";
layers = (
{
anchors = (
{
name = bottom;
pos = (182,-183);
},
{
name = top;
pos = (182,500);
}
);
layerId = m01;
shapes = (
{
closed = 1;
nodes = (
(231,-27,o),
(265,80,cs),
(281,130,o),
(360,359,o),
(360,455,cs),
(360,479,o),
(355,495,o),
(342,497,c),
(340,498,o),
(329,498,o),
(327,497,cs),
(322,493,o),
(311,496,o),
(303,496,cs),
(222,497,o),
(141,497,o),
(60,498,cs),
(52,498,o),
(44,499,o),
(36,498,cs),
(23,498,o),
(10,488,o),
(10,475,cs),
(10,471,o),
(11,468,o),
(13,464,cs),
(35,412,o),
(68,338,o),
(90,286,cs),
(94,278,o),
(107,277,o),
(103,263,cs),
(101,254,o),
(112,251,o),
(115,245,cs),
(131,211,o),
(146,177,o),
(161,143,c),
(159,131,o),
(160,121,o),
(172,115,c),
(172,104,o),
(172,93,o),
(184,87,c),
(184,64,o),
(204,55,o),
(209,37,c),
(217,31,l),
(216,28,o),
(193,-110,o),
(181,-151,c),
(179,-149,o),
(177,-147,o),
(174,-145,cs),
(154,-130,o),
(135,-90,o),
(125,-83,cs),
(112,-75,o),
(99,-69,o),
(92,-55,cs),
(86,-43,o),
(74,-36,o),
(61,-31,cs),
(56,-29,o),
(36,-22,o),
(33,-25,cs),
(26,-30,o),
(21,-36,o),
(22,-46,cs),
(22,-62,o),
(17,-158,o),
(17,-169,cs),
(17,-181,o),
(20,-193,o),
(38,-193,cs),
(70,-193,o),
(198,-196,o),
(201,-192,cs),
(204,-189,o)
);
},
{
closed = 1;
nodes = (
(88,-160,o),
(72,-159,o),
(56,-159,c),
(51,-154,o),
(52,-148,o),
(52,-132,cs),
(52,-72,l),
(77,-81,o),
(94,-100,o),
(111,-115,cs),
(138,-139,o),
(120,-138,o),
(146,-160,c)
);
},
{
closed = 1;
nodes = (
(231,68,c),
(225,74,o),
(216,98,o),
(210,109,cs),
(203,120,o),
(184,137,o),
(184,150,cs),
(185,160,o),
(183,167,o),
(176,173,c),
(179,186,o),
(163,214,o),
(159,225,cs),
(154,240,o),
(143,239,o),
(143,251,cs),
(143,263,o),
(128,266,o),
(126,280,cs),
(124,290,o),
(117,301,o),
(112,312,cs),
(96,350,o),
(69,410,o),
(53,448,cs),
(48,459,o),
(45,464,o),
(57,464,cs),
(93,464,ls),
(168,464,o),
(247,463,o),
(322,462,cs),
(323,462,o),
(324,460,o),
(324,456,cs),
(324,361,o),
(259,171,o)
);
}
);
width = 370;
}
);
unicode = 121;
},
{
glyphname = z;
lastChange = "2023-10-24 16:44:17 +0000";
layers = (
{
anchors = (
{
name = bottom;
pos = (240,0);
},
{
name = center;
pos = (240,250);
},
{
name = top;
pos = (240,500);
}
);
layerId = m01;
shapes = (
{
closed = 1;
nodes = (
(450,50,ls),
(450,91,o),
(454,127,o),
(454,152,cs),
(454,181,o),
(460,214,o),
(436,210,cs),
(418,207,o),
(351,128,o),
(297,77,cs),
(288,69,o),
(268,52,o),
(257,44,c),
(242,44,o),
(75,44,o),
(72,43,c),
(80,51,o),
(87,61,o),
(96,69,cs),
(108,81,o),
(112,99,o),
(129,108,cs),
(141,115,o),
(150,131,o),
(161,143,cs),
(167,150,o),
(176,156,o),
(179,165,cs),
(188,188,o),
(206,201,o),
(220,218,cs),
(224,224,o),
(344,351,o),
(356,361,cs),
(368,372,o),
(369,394,o),
(382,400,cs),
(397,408,o),
(401,424,o),
(411,436,cs),
(422,447,o),
(444,471,o),
(444,484,cs),
(444,490,o),
(431,497,o),
(427,497,c),
(380,498,o),
(402,497,o),
(355,497,cs),
(269,497,o),
(163,503,o),
(145,490,c),
(135,496,o),
(125,498,o),
(115,498,cs),
(88,498,o),
(59,501,o),
(13,486,cs),
(9,485,o),
(8,469,o),
(13,468,c),
(25,462,o),
(37,454,o),
(51,454,cs),
(56,454,o),
(61,456,o),
(67,458,cs),
(76,463,o),
(223,462,o),
(232,463,cs),
(242,464,o),
(254,466,o),
(261,463,cs),
(288,450,o),
(320,458,o),
(348,455,c),
(365,468,o),
(375,464,o),
(396,464,c),
(388,449,o),
(379,450,o),
(378,446,c),
(368,422,o),
(346,409,o),
(335,388,cs),
(323,365,o),
(302,356,o),
(288,338,cs),
(273,318,o),
(185,221,o),
(27,43,c),
(19,40,o),
(7,14,o),
(11,12,c),
(15,5,o),
(21,3,o),
(29,5,c),
(38,3,o),
(46,3,o),
(55,8,cs),
(79,19,o),
(125,12,o),
(135,6,c),
(147,13,o),
(160,14,o),
(173,14,cs),
(186,14,o),
(217,13,o),
(221,13,cs),
(231,13,o),
(243,15,o),
(250,12,cs),
(259,7,o),
(277,6,o),
(298,6,cs),
(344,6,o),
(404,13,o),
(418,13,cs),
(432,12,o),
(432,22,o),
(446,22,cs),
(451,22,o),
(452,30,o),
(450,35,c)
);
},
{
closed = 1;
nodes = (
(435,44,o),
(364,44,cs),
(306,44,l),
(323,61,o),
(341,83,o),
(360,101,cs),
(387,127,o),
(401,140,o),
(425,166,c),
(425,164,o),
(422,125,o),
(422,114,cs),
(418,44,o)
);
}
);
width = 485;
}
);
unicode = 122;
},
{
glyphname = period;
lastChange = "2023-10-13 19:27:39 +0000";
layers = (
{
layerId = m01;
shapes = (
{
closed = 1;
nodes = (
(76,15,o),
(76,38,cs),
(76,67,o),
(46,77,o),
(24,63,cs),
(12,57,o),
(10,46,o),
(10,32,cs),
(10,8,o),
(32,-2,o),
(42,-2,cs),
(58,-2,o)
);
}
);
width = 76;
}
);
unicode = 46;
},
{
glyphname = colon;
lastChange = "2023-10-13 20:26:42 +0000";
layers = (
{
layerId = m01;
shapes = (
{
closed = 1;
nodes = (
(44,464,o),
(48,467,o),
(58,457,cs),
(62,452,o),
(64,445,o),
(69,441,cs),
(94,418,o),
(112,389,o),
(136,365,cs),
(142,359,ls),
(146,355,o),
(149,353,o),
(150,348,c),
(156,339,o),
(162,329,o),
(168,341,c),
(169,352,o),
(169,364,o),
(173,375,c),
(172,383,o),
(173,391,o),
(173,399,cs),
(173,403,o),
(173,407,o),
(173,453,c),
(173,462,o),
(174,471,o),
(178,480,c),
(181,484,o),
(177,490,o),
(172,490,cs),
(43,490,l),
(33,487,o),
(34,480,o),
(36,475,cs)
);
},
{
closed = 1;
nodes = (
(106,465,o),
(109,465,o),
(112,466,cs),
(119,470,o),
(134,466,o),
(140,464,cs),
(148,462,o),
(148,462,o),
(148,454,cs),
(148,423,o),
(148,405,o),
(148,398,cs),
(148,396,o),
(147,394,o),
(146,393,c),
(140,397,o),
(104,438,o),
(85,459,cs),
(82,462,o),
(85,464,o),
(88,464,cs)
);
},
{
closed = 1;
nodes = (
(209,10,o),
(209,13,o),
(208,15,cs),
(202,26,o),
(195,24,o),
(186,33,cs),
(182,38,o),
(180,45,o),
(175,50,cs),
(150,72,o),
(132,101,o),
(108,125,cs),
(98,135,o),
(95,138,o),
(94,142,c),
(90,148,o),
(79,164,o),
(76,149,cs),
(75,138,o),
(75,126,o),
(71,116,c),
(72,108,o),
(71,100,o),
(71,92,cs),
(72,80,o),
(73,24,o),
(66,11,cs),
(63,6,o),
(67,1,o),
(72,1,cs),
(72,1,o),
(209,1,o),
(209,7,c)
);
},
{
closed = 1;
nodes = (
(159,29,ls),
(160,26,o),
(134,27,o),
(131,25,cs),
(124,22,o),
(106,27,o),
(104,28,cs),
(96,30,o),
(96,30,o),
(96,37,cs),
(96,92,ls),
(96,100,o),
(99,99,o),
(103,94,c),
(157,34,l)
);
}
);
width = 244;
}
);
unicode = 58;
},
{
glyphname = semicolon;
lastChange = "2023-10-13 20:26:04 +0000";
layers = (
{
layerId = m01;
shapes = (
{
pos = (-27,38);
ref = quotesinglbase;
},
{
closed = 1;
nodes = (
(9,402,o),
(13,405,o),
(23,395,cs),
(27,390,o),
(29,383,o),
(34,379,cs),
(59,356,o),
(77,327,o),
(101,303,cs),
(107,297,ls),
(111,293,o),
(114,291,o),
(115,286,c),
(121,277,o),
(127,267,o),
(133,279,c),
(134,290,o),
(134,302,o),
(138,313,c),
(137,321,o),
(138,329,o),
(138,337,cs),
(138,348,o),
(139,409,o),
(143,418,c),
(146,422,o),
(142,428,o),
(137,428,cs),
(8,428,l),
(-2,425,o),
(-1,418,o),
(1,413,cs)
);
},
{
closed = 1;
nodes = (
(70,398,o),
(76,398,o),
(79,400,cs),
(85,404,o),
(95,400,o),
(101,398,cs),
(109,397,o),
(109,397,o),
(109,388,cs),
(109,355,o),
(112,349,o),
(112,341,cs),
(112,339,o),
(111,337,o),
(110,336,c),
(104,340,o),
(77,371,o),
(60,393,cs),
(57,397,o),
(59,398,o),
(63,398,cs)
);
}
);
width = 144;
}
);
unicode = 59;
},
{
glyphname = exclam;
lastChange = "2023-10-13 19:35:43 +0000";
layers = (
{
layerId = m01;
shapes = (
{
closed = 1;
nodes = (
(30,16,ls),
(26,11,o),
(26,9,o),
(30,6,cs),
(40,1,o),
(41,0,o),
(48,2,cs),
(54,3,o),
(59,6,o),
(65,6,cs),
(71,7,o),
(78,4,o),
(84,4,cs),
(94,5,o),
(142,5,o),
(155,5,cs),
(165,5,o),
(175,6,o),
(185,7,cs),
(194,7,o),
(197,10,o),
(209,6,cs),
(223,6,o),
(230,5,o),
(224,16,cs),
(214,34,o),
(134,101,o),
(128,110,cs),
(125,115,o),
(113,115,o),
(110,112,cs)
);
},
{
closed = 1;
nodes = (
(160,42,o),
(182,34,o),
(164,27,cs),
(156,28,o),
(148,29,o),
(141,29,cs),
(121,29,o),
(100,26,o),
(81,25,c),
(76,26,o),
(78,30,o),
(88,42,cs),
(91,45,o),
(91,48,o),
(92,51,cs),
(94,59,o),
(98,65,o),
(106,68,c),
(117,70,o),
(116,79,o),
(125,71,cs),
(133,65,o),
(140,59,o),
(148,52,cs)
);
},
{
closed = 1;
nodes = (
(245,668,cs),
(246,672,o),
(246,674,o),
(246,677,cs),
(246,701,o),
(214,703,o),
(164,703,cs),
(141,703,ls),
(133,703,o),
(125,703,o),
(118,697,cs),
(116,695,o),
(112,694,o),
(110,695,c),
(103,701,o),
(94,702,o),
(84,702,cs),
(76,702,o),
(50,703,o),
(46,701,c),
(32,701,l),
(20,697,o),
(26,707,o),
(11,701,cs),
(0,698,o),
(0,689,o),
(0,688,cs),
(5,661,o),
(75,200,o),
(102,195,cs),
(103,195,o),
(111,193,o),
(121,201,c),
(131,217,o),
(143,265,o),
(148,281,cs),
(169,351,o),
(213,513,o),
(214,519,cs),
(230,586,o),
(225,602,o)
);
},
{
closed = 1;
nodes = (
(146,405,ls),
(136,364,o),
(122,322,o),
(110,281,c),
(95,352,o),
(63,536,o),
(61,542,cs),
(56,563,o),
(46,624,o),
(42,645,cs),
(41,653,o),
(40,660,o),
(38,668,c),
(93,669,o),
(156,671,o),
(211,672,c)
);
}
);
width = 246;
}
);
unicode = 33;
},
{
glyphname = question;
lastChange = "2023-10-13 19:40:31 +0000";
layers = (
{
layerId = m01;
shapes = (
{
closed = 1;
nodes = (
(224,50,o),
(168,97,o),
(161,114,cs),
(159,120,o),
(152,120,o),
(149,116,c),
(62,14,l),
(61,11,o),
(61,9,o),
(64,6,cs),
(69,1,o),
(73,-1,o),
(83,2,cs),
(88,3,o),
(93,6,o),
(99,6,cs),
(106,7,o),
(113,4,o),
(119,4,cs),
(139,7,o),
(201,1,o),
(221,1,cs),
(241,1,o),
(258,3,o),
(265,10,c),
(261,18,o),
(243,34,o),
(238,42,c)
);
},
{
closed = 1;
nodes = (
(198,26,o),
(181,25,o),
(163,25,c),
(115,25,l),
(109,25,o),
(106,25,o),
(112,31,cs),
(115,35,o),
(119,39,o),
(122,43,cs),
(124,46,o),
(126,49,o),
(127,52,cs),
(133,65,o),
(139,65,o),
(147,73,cs),
(153,79,o),
(154,78,o),
(160,72,cs),
(173,62,o),
(178,60,o),
(208,30,c)
);
},
{
closed = 1;
nodes = (
(401,541,o),
(415,546,o),
(415,553,cs),
(414,600,o),
(414,646,o),
(414,693,cs),
(414,702,o),
(404,712,o),
(395,712,cs),
(75,712,ls),
(59,712,o),
(59,711,o),
(52,694,cs),
(47,684,o),
(45,673,o),
(51,663,cs),
(59,651,o),
(59,640,o),
(52,627,cs),
(48,621,o),
(55,618,o),
(54,614,cs),
(53,607,o),
(43,592,o),
(48,587,c),
(55,575,o),
(57,562,o),
(57,549,cs),
(57,541,o),
(56,533,o),
(56,525,cs),
(56,514,o),
(61,507,o),
(69,501,cs),
(72,498,o),
(75,489,o),
(82,496,c),
(87,505,o),
(129,522,o),
(136,535,cs),
(144,552,o),
(157,562,o),
(173,567,cs),
(183,570,o),
(181,578,o),
(186,581,cs),
(199,590,o),
(212,587,o),
(220,601,cs),
(233,626,o),
(258,643,o),
(281,660,cs),
(288,666,o),
(295,672,o),
(298,678,cs),
(298,679,o),
(332,678,o),
(337,678,cs),
(371,678,ls),
(378,678,o),
(380,673,o),
(380,667,cs),
(381,633,o),
(378,545,o),
(381,536,cs),
(386,525,o),
(367,487,o),
(378,476,c),
(377,468,o),
(372,434,o),
(372,406,cs),
(372,401,o),
(369,398,o),
(365,398,cs),
(355,397,o),
(345,397,o),
(257,397,cs),
(250,397,o),
(241,400,o),
(237,396,cs),
(229,390,o),
(220,388,o),
(211,388,cs),
(182,390,o),
(187,389,o),
(158,388,c),
(149,388,o),
(139,373,o),
(143,363,cs),
(148,349,o),
(145,321,o),
(145,309,c),
(139,303,o),
(138,297,o),
(138,290,cs),
(138,285,o),
(138,301,o),
(138,206,c),
(139,195,o),
(165,199,o),
(171,203,c),
(171,275,o),
(172,329,o),
(180,348,cs),
(183,354,o),
(199,361,o),
(206,358,cs),
(211,355,o),
(216,355,o),
(221,355,c),
(250,362,o),
(261,364,o),
(273,364,cs),
(282,364,o),
(315,363,o),
(387,363,cs),
(401,363,o),
(412,391,o),
(412,411,cs),
(412,418,o),
(411,424,o),
(408,428,c),
(418,436,o),
(413,445,o),
(407,453,c),
(408,513,l),
(408,519,o),
(419,525,o),
(412,532,cs)
);
},
{
closed = 1;
nodes = (
(136,588,o),
(119,565,o),
(93,557,c),
(90,560,o),
(82,654,o),
(95,677,c),
(113,677,o),
(131,678,o),
(150,678,cs),
(248,678,l),
(218,653,o),
(188,628,o),
(157,604,cs)
);
}
);
width = 450;
}
);
unicode = 63;
},
{
glyphname = bullet;
lastChange = "2023-10-13 20:06:30 +0000";
layers = (
{
layerId = m01;
shapes = (
{
closed = 1;
nodes = (
(212,256,o),
(212,274,cs),
(212,330,o),
(155,342,o),
(116,320,cs),
(106,314,o),
(95,301,o),
(93,290,cs),
(90,262,o),
(87,237,o),
(112,217,cs),
(127,206,o),
(138,201,o),
(150,201,cs),
(163,201,o),
(177,208,o),
(196,224,cs),
(209,238,o)
);
}
);
width = 304;
}
);
unicode = 8226;
},
{
glyphname = asterisk;
lastChange = "2023-10-13 19:44:31 +0000";
layers = (
{
layerId = m01;
shapes = (
{
closed = 1;
nodes = (
(255,500,o),
(241,508,o),
(229,516,c),
(235,519,ls),
(254,529,o),
(270,541,o),
(290,548,cs),
(333,564,o),
(360,593,o),
(388,620,cs),
(395,626,o),
(386,639,o),
(377,634,cs),
(370,631,o),
(366,637,o),
(359,634,cs),
(342,628,o),
(323,615,o),
(304,601,cs),
(280,584,o),
(217,545,o),
(213,543,c),
(213,549,o),
(213,548,o),
(213,559,cs),
(213,575,o),
(214,590,o),
(218,607,cs),
(221,619,o),
(222,631,o),
(222,643,cs),
(222,663,o),
(215,690,o),
(209,718,cs),
(207,728,o),
(192,727,o),
(191,717,cs),
(190,709,o),
(183,709,o),
(181,702,cs),
(180,693,o),
(179,683,o),
(179,672,cs),
(179,658,o),
(181,631,o),
(181,617,cs),
(181,597,o),
(181,550,o),
(181,548,c),
(146,570,o),
(121,585,o),
(97,601,cs),
(77,615,o),
(58,628,o),
(41,634,cs),
(34,637,o),
(30,631,o),
(23,634,cs),
(14,639,o),
(5,627,o),
(13,620,cs),
(40,593,o),
(67,564,o),
(110,548,cs),
(133,540,o),
(149,527,o),
(171,516,c),
(159,508,o),
(145,500,o),
(128,490,cs),
(89,466,o),
(49,441,o),
(10,416,c),
(15,409,o),
(23,406,o),
(31,406,cs),
(44,406,o),
(71,418,o),
(81,423,cs),
(89,428,o),
(98,433,o),
(106,438,cs),
(135,455,o),
(160,470,o),
(182,484,c),
(182,471,o),
(181,456,o),
(181,439,cs),
(181,423,o),
(181,360,o),
(181,329,c),
(187,330,o),
(189,332,o),
(203,346,c),
(205,360,o),
(212,379,o),
(212,393,cs),
(212,403,o),
(214,460,o),
(214,488,c),
(237,473,o),
(263,456,o),
(295,438,cs),
(310,428,o),
(348,406,o),
(371,406,cs),
(378,406,o),
(391,411,o),
(391,416,c),
(351,441,o),
(312,466,o),
(272,490,cs)
);
}
);
width = 401;
}
);
unicode = 42;
},
{
glyphname = numbersign;
lastChange = "2023-10-13 19:49:01 +0000";
layers = (
{
layerId = m01;
shapes = (
{
closed = 1;
nodes = (
(525,186,o),
(503,204,o),
(457,204,cs),
(430,204,o),
(411,208,o),
(381,208,c),
(388,232,o),
(428,364,o),
(440,405,c),
(446,405,ls),
(538,405,o),
(578,407,o),
(582,421,c),
(576,449,o),
(548,444,o),
(523,452,c),
(522,453,o),
(503,445,o),
(487,445,cs),
(450,445,l),
(455,462,o),
(485,560,o),
(491,576,cs),
(500,602,o),
(495,617,o),
(498,639,cs),
(500,647,o),
(485,648,o),
(481,640,cs),
(464,611,o),
(445,580,o),
(444,545,cs),
(444,518,o),
(424,463,o),
(418,445,c),
(255,445,l),
(273,492,o),
(311,603,o),
(311,654,cs),
(311,656,ls),
(311,660,o),
(308,662,o),
(304,662,cs),
(294,662,o),
(279,652,o),
(274,629,cs),
(268,602,o),
(252,566,o),
(242,530,cs),
(235,502,o),
(226,474,o),
(217,444,c),
(205,444,o),
(195,443,o),
(186,443,cs),
(172,443,o),
(219,445,o),
(120,445,cs),
(94,445,o),
(79,436,o),
(56,434,cs),
(47,433,o),
(46,418,o),
(54,416,cs),
(78,411,o),
(101,404,o),
(126,404,cs),
(137,404,o),
(181,412,o),
(208,412,c),
(205,404,o),
(173,289,o),
(149,215,c),
(139,216,o),
(128,216,o),
(118,216,cs),
(69,216,o),
(54,209,o),
(9,203,cs),
(-11,200,o),
(3,174,o),
(32,173,cs),
(58,172,o),
(92,169,o),
(136,172,c),
(118,114,o),
(101,55,o),
(84,-4,c),
(138,-10,o),
(144,80,o),
(161,139,cs),
(165,151,o),
(168,162,o),
(172,172,c),
(313,172,o),
(287,173,o),
(330,173,c),
(330,134,o),
(316,98,o),
(305,64,c),
(297,24,o),
(296,10,o),
(295,-4,c),
(307,-7,o),
(331,-6,o),
(352,87,c),
(352,102,l),
(352,124,o),
(366,155,o),
(370,173,c),
(380,173,o),
(367,173,o),
(532,173,c)
);
},
{
closed = 1;
nodes = (
(251,206,o),
(219,207,o),
(184,212,c),
(200,263,o),
(226,360,o),
(243,411,c),
(274,413,o),
(308,413,o),
(348,408,cs),
(368,405,o),
(387,405,o),
(407,405,c),
(400,385,o),
(393,343,o),
(383,324,cs),
(361,286,o),
(352,247,o),
(342,208,c),
(298,207,o),
(320,207,o),
(286,206,cs)
);
},
{
pos = (258,282);
ref = period;
scale = (0.7426,0.7426);
}
);
width = 607;
}
);
unicode = 35;
},
{
glyphname = slash;
lastChange = "2023-10-13 19:42:21 +0000";
layers = (
{
layerId = m01;
shapes = (
{
closed = 1;
nodes = (
(4,-175,o),
(10,-170,o),
(18,-165,c),
(25,-129,o),
(52,-104,o),
(50,-65,c),
(64,-50,o),
(65,-29,o),
(66,-10,c),
(80,7,o),
(83,26,o),
(82,46,c),
(103,114,o),
(122,182,o),
(144,249,cs),
(148,262,o),
(160,272,o),
(159,287,cs),
(156,312,o),
(170,318,o),
(175,335,cs),
(205,438,o),
(249,586,o),
(279,689,cs),
(284,700,o),
(284,714,o),
(282,724,cs),
(280,732,o),
(277,736,o),
(271,739,c),
(268,735,o),
(255,729,o),
(246,693,cs),
(244,684,o),
(236,651,o),
(233,643,cs),
(212,570,o),
(176,448,o),
(154,374,cs),
(147,353,o),
(138,329,o),
(135,309,cs),
(131,282,o),
(111,272,o),
(113,245,c),
(107,227,o),
(97,217,o),
(93,197,cs),
(88,177,o),
(66,118,o),
(69,96,c),
(61,81,o),
(58,68,o),
(57,50,cs),
(57,41,o),
(51,25,o),
(47,13,cs),
(35,-15,o),
(13,-70,o),
(5,-99,c),
(0,-137,o),
(-1,-150,o),
(1,-161,cs)
);
}
);
width = 283;
}
);
unicode = 47;
},
{
glyphname = hyphen;
lastChange = "2023-10-24 16:37:31 +0000";
layers = (
{
layerId = m01;
shapes = (
{
closed = 1;
nodes = (
(453,241,o),
(453,256,o),
(446,257,cs),
(440,258,o),
(440,265,o),
(435,267,cs),
(428,268,o),
(421,269,o),
(413,269,cs),
(399,269,o),
(381,268,o),
(367,268,cs),
(353,268,o),
(338,268,o),
(322,268,cs),
(283,265,o),
(279,266,o),
(240,268,cs),
(228,268,o),
(162,268,o),
(140,268,c),
(140,256,o),
(143,246,o),
(177,238,c),
(180,237,o),
(200,236,o),
(207,236,cs),
(253,233,o),
(271,233,o),
(315,236,cs),
(331,236,o),
(345,235,o),
(360,230,cs),
(368,228,o),
(377,227,o),
(385,227,cs),
(406,227,o),
(426,234,o),
(446,239,cs)
);
}
);
width = 600;
}
);
unicode = 45;
},
{
glyphname = endash;
lastChange = "2023-10-24 16:37:23 +0000";
layers = (
{
layerId = m01;
shapes = (
{
closed = 1;
nodes = (
(545,261,o),
(545,276,o),
(534,277,cs),
(524,278,o),
(524,285,o),
(516,287,cs),
(505,288,o),
(494,289,o),
(482,289,cs),
(459,289,o),
(431,288,o),
(408,288,cs),
(386,288,o),
(362,288,o),
(337,288,cs),
(275,285,o),
(269,286,o),
(207,288,cs),
(188,288,o),
(83,288,o),
(48,288,c),
(48,276,o),
(61,257,o),
(87,249,c),
(91,248,o),
(139,247,o),
(150,247,cs),
(223,244,o),
(256,246,o),
(326,249,cs),
(351,249,o),
(424,247,o),
(437,247,cs),
(470,247,o),
(502,254,o),
(534,259,cs)
);
}
);
width = 600;
}
);
unicode = 8211;
},
{
glyphname = emdash;
lastChange = "2023-10-24 16:37:27 +0000";
layers = (
{
layerId = m01;
shapes = (
{
closed = 1;
nodes = (
(-29,249,o),
(-3,242,o),
(25,242,cs),
(35,242,o),
(47,243,o),
(58,246,cs),
(94,254,o),
(167,249,o),
(202,249,cs),
(229,248,o),
(265,250,o),
(292,250,cs),
(302,250,o),
(311,250,o),
(318,248,cs),
(342,242,o),
(368,240,o),
(393,240,cs),
(419,240,o),
(446,242,o),
(472,241,cs),
(528,240,o),
(658,236,o),
(704,255,c),
(701,262,l),
(678,279,o),
(640,287,o),
(589,286,c),
(575,280,o),
(559,280,o),
(542,280,cs),
(532,280,o),
(522,280,o),
(512,280,cs),
(468,280,o),
(212,280,o),
(165,281,cs),
(146,281,o),
(128,282,o),
(108,283,cs),
(87,283,o),
(67,284,o),
(48,284,cs),
(39,284,o),
(30,284,o),
(21,284,c),
(-11,284,o),
(-28,275,o),
(-52,274,cs),
(-62,273,o),
(-63,258,o),
(-54,256,cs)
);
}
);
width = 600;
}
);
unicode = 8212;
},
{
glyphname = underscore;
lastChange = "2023-10-13 19:00:06 +0000";
layers = (
{
layerId = m01;
shapes = (
{
closed = 1;
nodes = (
(522,-90,o),
(522,-75,o),
(512,-74,cs),
(503,-73,o),
(503,-66,o),
(495,-64,cs),
(486,-63,o),
(476,-62,o),
(465,-62,cs),
(444,-62,o),
(419,-63,o),
(398,-63,cs),
(378,-63,o),
(357,-63,o),
(334,-63,cs),
(278,-66,o),
(273,-65,o),
(217,-63,cs),
(200,-63,o),
(105,-63,o),
(73,-63,c),
(73,-75,o),
(85,-94,o),
(109,-102,c),
(112,-103,o),
(155,-104,o),
(165,-104,cs),
(231,-107,o),
(261,-105,o),
(324,-102,cs),
(347,-102,o),
(412,-104,o),
(424,-104,cs),
(454,-104,o),
(483,-97,o),
(512,-92,cs)
);
}
);
width = 600;
}
);
unicode = 95;
},
{
glyphname = parenleft;
lastChange = "2023-10-13 19:03:12 +0000";
layers = (
{
layerId = m01;
shapes = (
{
closed = 1;
nodes = (
(301,712,o),
(291,714,cs),
(272,718,o),
(264,693,o),
(245,677,cs),
(243,676,o),
(228,637,o),
(218,622,cs),
(200,596,o),
(183,570,o),
(165,545,cs),
(147,517,o),
(127,489,o),
(109,461,cs),
(93,434,o),
(35,360,o),
(21,342,cs),
(2,311,o),
(-7,300,o),
(5,278,c),
(32,227,o),
(127,87,o),
(151,51,cs),
(165,31,o),
(176,11,o),
(186,-13,cs),
(208,-64,o),
(237,-91,o),
(264,-121,cs),
(271,-129,o),
(279,-115,o),
(274,-104,cs),
(269,-96,o),
(274,-89,o),
(270,-81,cs),
(262,-60,o),
(247,-40,o),
(232,-18,cs),
(214,9,o),
(196,38,o),
(175,71,cs),
(151,105,o),
(135,132,o),
(105,180,cs),
(82,219,o),
(58,257,o),
(34,295,c),
(49,304,o),
(64,315,o),
(73,342,cs),
(77,358,o),
(84,367,o),
(91,378,cs),
(104,397,o),
(122,421,o),
(143,455,cs),
(150,467,o),
(158,483,o),
(165,487,cs),
(194,505,o),
(211,549,o),
(235,579,c),
(243,611,o),
(261,632,o),
(277,654,c),
(286,671,l),
(286,673,o)
);
}
);
width = 294;
}
);
unicode = 40;
},
{
glyphname = parenright;
lastChange = "2023-10-13 19:03:18 +0000";
layers = (
{
layerId = m01;
shapes = (
{
closed = 1;
nodes = (
(8,671,c),
(17,654,l),
(33,632,o),
(51,611,o),
(59,579,c),
(83,549,o),
(100,505,o),
(129,487,cs),
(136,483,o),
(144,467,o),
(151,455,cs),
(172,421,o),
(190,397,o),
(203,378,cs),
(210,367,o),
(217,358,o),
(221,342,cs),
(230,315,o),
(245,304,o),
(260,295,c),
(236,257,o),
(212,219,o),
(189,180,cs),
(159,132,o),
(143,105,o),
(119,71,cs),
(98,38,o),
(80,9,o),
(62,-18,cs),
(47,-40,o),
(32,-60,o),
(24,-81,cs),
(20,-89,o),
(25,-96,o),
(20,-104,cs),
(15,-115,o),
(23,-129,o),
(30,-121,cs),
(57,-91,o),
(86,-64,o),
(108,-13,cs),
(118,11,o),
(129,31,o),
(143,51,cs),
(167,87,o),
(262,227,o),
(289,278,c),
(301,300,o),
(292,311,o),
(273,342,cs),
(259,360,o),
(201,434,o),
(185,461,cs),
(167,489,o),
(147,517,o),
(129,545,cs),
(111,570,o),
(94,596,o),
(76,622,cs),
(66,637,o),
(51,676,o),
(49,677,cs),
(30,693,o),
(22,718,o),
(3,714,cs),
(-7,712,o),
(8,673,o)
);
}
);
width = 294;
}
);
unicode = 41;
},
{
glyphname = braceright;
lastChange = "2023-10-13 19:11:38 +0000";
layers = (
{
layerId = m01;
shapes = (
{
closed = 1;
nodes = (
(12,662,o),
(40,628,o),
(43,581,c),
(61,549,o),
(70,508,o),
(95,485,cs),
(101,477,o),
(106,463,o),
(111,451,cs),
(126,416,o),
(139,392,o),
(148,371,cs),
(155,359,o),
(158,349,o),
(160,334,cs),
(164,310,o),
(175,297,o),
(188,285,c),
(162,235,o),
(47,5,o),
(33,-23,cs),
(20,-44,o),
(7,-66,o),
(2,-85,cs),
(0,-93,o),
(5,-99,o),
(1,-106,cs),
(-2,-116,o),
(7,-129,o),
(13,-122,cs),
(37,-89,o),
(62,-60,o),
(77,-12,cs),
(84,12,o),
(93,31,o),
(104,53,cs),
(123,90,o),
(149,135,o),
(178,199,cs),
(187,218,o),
(202,217,o),
(203,242,c),
(210,263,l),
(237,234,o),
(289,178,o),
(290,178,cs),
(305,175,o),
(309,187,o),
(309,198,cs),
(309,204,o),
(306,209,o),
(305,215,cs),
(306,222,o),
(310,228,o),
(310,236,cs),
(310,241,o),
(310,245,o),
(310,251,cs),
(311,276,o),
(312,302,o),
(313,327,cs),
(313,332,o),
(313,337,o),
(313,341,cs),
(312,345,o),
(313,357,o),
(314,366,cs),
(314,374,o),
(307,382,o),
(301,378,cs),
(292,370,o),
(290,368,o),
(282,364,c),
(276,356,o),
(269,352,o),
(263,346,cs),
(255,336,o),
(245,327,o),
(236,317,cs),
(227,309,o),
(219,305,o),
(214,305,cs),
(194,305,o),
(190,354,o),
(173,389,cs),
(155,420,o),
(80,590,o),
(67,618,cs),
(60,632,o),
(51,671,o),
(50,671,cs),
(40,677,o),
(25,714,o),
(10,714,cs),
(7,714,o),
(4,714,o),
(1,711,c)
);
},
{
closed = 1;
nodes = (
(231,281,o),
(232,281,o),
(239,286,cs),
(247,295,o),
(249,294,o),
(286,327,c),
(284,287,o),
(284,271,o),
(283,240,cs),
(282,233,o),
(279,234,o),
(276,237,cs),
(273,239,o),
(266,244,o),
(263,249,cs),
(254,264,o),
(243,262,o),
(237,272,cs)
);
}
);
width = 318;
}
);
unicode = 125;
},
{
glyphname = bracketright;
lastChange = "2023-10-13 19:12:44 +0000";
layers = (
{
layerId = m01;
shapes = (
{
closed = 1;
nodes = (
(-1,-92,o),
(-1,-107,o),
(2,-108,cs),
(8,-111,o),
(12,-121,o),
(20,-119,cs),
(26,-118,o),
(33,-119,o),
(41,-119,cs),
(49,-118,o),
(55,-119,o),
(67,-119,cs),
(140,-119,ls),
(186,-119,o),
(190,-104,o),
(196,-58,cs),
(196,-31,o),
(195,-5,o),
(195,21,cs),
(195,150,o),
(205,111,o),
(205,240,cs),
(205,270,o),
(203,300,o),
(196,329,cs),
(193,340,o),
(194,379,o),
(194,390,cs),
(194,531,ls),
(194,551,o),
(198,570,o),
(203,589,cs),
(206,601,o),
(207,612,o),
(207,623,cs),
(207,650,o),
(213,676,o),
(201,706,c),
(200,708,o),
(179,708,o),
(169,708,cs),
(146,708,o),
(84,706,o),
(82,706,cs),
(76,708,o),
(71,708,o),
(66,708,cs),
(59,708,o),
(53,707,o),
(47,706,cs),
(44,706,o),
(30,710,o),
(19,710,cs),
(14,710,o),
(9,709,o),
(6,706,cs),
(-5,695,o),
(11,677,o),
(30,676,cs),
(37,676,o),
(60,676,o),
(170,676,c),
(166,661,o),
(163,646,o),
(163,626,cs),
(163,599,o),
(164,571,o),
(164,539,cs),
(164,279,ls),
(164,227,o),
(164,109,o),
(164,53,cs),
(164,37,o),
(163,21,o),
(156,-1,c),
(164,-26,o),
(161,-62,o),
(169,-87,c),
(72,-86,o),
(67,-85,o),
(62,-85,cs),
(55,-85,o),
(49,-86,o),
(43,-87,cs),
(41,-87,o),
(32,-86,o),
(22,-86,cs),
(14,-86,o),
(6,-86,o),
(1,-90,cs)
);
}
);
width = 278;
}
);
unicode = 93;
},
{
glyphname = quotesinglbase;
lastChange = "2023-10-13 19:16:09 +0000";
layers = (
{
layerId = m01;
shapes = (
{
closed = 1;
nodes = (
(108,82,o),
(100,86,o),
(98,84,cs),
(91,76,o),
(90,64,o),
(86,52,cs),
(84,36,o),
(78,22,o),
(73,5,cs),
(69,-15,o),
(64,-29,o),
(56,-54,cs),
(48,-76,o),
(41,-100,o),
(35,-124,c),
(36,-125,o),
(37,-124,o),
(38,-125,cs),
(43,-130,o),
(61,-127,o),
(63,-123,cs),
(68,-123,o),
(79,-98,o),
(81,-94,cs),
(92,-62,o),
(97,-37,o),
(103,-17,cs),
(106,-6,o),
(110,4,o),
(118,12,cs),
(133,29,o),
(129,54,o),
(127,77,cs),
(127,83,o),
(111,90,o),
(109,86,cs)
);
}
);
width = 164;
}
);
unicode = 8218;
},
{
glyphname = guilsinglright;
lastChange = "2023-10-13 19:23:35 +0000";
layers = (
{
layerId = m01;
shapes = (
{
closed = 1;
nodes = (
(1,110,o),
(6,103,o),
(2,98,cs),
(-4,92,o),
(5,77,o),
(11,79,cs),
(37,90,o),
(65,98,o),
(84,128,cs),
(94,142,o),
(104,151,o),
(117,162,cs),
(139,180,o),
(168,201,o),
(203,233,cs),
(213,242,o),
(242,261,o),
(242,288,cs),
(242,296,o),
(239,305,o),
(234,314,cs),
(226,327,o),
(213,338,o),
(202,348,cs),
(166,381,o),
(136,403,o),
(113,420,cs),
(101,431,o),
(16,509,o),
(5,505,cs),
(1,504,o),
(0,500,o),
(0,497,cs),
(0,479,o),
(24,446,o),
(35,438,cs),
(53,425,o),
(70,410,o),
(90,393,cs),
(113,378,o),
(128,365,o),
(157,339,cs),
(176,322,o),
(195,306,o),
(215,290,c),
(196,274,o),
(177,259,o),
(159,242,cs),
(131,217,o),
(57,158,o),
(40,147,cs),
(26,136,o),
(12,127,o),
(5,115,c)
);
}
);
width = 242;
}
);
unicode = 8250;
},
{
glyphname = quotesingle;
lastChange = "2023-10-13 19:21:07 +0000";
layers = (
{
layerId = m01;
shapes = (
{
closed = 1;
nodes = (
(49,468,o),
(65,470,o),
(65,479,cs),
(65,487,o),
(74,487,o),
(76,493,c),
(77,504,o),
(77,544,o),
(77,555,cs),
(77,663,ls),
(77,705,o),
(71,728,o),
(61,728,cs),
(56,728,o),
(50,734,o),
(44,703,cs),
(43,699,o),
(44,695,o),
(44,663,cs),
(44,590,o),
(35,626,o),
(35,559,cs),
(35,531,o),
(42,503,o),
(47,478,cs)
);
}
);
width = 112;
}
);
unicode = 39;
},
{
glyphname = dieresiscomb;
lastChange = "2023-10-24 16:47:56 +0000";
layers = (
{
anchors = (
{
name = _top;
pos = (146,528);
},
{
name = top;
pos = (146,665);
}
);
layerId = m01;
shapes = (
{
closed = 1;
nodes = (
(239,641,o),
(246,657,o),
(254,672,cs),
(258,680,o),
(256,684,o),
(249,689,cs),
(242,693,o),
(234,696,o),
(228,701,cs),
(220,707,o),
(207,701,o),
(196,695,cs),
(181,686,o),
(181,665,o),
(183,658,cs),
(187,648,o),
(201,641,o),
(217,641,cs)
);
},
{
closed = 1;
nodes = (
(92,643,o),
(99,659,o),
(107,674,cs),
(111,682,o),
(109,686,o),
(102,691,cs),
(95,695,o),
(87,698,o),
(81,703,cs),
(73,709,o),
(60,703,o),
(50,696,cs),
(34,688,o),
(34,667,o),
(36,660,cs),
(40,650,o),
(54,643,o),
(70,643,cs)
);
}
);
width = 291;
}
);
unicode = 776;
},
{
glyphname = dotaccentcomb;
lastChange = "2023-10-14 12:01:45 +0000";
layers = (
{
anchors = (
{
name = _top;
pos = (72,500);
},
{
name = top;
pos = (72,655);
}
);
layerId = m01;
shapes = (
{
closed = 1;
nodes = (
(92,643,o),
(99,659,o),
(107,674,cs),
(111,682,o),
(109,686,o),
(102,691,cs),
(95,695,o),
(87,698,o),
(81,703,cs),
(73,709,o),
(60,703,o),
(50,696,cs),
(34,688,o),
(34,667,o),
(36,660,cs),
(40,650,o),
(54,643,o),
(70,643,cs)
);
}
);
width = 144;
}
);
unicode = 775;
},
{
glyphname = acutecomb;
lastChange = "2023-10-24 16:33:50 +0000";
layers = (
{
anchors = (
{
name = _top;
pos = (111,500);
},
{
name = top;
pos = (111,689);
}
);
layerId = m01;
shapes = (
{
closed = 1;
nodes = (
(40,609,o),
(60,600,o),
(84,618,cs),
(106,636,o),
(119,651,o),
(129,663,cs),
(135,669,o),
(142,675,o),
(150,678,cs),
(171,684,o),
(175,702,o),
(181,718,cs),
(183,722,o),
(172,732,o),
(168,730,cs),
(165,729,o),
(161,734,o),
(158,732,cs),
(149,730,o),
(143,723,o),
(138,716,cs),
(129,705,o),
(120,697,o),
(109,688,cs),
(99,675,o),
(92,668,o),
(76,654,cs),
(61,641,o),
(48,627,o),
(34,614,c)
);
}
);
width = 222;
}
);
unicode = 769;
},
{
glyphname = caroncomb.alt;
lastChange = "2023-10-14 12:01:45 +0000";
layers = (
{
anchors = (
{
name = _topright;
pos = (15,800);
}
);
layerId = m01;
shapes = (
{
closed = 1;
nodes = (
(55,566,o),
(64,560,o),
(68,569,cs),
(72,578,o),
(75,589,o),
(78,602,c),
(82,614,o),
(106,696,o),
(96,703,c),
(92,705,o),
(79,712,o),
(61,680,c),
(59,676,o),
(36,625,o),
(35,568,c),
(34,555,o),
(50,545,o),
(53,556,c)
);
}
);
width = 133;
}
);
},
{
glyphname = circumflexcomb;
lastChange = "2023-10-14 12:01:45 +0000";
layers = (
{
anchors = (
{
name = _top;
pos = (135,500);
},
{
name = top;
pos = (104,687);
}
);
layerId = m01;
shapes = (
{
closed = 1;
nodes = (
(217,621,o),
(222,621,o),
(225,622,cs),
(228,622,o),
(232,627,o),
(235,629,cs),
(238,631,o),
(172,703,o),
(144,734,cs),
(141,739,o),
(134,738,o),
(132,733,cs),
(126,718,o),
(114,710,o),
(104,701,cs),
(94,693,o),
(92,688,o),
(82,679,cs),
(74,675,o),
(66,662,o),
(59,658,c),
(53,649,o),
(45,640,o),
(37,632,cs),
(31,620,o),
(42,621,o),
(53,623,cs),
(65,623,o),
(124,675,o),
(134,687,cs),
(141,690,o),
(141,690,o),
(149,686,cs),
(151,685,o),
(157,675,o),
(160,671,cs),
(163,669,o),
(174,653,o),
(177,650,cs),
(181,645,o),
(194,632,o),
(213,622,cs)
);
}
);
width = 270;
}
);
unicode = 770;
},
{
glyphname = ringcomb;
lastChange = "2023-10-14 12:31:02 +0000";
layers = (
{
anchors = (
{
name = _top;
pos = (125,500);
},
{
name = top;
pos = (125,772);
}
);
layerId = m01;
shapes = (
{
closed = 1;
nodes = (
(137,603,o),
(153,612,o),
(175,630,c),
(190,646,o),
(193,667,o),
(193,687,cs),
(193,752,o),
(128,766,o),
(83,740,cs),
(71,733,o),
(59,718,o),
(57,706,c),
(53,673,o),
(50,644,o),
(78,622,cs),
(95,609,o),
(108,603,o),
(122,603,cs)
);
},
{
closed = 1;
nodes = (
(114,636,o),
(106,640,o),
(96,646,cs),
(78,661,o),
(81,677,o),
(83,697,cs),
(83,706,o),
(91,714,o),
(99,718,cs),
(126,733,o),
(165,724,o),
(165,686,cs),
(165,674,o),
(162,662,o),
(153,652,c),
(140,641,o),
(130,636,o),
(122,636,cs)
);
}
);
width = 244;
}
);
unicode = 778;
},
{
glyphname = hookabovecomb;
lastChange = "2023-10-13 20:30:29 +0000";
layers = (
{
anchors = (
{
name = _top;
pos = (107,500);
},
{
name = top;
pos = (107,777);
}
);
layerId = m01;
shapes = (
{
closed = 1;
nodes = (
(35,752,o),
(35,738,c),
(33,720,o),
(56,718,o),
(63,724,cs),
(77,735,ls),
(83,739,o),
(88,740,o),
(94,738,c),
(98,734,o),
(111,720,o),
(113,716,cs),
(123,694,ls),
(128,683,o),
(138,672,o),
(138,659,cs),
(138,651,o),
(117,643,o),
(104,637,c),
(97,634,o),
(86,624,o),
(95,614,cs),
(105,602,l),
(163,625,l),
(177,630,o),
(180,645,o),
(180,657,cs),
(180,658,o),
(179,660,o),
(177,660,c),
(168,667,o),
(161,676,o),
(156,686,c),
(151,697,o),
(148,708,o),
(131,743,cs),
(127,751,o),
(123,760,o),
(118,767,c),
(115,774,o),
(100,779,o),
(94,776,c),
(83,771,o)
);
}
);
width = 215;
}
);
unicode = 777;
},
{
glyphname = commaturnedabovecomb;
lastChange = "2023-10-14 12:01:45 +0000";
layers = (
{
anchors = (
{
name = _top;
pos = (107,500);
},
{
name = top;
pos = (107,801);
}
);
layerId = m01;
shapes = (
{
closed = 1;
nodes = (
(171,646,l),
(181,649,o),
(180,656,o),
(178,661,cs),
(170,672,o),
(166,669,o),
(156,679,cs),
(152,684,o),
(150,691,o),
(145,695,cs),
(120,718,o),
(102,747,o),
(78,771,cs),
(72,777,ls),
(68,781,o),
(65,783,o),
(64,788,c),
(58,797,o),
(52,807,o),
(46,795,c),
(45,784,o),
(45,772,o),
(41,761,c),
(42,753,o),
(41,745,o),
(41,737,cs),
(41,733,o),
(41,729,o),
(41,683,c),
(41,674,o),
(40,665,o),
(36,656,c),
(33,652,o),
(37,646,o),
(42,646,cs)
);
},
{
closed = 1;
nodes = (
(95,666,o),
(80,670,o),
(74,672,cs),
(66,674,o),
(66,674,o),
(66,682,cs),
(66,713,o),
(66,731,o),
(66,738,cs),
(66,740,o),
(67,742,o),
(68,743,c),
(74,739,o),
(110,698,o),
(129,677,cs),
(132,674,o),
(129,672,o),
(126,672,cs),
(108,671,o),
(105,671,o),
(102,670,cs)
);
}
);
width = 214;
}
);
unicode = 786;
},
{
glyphname = horncomb;
lastChange = "2023-10-14 12:02:40 +0000";
layers = (
{
anchors = (
{
name = _topright;
pos = (-18,784);
},
{
name = topright;
pos = (205,654);
}
);
layerId = m01;
shapes = (
{
closed = 1;
nodes = (
(57,462,o),
(74,458,o),
(79,461,cs),
(88,467,o),
(104,460,o),
(117,461,cs),
(150,463,o),
(175,467,o),
(177,504,cs),
(177,509,o),
(177,505,o),
(177,536,cs),
(177,543,o),
(176,570,o),
(178,575,cs),
(185,593,o),
(182,604,o),
(172,620,c),
(165,634,o),
(158,637,o),
(148,620,c),
(152,612,o),
(145,606,o),
(146,599,cs),
(151,560,o),
(143,567,o),
(146,554,cs),
(148,547,o),
(146,528,o),
(146,521,cs),
(148,475,o),
(62,500,o),
(47,487,c),
(39,487,o),
(37,461,o),
(53,461,c)
);
}
);
width = 220;
}
);
unicode = 795;
},
{
glyphname = cedillacomb;
lastChange = "2023-10-14 12:01:45 +0000";
layers = (
{
anchors = (
{
name = _bottom;
pos = (63,-3);
},
{
name = bottom;
pos = (86,-218);
}
);
layerId = m01;
shapes = (
{
closed = 1;
nodes = (
(96,-221,o),
(119,-212,o),
(126,-211,cs),
(133,-209,o),
(148,-189,o),
(162,-174,cs),
(176,-158,o),
(169,-147,o),
(170,-137,cs),
(171,-126,o),
(165,-103,o),
(163,-98,cs),
(161,-92,o),
(123,-64,o),
(113,-61,cs),
(103,-58,o),
(93,-59,o),
(78,-63,cs),
(63,-67,o),
(49,-65,o),
(46,-65,cs),
(43,-65,o),
(68,-31,o),
(81,-3,c),
(85,4,l),
(49,4,l),
(46,-11,o),
(14,-53,o),
(14,-59,cs),
(14,-64,o),
(5,-73,o),
(7,-80,cs),
(9,-86,o),
(15,-90,o),
(24,-95,cs),
(33,-101,o),
(48,-96,o),
(65,-96,cs),
(82,-96,o),
(87,-91,o),
(92,-90,cs),
(97,-89,o),
(119,-102,o),
(123,-107,cs),
(127,-111,o),
(124,-122,o),
(129,-127,cs),
(134,-133,o),
(133,-138,o),
(133,-145,cs),
(133,-153,o),
(120,-176,o),
(105,-183,cs),
(90,-190,o),
(77,-179,o),
(73,-182,cs),
(66,-188,o),
(44,-188,o),
(28,-182,cs),
(12,-175,o),
(-4,-186,o),
(4,-198,c),
(12,-209,l),
(16,-209,o),
(56,-213,o),
(76,-217,cs)
);
}
);
width = 171;
}
);
unicode = 807;
},
{
glyphname = hungarumlaut;
lastChange = "2023-10-13 20:10:55 +0000";
layers = (
{
layerId = m01;
shapes = (
{
closed = 1;
nodes = (
(156,781,o),
(151,785,o),
(147,784,cs),
(141,781,o),
(135,773,o),
(129,765,cs),
(122,755,o),
(113,746,o),
(103,735,cs),
(95,722,o),
(87,714,o),
(73,699,cs),
(60,685,o),
(48,669,o),
(35,654,c),
(41,650,o),
(62,643,o),
(84,664,cs),
(105,683,o),
(115,700,o),
(125,712,cs),
(131,719,o),
(137,725,o),
(146,729,cs),
(165,736,o),
(167,755,o),
(172,772,cs),
(174,776,o),
(162,786,o),
(159,783,cs)
);
},
{
closed = 1;
nodes = (
(266,782,o),
(261,786,o),
(257,784,cs),
(251,782,o),
(245,774,o),
(239,766,cs),
(232,756,o),
(223,747,o),
(214,735,cs),
(205,723,o),
(197,715,o),
(183,700,cs),
(170,686,o),
(158,670,o),
(145,655,c),
(151,651,o),
(172,644,o),
(194,665,cs),
(215,684,o),
(225,701,o),
(235,713,cs),
(241,720,o),
(247,726,o),
(256,730,cs),
(275,737,o),
(277,756,o),
(283,773,cs),
(284,777,o),
(272,787,o),
(269,784,cs)
);
}
);
width = 318;
}
);
unicode = 733;
},
{
glyphname = breve;
lastChange = "2023-10-14 12:08:37 +0000";
layers = (
{
layerId = m01;
shapes = (
{
closed = 1;
nodes = (
(71,667,o),
(82,669,o),
(93,669,cs),
(108,669,o),
(248,666,o),
(263,668,cs),
(270,668,o),
(281,679,o),
(281,686,cs),
(283,701,o),
(283,754,o),
(270,761,cs),
(254,770,o),
(249,750,o),
(249,741,c),
(254,719,l),
(261,708,o),
(248,696,o),
(240,696,cs),
(229,693,o),
(178,697,o),
(167,697,cs),
(163,697,o),
(159,697,o),
(156,700,cs),
(151,704,o),
(149,700,o),
(145,699,cs),
(129,695,o),
(91,696,o),
(75,697,c),
(71,704,o),
(69,712,o),
(69,720,cs),
(70,739,o),
(70,743,o),
(70,747,cs),
(70,755,o),
(66,769,o),
(40,761,c),
(35,689,ls),
(34,674,o),
(60,660,o),
(61,661,cs)
);
}
);
width = 317;
}
);
unicode = 728;
},
{
glyphname = tilde;
lastChange = "2023-10-13 20:12:57 +0000";
layers = (
{
layerId = m01;
shapes = (
{
closed = 1;
nodes = (
(345,738,o),
(334,738,cs),
(315,738,o),
(242,695,o),
(233,690,c),
(232,690,o),
(210,706,o),
(199,714,cs),
(194,717,o),
(153,747,o),
(149,745,cs),
(135,738,o),
(120,731,o),
(107,722,cs),
(92,712,o),
(74,712,o),
(60,702,cs),
(53,697,o),
(45,692,o),
(38,688,c),
(34,680,o),
(33,665,o),
(45,663,cs),
(60,663,o),
(80,670,o),
(89,679,cs),
(95,688,o),
(104,691,o),
(114,694,cs),
(124,698,o),
(132,711,o),
(142,713,c),
(150,713,o),
(162,700,o),
(171,697,cs),
(188,689,o),
(225,658,o),
(230,658,cs),
(235,657,o),
(242,659,o),
(244,662,cs),
(260,678,o),
(306,700,o),
(327,713,cs),
(339,719,o)
);
}
);
width = 375;
}
);
unicode = 732;
},
{
glyphname = ogonek;
lastChange = "2023-10-14 12:01:15 +0000";
layers = (
{
layerId = m01;
shapes = (
{
closed = 1;
nodes = (
(115,-214,o),
(143,-217,o),
(154,-208,cs),
(163,-201,o),
(164,-196,o),
(159,-184,cs),
(153,-170,o),
(127,-172,o),
(111,-173,cs),
(86,-175,o),
(89,-157,o),
(84,-153,c),
(67,-145,o),
(51,-77,o),
(140,-1,c),
(114,0,l),
(64,-44,o),
(25,-87,o),
(25,-153,c),
(29,-174,l),
(43,-208,o),
(88,-214,o),
(102,-214,cs)
);
}
